<svg width="160" height="45" viewBox="0 0 160 45" fill="none" xmlns="http://www.w3.org/2000/svg">
<g clip-path="url(#clip0_85_542)">
<path d="M68.0691 33.7865H63.0971V23.4543L59.8001 30.3128H57.6611L54.3651 23.4543V33.7859H49.5366V17.3279H55.0449L58.8039 24.9495L62.5624 17.3279H68.0697V33.7865H68.0691Z" fill="white"/>
<path d="M86.9368 25.5643C86.9368 28.2723 86.2078 30.4052 84.747 31.962C83.2863 33.522 81.2211 34.3004 78.5505 34.3004C75.9013 34.3004 73.8409 33.522 72.3718 31.962C70.9016 30.4052 70.1667 28.2723 70.1667 25.5643C70.1667 22.8298 70.9016 20.6873 72.3718 19.1385C73.8409 17.5896 75.9013 16.8149 78.5505 16.8149C81.2117 16.8149 83.2753 17.5944 84.7386 19.1523C86.203 20.7123 86.9368 22.8484 86.9368 25.5643ZM81.7464 25.5951C81.7464 24.6176 81.6679 23.8036 81.5081 23.1537C81.3499 22.5038 81.1294 21.984 80.8508 21.5932C80.5528 21.1833 80.2139 20.8965 79.8394 20.7372C79.4623 20.5753 79.0339 20.4951 78.551 20.4951C78.0985 20.4951 77.6894 20.5647 77.3233 20.7075C76.9567 20.8482 76.6199 21.1195 76.3109 21.521C76.0218 21.9011 75.7903 22.4252 75.6175 23.0884C75.4436 23.7532 75.3577 24.5884 75.3577 25.5951C75.3577 26.6003 75.4389 27.4148 75.6023 28.0344C75.7662 28.6556 75.9783 29.1521 76.2392 29.5227C76.5084 29.9029 76.8457 30.1827 77.2505 30.3574C77.6549 30.5342 78.1037 30.6224 78.595 30.6224C78.9993 30.6224 79.412 30.5342 79.8305 30.3574C80.2495 30.1822 80.5858 29.9183 80.8356 29.5663C81.1347 29.1463 81.3604 28.6408 81.5149 28.0498C81.67 27.4594 81.7464 26.6401 81.7464 25.5951Z" fill="white"/>
<path d="M105.099 25.3308C105.099 27.9591 104.442 30.0788 103.126 31.6913C101.81 33.3039 100.189 34.111 98.2619 34.111C97.4506 34.111 96.7472 34.0159 96.1506 33.8312C95.5536 33.6458 94.9162 33.357 94.241 32.9678V39.8264H89.1826V17.328H94.241V19.0425C94.9842 18.3984 95.7395 17.8754 96.5105 17.4745C97.2819 17.0747 98.1734 16.8745 99.1847 16.8745C101.066 16.8745 102.52 17.6311 103.552 19.146C104.584 20.6604 105.099 22.7216 105.099 25.3308ZM99.9222 25.4327C99.9222 23.8308 99.6797 22.6685 99.1931 21.9458C98.706 21.2221 97.9471 20.8611 96.9148 20.8611C96.4623 20.8611 96.0118 20.9349 95.5651 21.0819C95.1168 21.2274 94.6758 21.4473 94.241 21.7409V30.0225C94.5113 30.1382 94.8083 30.2211 95.1304 30.2704C95.453 30.3182 95.8374 30.3442 96.2805 30.3442C97.5145 30.3442 98.43 29.9359 99.0266 29.1193C99.6242 28.3032 99.9222 27.0756 99.9222 25.4327Z" fill="white"/>
<path d="M116.75 34.2266C113.685 34.2266 111.337 33.4848 109.702 31.9991C108.07 30.5151 107.252 28.3997 107.252 25.654C107.252 22.9668 108.014 20.8222 109.536 19.2197C111.059 17.6172 113.189 16.8154 115.927 16.8154C118.413 16.8154 120.282 17.4961 121.537 18.8533C122.788 20.2121 123.416 22.1549 123.416 24.686V26.5328H112.327C112.375 27.2947 112.534 27.9319 112.803 28.4453C113.074 28.9583 113.43 29.3655 113.873 29.6703C114.308 29.973 114.813 30.1901 115.391 30.3223C115.969 30.4535 116.6 30.5204 117.284 30.5204C117.873 30.5204 118.451 30.4535 119.019 30.3223C119.588 30.1901 120.109 30.017 120.58 29.8014C120.995 29.6172 121.377 29.4149 121.73 29.2014C122.083 28.9869 122.369 28.7953 122.592 28.6291H123.127V32.8641C122.712 33.0298 122.333 33.1848 121.991 33.326C121.649 33.4683 121.18 33.6133 120.58 33.7588C120.032 33.9053 119.467 34.02 118.884 34.1029C118.299 34.1852 117.59 34.2266 116.75 34.2266ZM118.427 23.4404C118.399 22.354 118.151 21.5299 117.684 20.9623C117.215 20.3963 116.5 20.1128 115.536 20.1128C114.553 20.1128 113.786 20.4112 113.23 21.0075C112.675 21.6037 112.371 22.4135 112.313 23.4404H118.427Z" fill="white"/>
<path d="M142.34 25.5643C142.34 28.2723 141.611 30.4052 140.151 31.962C138.69 33.522 136.627 34.3004 133.957 34.3004C131.306 34.3004 129.247 33.522 127.776 31.962C126.306 30.4052 125.573 28.2723 125.573 25.5643C125.573 22.8298 126.306 20.6873 127.776 19.1385C129.247 17.5896 131.307 16.8149 133.957 16.8149C136.617 16.8149 138.679 17.5944 140.145 19.1523C141.609 20.7123 142.34 22.8484 142.34 25.5643ZM137.152 25.5951C137.152 24.6176 137.071 23.8036 136.913 23.1537C136.753 22.5038 136.535 21.984 136.254 21.5932C135.956 21.1833 135.619 20.8965 135.243 20.7372C134.868 20.5753 134.437 20.4951 133.956 20.4951C133.504 20.4951 133.093 20.5647 132.728 20.7075C132.361 20.8482 132.023 21.1195 131.714 21.521C131.425 21.9011 131.195 22.4252 131.021 23.0884C130.847 23.7532 130.761 24.5884 130.761 25.5951C130.761 26.6003 130.842 27.4148 131.007 28.0344C131.171 28.6556 131.381 29.1521 131.642 29.5227C131.912 29.9029 132.249 30.1827 132.655 30.3574C133.06 30.5342 133.507 30.6224 134 30.6224C134.404 30.6224 134.815 30.5342 135.236 30.3574C135.655 30.1822 135.989 29.9183 136.24 29.5663C136.538 29.1463 136.765 28.6408 136.919 28.0498C137.074 27.4594 137.152 26.6401 137.152 25.5951Z" fill="white"/>
<path d="M160 33.7865H154.94V26.7378H149.705V33.7865H144.647V17.3279H149.705V23.0289H154.94V17.3279H160V33.7865Z" fill="white"/>
<path d="M53.2577 10.7723H52.5826V7.60872L51.61 9.66253H51.1025L50.1378 7.60872V10.7723H49.4988V6.74536H50.3226L51.3895 8.98023L52.4203 6.74536H53.2588V10.7723H53.2577Z" fill="white"/>
<path d="M57.3562 10.7723H56.6738V8.95899H54.838V10.7723H54.155V6.74536H54.838V8.37545H56.6738V6.74536H57.3562V10.7723Z" fill="white"/>
<path d="M61.5853 8.76091C61.5853 9.4379 61.4219 9.9625 61.0925 10.3305C60.7636 10.699 60.3252 10.8843 59.7784 10.8843C59.2143 10.8843 58.7712 10.6947 58.4486 10.3119C58.126 9.93171 57.9641 9.41507 57.9641 8.76144C57.9641 8.0887 58.1307 7.56463 58.4638 7.19188C58.7964 6.82073 59.2347 6.6333 59.7789 6.6333C60.3257 6.6333 60.7641 6.81967 61.093 7.19135C61.4219 7.56144 61.5853 8.08551 61.5853 8.76091ZM60.8819 8.76091C60.8819 8.23896 60.7866 7.85189 60.5949 7.59914C60.4032 7.34427 60.1314 7.2179 59.7779 7.2179C59.4228 7.2179 59.1488 7.34374 58.9561 7.59914C58.7639 7.85242 58.668 8.23896 58.668 8.76091C58.668 9.26534 58.7644 9.64817 58.9561 9.90941C59.1488 10.1701 59.4228 10.3002 59.7779 10.3002C60.1288 10.3002 60.4001 10.1728 60.5928 9.91631C60.7861 9.66091 60.8819 9.27436 60.8819 8.76091Z" fill="white"/>
<path d="M64.7731 7.34058H62.8798V10.7723H62.1968V6.74536H64.7731V7.34058Z" fill="white"/>
<path d="M68.5262 8.76091C68.5262 9.4379 68.3617 9.9625 68.0334 10.3305C67.705 10.699 67.2655 10.8843 66.7193 10.8843C66.1557 10.8843 65.7126 10.6947 65.3895 10.3119C65.0663 9.93171 64.9055 9.41507 64.9055 8.76144C64.9055 8.0887 65.071 7.56463 65.4041 7.19188C65.7362 6.82073 66.1756 6.6333 66.7193 6.6333C67.2655 6.6333 67.705 6.81967 68.0334 7.19135C68.3617 7.56144 68.5262 8.08551 68.5262 8.76091ZM67.8228 8.76091C67.8228 8.23896 67.727 7.85189 67.5363 7.59914C67.3446 7.34427 67.0728 7.2179 66.7193 7.2179C66.3647 7.2179 66.0902 7.34374 65.8975 7.59914C65.7053 7.85242 65.6094 8.23896 65.6094 8.76091C65.6094 9.26534 65.7053 9.64817 65.8975 9.90941C66.0902 10.1701 66.3647 10.3002 66.7193 10.3002C67.0697 10.3002 67.342 10.1728 67.5347 9.91631C67.727 9.66091 67.8228 9.27436 67.8228 8.76091Z" fill="white"/>
<path d="M74.0665 8.65167C74.0665 9.01114 74.0215 9.32706 73.9335 9.60211C73.8455 9.87715 73.7292 10.1044 73.5836 10.2818C73.4359 10.4633 73.2694 10.5987 73.0834 10.6917C72.897 10.7835 72.7016 10.8303 72.4984 10.8303C72.3455 10.8303 72.213 10.8005 72.0977 10.7442C71.982 10.6864 71.8851 10.6364 71.8065 10.595V12.2591H71.1314V10.595C70.9879 10.6704 70.8748 10.7283 70.7894 10.7681C70.7056 10.8101 70.5663 10.8303 70.372 10.8303C69.9173 10.8303 69.5539 10.6465 69.2805 10.2796C69.0071 9.91326 68.8704 9.41096 68.8704 8.7722C68.8704 8.43556 68.9138 8.13503 69.0008 7.87007C69.0882 7.60618 69.2082 7.38052 69.3611 7.19521C69.5015 7.02583 69.6633 6.89202 69.8487 6.79751C70.0341 6.70193 70.2264 6.65414 70.4275 6.65414C70.5694 6.65414 70.6988 6.68016 70.814 6.72848C70.9282 6.77786 71.0345 6.83521 71.1319 6.89574V5.16211H71.8071V6.89627C71.9129 6.83149 72.0354 6.77574 72.1726 6.72636C72.3109 6.67963 72.4523 6.65468 72.5969 6.65468C73.052 6.65468 73.4103 6.8368 73.6732 7.19786C73.9356 7.55945 74.0665 8.04423 74.0665 8.65167ZM71.1309 10.08V7.39432C71.0434 7.35291 70.9565 7.31733 70.869 7.28547C70.7821 7.25468 70.6846 7.23981 70.5788 7.23981C70.2693 7.23981 70.0237 7.3614 69.8425 7.60246C69.6597 7.84512 69.5696 8.22476 69.5696 8.73875C69.5696 9.20707 69.6513 9.57556 69.8142 9.84583C69.9776 10.114 70.2117 10.2494 70.5165 10.2494C70.6375 10.2494 70.7464 10.2303 70.8428 10.1952C70.9402 10.1591 71.0356 10.1214 71.1309 10.08ZM73.3652 8.72813C73.3652 8.26937 73.2867 7.90618 73.1316 7.64016C72.9756 7.37255 72.7451 7.24034 72.4408 7.24034C72.3146 7.24034 72.203 7.25627 72.1082 7.28919C72.0129 7.31999 71.9118 7.35609 71.806 7.39485V10.0805C71.9118 10.1315 71.9977 10.1718 72.0653 10.2032C72.1307 10.2356 72.2287 10.2504 72.3565 10.2504C72.6718 10.2504 72.9174 10.1214 73.0976 9.86441C73.2757 9.60689 73.3652 9.2283 73.3652 8.72813Z" fill="white"/>
<path d="M77.8816 6.74536L75.6996 12.259H74.9705L75.6965 10.5779L74.2231 6.74536H74.9595L76.0668 9.72678L77.1708 6.74536H77.8816Z" fill="white"/>
<path d="M81.5095 10.7723H80.8265V8.95899H78.9918V10.7723H78.3088V6.74536H78.9918V8.37545H80.8265V6.74536H81.5095V10.7723Z" fill="white"/>
<path d="M85.6666 10.7723H84.817L83.427 8.91651H83.0866V10.7723H82.4031V6.74536H83.0866V8.4981C83.262 8.49545 83.4129 8.45775 83.537 8.38713C83.6611 8.31704 83.7669 8.17952 83.8554 7.97563C83.8816 7.91616 83.912 7.84554 83.944 7.76536C83.9764 7.68731 84.0021 7.61669 84.022 7.55722C84.1283 7.26094 84.276 7.05173 84.4646 6.92855C84.6526 6.80748 84.8993 6.74536 85.202 6.74536H85.3864V7.32943H85.2298C85.0396 7.32943 84.8951 7.36872 84.8013 7.44731C84.705 7.52483 84.6248 7.66713 84.5588 7.87421C84.4908 8.08341 84.4106 8.24642 84.3205 8.36271C84.2284 8.47899 84.1267 8.56925 84.0141 8.63085L85.6666 10.7723Z" fill="white"/>
<path d="M89.5931 11.7381H88.9583V10.7718H86.0154V6.74487H86.6984V10.1877H88.5095V6.74487H89.1909V10.1877H89.5937V11.7381H89.5931Z" fill="white"/>
<path d="M93.3756 10.7723H92.7005V7.76908L90.793 10.7723H90.176V6.74536H90.8517V9.70182L92.7367 6.74536H93.3762V10.7723H93.3756Z" fill="white"/>
<path d="M97.6087 8.76091C97.6087 9.4379 97.4448 9.9625 97.1159 10.3305C96.7875 10.699 96.348 10.8843 95.8012 10.8843C95.2382 10.8843 94.7962 10.6947 94.4709 10.3119C94.1483 9.93171 93.9885 9.41507 93.9885 8.76144C93.9885 8.0887 94.154 7.56463 94.4866 7.19188C94.8197 6.82073 95.2581 6.6333 95.8007 6.6333C96.3475 6.6333 96.7864 6.81967 97.1153 7.19135C97.4448 7.56144 97.6087 8.08551 97.6087 8.76091ZM96.9053 8.76091C96.9053 8.23896 96.8095 7.85189 96.6188 7.59914C96.4266 7.34427 96.1563 7.2179 95.8012 7.2179C95.4472 7.2179 95.1722 7.34374 94.98 7.59914C94.7878 7.85242 94.6919 8.23896 94.6919 8.76091C94.6919 9.26534 94.7878 9.64817 94.98 9.90941C95.1727 10.1701 95.4472 10.3002 95.8012 10.3002C96.1516 10.3002 96.425 10.1728 96.6167 9.91631C96.8095 9.66091 96.9053 9.27436 96.9053 8.76091Z" fill="white"/>
<path d="M101.421 10.7723H100.74V8.95899H98.9023V10.7723H98.2209V6.74536H98.9023V8.37545H100.74V6.74536H101.421V10.7723Z" fill="white"/>
<path d="M104.58 10.3443C104.524 10.3847 104.449 10.4415 104.358 10.5147C104.262 10.588 104.172 10.6464 104.087 10.6894C103.965 10.7526 103.848 10.7993 103.736 10.8328C103.624 10.8678 103.465 10.8843 103.262 10.8843C103.095 10.8843 102.936 10.8524 102.786 10.7908C102.637 10.7287 102.504 10.6411 102.392 10.5285C102.283 10.417 102.196 10.2795 102.13 10.1186C102.066 9.95616 102.032 9.78465 102.032 9.60465C102.032 9.32642 102.091 9.08802 102.21 8.89262C102.328 8.69722 102.516 8.54111 102.773 8.42642C102.999 8.32235 103.268 8.25014 103.578 8.21191C103.889 8.17156 104.222 8.14182 104.58 8.12324V7.99421C104.58 7.83492 104.556 7.70589 104.508 7.61032C104.459 7.51209 104.391 7.43722 104.303 7.38465C104.217 7.3289 104.111 7.29226 103.985 7.27421C103.859 7.25722 103.728 7.24713 103.596 7.24713C103.44 7.24713 103.254 7.27103 103.041 7.31775C102.829 7.36501 102.614 7.43297 102.403 7.52165H102.362V6.83244C102.488 6.79687 102.668 6.75704 102.903 6.71403C103.138 6.67103 103.37 6.64819 103.6 6.64819C103.878 6.64819 104.113 6.67103 104.304 6.71403C104.496 6.75757 104.666 6.83616 104.818 6.94766C104.966 7.05917 105.077 7.20253 105.149 7.37722C105.223 7.55244 105.259 7.76589 105.259 8.01864V10.7733H104.58V10.3443ZM104.58 9.782V8.66324C104.417 8.67811 104.213 8.69775 103.965 8.72377C103.716 8.74819 103.517 8.78324 103.364 8.8289C103.183 8.88465 103.034 8.96908 102.913 9.0843C102.795 9.19846 102.737 9.35722 102.737 9.56058C102.737 9.79209 102.802 9.96625 102.933 10.0841C103.064 10.2015 103.254 10.2609 103.506 10.2609C103.721 10.2609 103.916 10.2142 104.09 10.1208C104.263 10.0294 104.428 9.9158 104.58 9.782Z" fill="white"/>
<path d="M109.266 10.7723H108.583V7.31461H107.19C107.182 7.51532 107.177 7.7054 107.169 7.88965C107.16 8.07443 107.155 8.24009 107.146 8.38983C107.133 8.76682 107.107 9.08275 107.072 9.33762C107.037 9.59248 106.992 9.79691 106.94 9.95036C106.887 10.1097 106.828 10.2334 106.764 10.3215C106.7 10.4102 106.628 10.4909 106.548 10.5631C106.465 10.6348 106.377 10.6889 106.283 10.7256C106.189 10.7606 106.083 10.7792 105.965 10.7792C105.925 10.7792 105.875 10.7781 105.814 10.7766C105.755 10.7734 105.713 10.7718 105.689 10.7718V10.1813H105.724C105.741 10.1813 105.758 10.1813 105.777 10.1845C105.795 10.1872 105.817 10.1877 105.841 10.1877C105.899 10.1877 105.955 10.1803 106.011 10.1638C106.067 10.1458 106.117 10.115 106.159 10.0688C106.281 9.95089 106.37 9.7454 106.425 9.45124C106.479 9.15655 106.519 8.74399 106.544 8.2162C106.554 8.01921 106.564 7.78558 106.571 7.51691C106.58 7.2477 106.587 6.99018 106.596 6.74487H109.266V10.7723Z" fill="white"/>
<path d="M113.234 9.52501C113.234 9.71987 113.194 9.89563 113.116 10.0544C113.038 10.2142 112.931 10.3416 112.796 10.4404C112.635 10.562 112.465 10.6464 112.283 10.6958C112.102 10.7473 111.868 10.7723 111.583 10.7723H110.165V6.74536H110.846V8.31492H111.601C111.905 8.31492 112.142 8.33032 112.31 8.36111C112.478 8.39297 112.647 8.46943 112.813 8.59209C112.954 8.69616 113.06 8.82784 113.129 8.98926C113.2 9.14855 113.234 9.32855 113.234 9.52501ZM112.531 9.53563C112.531 9.41457 112.509 9.30625 112.466 9.2128C112.425 9.11987 112.354 9.04554 112.258 8.98872C112.156 8.92766 112.04 8.89209 111.912 8.87988C111.781 8.86766 111.595 8.86129 111.354 8.86129H110.846V10.2312H111.34C111.58 10.2312 111.769 10.2201 111.901 10.2004C112.035 10.1802 112.15 10.142 112.245 10.0841C112.346 10.0209 112.418 9.94819 112.462 9.86271C112.507 9.77722 112.531 9.66731 112.531 9.53563Z" fill="white"/>
<path d="M116.994 10.7723H116.314V8.95899H114.476V10.7723H113.795V6.74536H114.476V8.37545H116.314V6.74536H116.994V10.7723Z" fill="white"/>
<path d="M120.897 9.52501C120.897 9.71987 120.859 9.89563 120.779 10.0544C120.701 10.2142 120.595 10.3416 120.459 10.4404C120.299 10.562 120.128 10.6464 119.947 10.6958C119.765 10.7473 119.533 10.7723 119.247 10.7723H117.89V6.74536H118.571V8.31492H119.265C119.569 8.31492 119.806 8.33032 119.974 8.36111C120.142 8.39297 120.31 8.46943 120.476 8.59209C120.616 8.69616 120.723 8.82784 120.793 8.98926C120.863 9.14855 120.897 9.32855 120.897 9.52501ZM120.194 9.53563C120.194 9.41457 120.173 9.30625 120.13 9.2128C120.088 9.11987 120.018 9.04554 119.922 8.98872C119.82 8.92766 119.705 8.89209 119.575 8.87988C119.445 8.86766 119.26 8.86129 119.018 8.86129H118.571V10.2312H119.004C119.245 10.2312 119.432 10.2201 119.565 10.2004C119.7 10.1802 119.814 10.142 119.912 10.0841C120.01 10.0209 120.083 9.94819 120.126 9.86271C120.173 9.77722 120.194 9.66731 120.194 9.53563ZM122.051 10.7723H121.37V6.74536H122.051V10.7723Z" fill="white"/>
<path d="M126.15 10.7723H125.475V7.76909L123.568 10.7723H122.951V6.74538H123.625V9.70184L125.511 6.74538H126.15V10.7723ZM125.845 4.87476C125.845 5.08077 125.819 5.26874 125.769 5.43865C125.719 5.60856 125.645 5.75033 125.551 5.86555C125.443 5.99352 125.319 6.08803 125.182 6.15281C125.044 6.21706 124.868 6.24838 124.651 6.24838C124.453 6.24838 124.279 6.21546 124.131 6.14909C123.982 6.08378 123.856 5.98821 123.756 5.86608C123.656 5.74715 123.581 5.60219 123.529 5.4344C123.479 5.26608 123.453 5.08024 123.453 4.87582H124.042C124.042 5.20077 124.091 5.43334 124.194 5.57617C124.296 5.72007 124.448 5.79069 124.651 5.79069C124.843 5.79069 124.992 5.72007 125.099 5.58042C125.204 5.43971 125.259 5.20449 125.259 4.87582H125.845V4.87476Z" fill="white"/>
<path d="M132.544 10.7723H131.695L130.304 8.91651H129.964V10.7723H129.281V6.74536H129.964V8.4981C130.14 8.49545 130.291 8.45775 130.415 8.38713C130.539 8.31704 130.645 8.17952 130.733 7.97563C130.759 7.91616 130.789 7.84554 130.821 7.76536C130.853 7.68731 130.879 7.61669 130.899 7.55722C131.004 7.26094 131.154 7.05173 131.341 6.92855C131.53 6.80748 131.776 6.74536 132.079 6.74536H132.264V7.32943H132.107C131.916 7.32943 131.772 7.36872 131.678 7.44731C131.582 7.52483 131.501 7.66713 131.436 7.87421C131.368 8.08341 131.287 8.24642 131.197 8.36271C131.105 8.47899 131.003 8.56925 130.891 8.63085L132.544 10.7723Z" fill="white"/>
<path d="M136.229 8.76091C136.229 9.4379 136.065 9.9625 135.734 10.3305C135.406 10.699 134.969 10.8843 134.422 10.8843C133.857 10.8843 133.414 10.6947 133.092 10.3119C132.769 9.93171 132.607 9.41507 132.607 8.76144C132.607 8.0887 132.773 7.56463 133.106 7.19188C133.438 6.82073 133.877 6.6333 134.422 6.6333C134.969 6.6333 135.406 6.81967 135.734 7.19135C136.064 7.56144 136.229 8.08551 136.229 8.76091ZM135.523 8.76091C135.523 8.23896 135.428 7.85189 135.237 7.59914C135.047 7.34427 134.774 7.2179 134.422 7.2179C134.065 7.2179 133.791 7.34374 133.598 7.59914C133.405 7.85242 133.309 8.23896 133.309 8.76091C133.309 9.26534 133.405 9.64817 133.598 9.90941C133.791 10.1701 134.065 10.3002 134.422 10.3002C134.772 10.3002 135.043 10.1728 135.236 9.91631C135.427 9.66091 135.523 9.27436 135.523 8.76091Z" fill="white"/>
<path d="M140.599 10.7723H139.924V7.60872L138.951 9.66253H138.444L137.478 7.60872V10.7723H136.838V6.74536H137.662L138.73 8.98023L139.759 6.74536H140.598V10.7723H140.599Z" fill="white"/>
<path d="M144.698 10.7723H144.015V7.32943H142.18V10.7723H141.497V6.74536H144.698V10.7723Z" fill="white"/>
<path d="M148.733 10.7723H148.051V7.31461H146.657C146.651 7.51532 146.643 7.7054 146.635 7.88965C146.629 8.07443 146.621 8.24009 146.615 8.38983C146.599 8.76682 146.575 9.08275 146.539 9.33762C146.505 9.59248 146.46 9.79691 146.406 9.95036C146.354 10.1097 146.294 10.2334 146.232 10.3215C146.166 10.4102 146.096 10.4909 146.015 10.5631C145.933 10.6348 145.845 10.6889 145.75 10.7256C145.655 10.7606 145.548 10.7792 145.431 10.7792C145.392 10.7792 145.342 10.7781 145.282 10.7766C145.223 10.7734 145.179 10.7718 145.154 10.7718V10.1813H145.192C145.209 10.1813 145.226 10.1813 145.245 10.1845C145.263 10.1872 145.283 10.1877 145.309 10.1877C145.365 10.1877 145.423 10.1803 145.479 10.1638C145.534 10.1458 145.583 10.115 145.628 10.0688C145.748 9.95089 145.835 9.7454 145.891 9.45124C145.948 9.15655 145.988 8.74399 146.012 8.2162C146.022 8.01921 146.03 7.78558 146.041 7.51691C146.048 7.2477 146.056 6.99018 146.062 6.74487H148.733V10.7723H148.733Z" fill="white"/>
<path d="M151.394 10.8652C150.747 10.8652 150.246 10.6852 149.89 10.3236C149.533 9.96202 149.355 9.44803 149.355 8.78166C149.355 8.12591 149.527 7.60343 149.874 7.21635C150.218 6.82662 150.671 6.63281 151.23 6.63281C151.482 6.63281 151.705 6.66998 151.897 6.74272C152.091 6.81387 152.262 6.92697 152.405 7.08042C152.55 7.23547 152.662 7.42237 152.74 7.64432C152.816 7.8668 152.856 8.13972 152.856 8.46149V8.82839H150.047C150.047 9.29777 150.167 9.65671 150.402 9.90361C150.638 10.1505 150.968 10.2748 151.386 10.2748C151.536 10.2748 151.683 10.2578 151.827 10.2238C151.972 10.1898 152.102 10.1473 152.217 10.0948C152.339 10.039 152.444 9.98538 152.53 9.93494C152.615 9.88131 152.684 9.83405 152.741 9.78892H152.78V10.528C152.7 10.5578 152.601 10.5971 152.482 10.6443C152.364 10.691 152.258 10.7282 152.163 10.7537C152.029 10.7898 151.909 10.8174 151.801 10.8371C151.694 10.8562 151.558 10.8652 151.394 10.8652ZM152.191 8.31069C152.187 8.1275 152.165 7.9698 152.126 7.83759C152.086 7.70485 152.03 7.59387 151.958 7.50255C151.878 7.40113 151.776 7.32573 151.652 7.2721C151.528 7.21901 151.373 7.19193 151.189 7.19193C151.009 7.19193 150.854 7.21954 150.726 7.2737C150.599 7.32839 150.484 7.40644 150.379 7.50998C150.279 7.61511 150.201 7.73193 150.147 7.86149C150.095 7.99051 150.061 8.13972 150.047 8.31069H152.191Z" fill="white"/>
<path d="M156.719 10.7723H155.869L154.479 8.91651H154.138V10.7723H153.456V6.74536H154.138V8.4981C154.314 8.49545 154.464 8.45775 154.589 8.38713C154.713 8.31704 154.819 8.17952 154.907 7.97563C154.933 7.91616 154.964 7.84554 154.996 7.76536C155.027 7.68731 155.054 7.61669 155.073 7.55722C155.18 7.26094 155.328 7.05173 155.517 6.92855C155.705 6.80748 155.951 6.74536 156.254 6.74536H156.438V7.32943H156.282C156.092 7.32943 155.947 7.36872 155.853 7.44731C155.757 7.52483 155.678 7.66713 155.611 7.87421C155.543 8.08341 155.463 8.24642 155.373 8.36271C155.28 8.47899 155.178 8.56925 155.066 8.63085L156.719 10.7723Z" fill="white"/>
<path d="M158.678 10.8626C158.399 10.8626 158.144 10.8196 157.913 10.7346C157.68 10.6491 157.481 10.519 157.313 10.3465C157.147 10.1739 157.017 9.95566 156.924 9.69283C156.834 9.4284 156.788 9.11937 156.788 8.76362C156.788 8.40999 156.834 8.10628 156.93 7.84982C157.027 7.5907 157.154 7.37513 157.313 7.20044C157.473 7.02468 157.671 6.89035 157.909 6.79371C158.149 6.6992 158.405 6.65088 158.676 6.65088C158.9 6.65088 159.115 6.68274 159.321 6.74486C159.528 6.80752 159.712 6.88026 159.874 6.9615V7.72132H159.834C159.786 7.68097 159.724 7.63424 159.649 7.58114C159.572 7.52858 159.479 7.47495 159.37 7.4192C159.276 7.37088 159.166 7.32893 159.037 7.29389C158.908 7.25725 158.784 7.23973 158.667 7.23973C158.314 7.23973 158.03 7.37088 157.815 7.6369C157.601 7.90185 157.494 8.27778 157.494 8.76309C157.494 9.23937 157.597 9.61106 157.805 9.87707C158.011 10.142 158.297 10.2748 158.667 10.2748C158.889 10.2748 159.101 10.2296 159.301 10.1383C159.501 10.0465 159.68 9.92911 159.835 9.78415H159.875V10.5445C159.807 10.5764 159.723 10.613 159.621 10.6576C159.52 10.7027 159.428 10.7351 159.346 10.7574C159.23 10.7909 159.126 10.8169 159.034 10.8344C158.943 10.8535 158.824 10.8626 158.678 10.8626Z" fill="white"/>
<path d="M34.3828 9.74975C34.4048 9.70143 34.4268 9.6547 34.4483 9.60426C35.9179 6.09559 34.3022 2.0416 30.8407 0.551162C27.3755 -0.940342 23.3761 0.698242 21.907 4.20851C21.8871 4.25842 21.8688 4.3078 21.8525 4.35399C24.1246 4.35028 26.4354 4.79948 28.6613 5.75523C30.8847 6.7147 32.8074 8.08833 34.3828 9.74975Z" fill="white"/>
<path d="M12.427 36.6567C12.8753 37.8313 13.4703 39.344 13.4703 39.344C13.7731 40.1006 14.6325 40.4718 15.3799 40.1654C15.3799 40.1654 16.8637 39.5474 18.0097 39.0599C17.0376 38.8327 16.0697 38.5146 15.1149 38.1052C14.1638 37.6948 13.2661 37.2079 12.427 36.6567Z" fill="white"/>
<path d="M13.9936 6.29102C13.2933 5.70642 12.4317 5.28111 11.4204 5.08465C4.74092 3.87297 -1.35244 11.9331 0.262297 21.4806C1.83146 18.8677 3.49543 17.8689 5.1044 17.5445C5.316 16.7093 5.59097 15.8809 5.93403 15.0664C7.58595 11.116 10.4985 8.10005 13.9936 6.29102Z" fill="white"/>
<path d="M41.1113 17.8608C40.2722 17.2618 39.3698 16.93 38.4721 16.8232C39.6128 20.6287 39.495 24.8484 37.842 28.7951C37.5 29.6133 37.1035 30.388 36.6599 31.124C37.5466 32.5225 37.9929 34.4282 37.2287 37.3878C45.1248 31.9337 46.6123 21.8914 41.1113 17.8608Z" fill="white"/>
<path d="M5.32811 27.1152C3.32213 27.6929 1.8949 30.0568 3.4295 32.7016C4.70746 34.9009 7.09054 35.6443 7.38541 39.9149C8.91949 38.4244 9.91933 36.7535 10.4148 35.1048C8.00239 32.9474 6.26143 30.1651 5.32811 27.1152Z" fill="white"/>
<path d="M20.51 39.4508C19.6851 40.9551 19.1891 42.8443 19.2001 45C22.4364 42.2475 24.6199 43.4692 27.0674 42.874C30.0088 42.1551 30.695 39.4705 29.7108 37.6089C26.9009 39.0489 23.7175 39.7099 20.51 39.4508Z" fill="white"/>
<path d="M17.3262 23.7988C18.481 23.7876 19.6553 24.008 20.7856 24.4917C21.9321 24.9813 22.9246 25.6922 23.7285 26.5545C23.7175 25.3853 23.9365 24.1922 24.4115 23.048C24.8949 21.8846 25.5983 20.8795 26.45 20.0629C25.293 20.0751 24.1193 19.8536 22.99 19.371C21.8415 18.8814 20.8495 18.1694 20.045 17.3044C20.056 18.4736 19.8376 19.6694 19.362 20.8136C18.8791 21.977 18.1752 22.9827 17.3262 23.7988Z" fill="white"/>
<path d="M23.3923 9.9446C22.6978 11.6113 23.4719 13.5398 25.117 14.2434C26.7642 14.9437 28.6639 14.1563 29.3584 12.4911C30.0492 10.8239 29.2709 8.89539 27.6284 8.19345C25.9838 7.48991 24.081 8.27734 23.3923 9.9446Z" fill="white"/>
<path d="M29.4688 25.205C28.7801 26.8722 29.5563 28.8007 31.1977 29.5027C32.8428 30.2025 34.7451 29.4188 35.4365 27.751C36.1304 26.0827 35.3527 24.1547 33.7096 23.4538C32.065 22.7519 30.1633 23.5372 29.4688 25.205Z" fill="white"/>
<path d="M34.4146 14.6481C33.9317 15.812 33.2288 16.8161 32.3777 17.6327C33.5331 17.6205 34.7073 17.8419 35.8376 18.3246C36.0895 18.4324 36.332 18.5487 36.564 18.6777C36.2037 16.9993 35.5626 15.3947 34.6764 13.9324C34.5989 14.1718 34.5141 14.4118 34.4146 14.6481Z" fill="white"/>
<path d="M14.4176 31.3714C13.7236 33.0386 14.503 34.9671 16.1465 35.6675C17.789 36.3694 19.6923 35.5836 20.3868 33.9174C21.0782 32.2475 20.3009 30.3217 18.6568 29.6171C17.0123 28.9167 15.111 29.7031 14.4176 31.3714Z" fill="white"/>
<path d="M29.068 34.6297C27.922 34.1407 26.9306 33.4308 26.1261 32.5642C26.1371 33.7366 25.9197 34.9265 25.4457 36.0729C25.3404 36.3272 25.2231 36.5736 25.0974 36.812C26.7525 36.444 28.3337 35.7968 29.7766 34.8952C29.5399 34.8177 29.3032 34.7285 29.068 34.6297Z" fill="white"/>
<path d="M14.7048 9.22994C15.8508 9.72003 16.8422 10.4305 17.6493 11.2949C17.6352 10.1252 17.8562 8.93313 18.3297 7.78728C18.4371 7.53295 18.5533 7.28711 18.679 7.05029C17.0261 7.4172 15.4417 8.06711 13.9988 8.96498C14.2355 9.04198 14.4717 9.12959 14.7048 9.22994Z" fill="white"/>
<path d="M9.35924 29.2144C9.84214 28.0478 10.5445 27.0448 11.3982 26.2255C10.2423 26.2404 9.06803 26.019 7.93829 25.5379C7.68584 25.4285 7.44335 25.3138 7.20923 25.1848C7.57271 26.8622 8.21117 28.4668 9.09579 29.9269C9.17331 29.6869 9.2613 29.4491 9.35924 29.2144Z" fill="white"/>
<path d="M14.3044 18.6558C14.9958 16.9875 14.2196 15.0606 12.5766 14.3597C10.9304 13.6562 9.02867 14.4452 8.33574 16.1119C7.64439 17.7781 8.42059 19.7066 10.0647 20.4075C11.7103 21.1094 13.6126 20.3241 14.3044 18.6558Z" fill="white"/>
<path d="M23.4802 18.1878C27.2769 19.8062 31.6503 17.9993 33.2493 14.1497C33.4693 13.6209 33.6243 13.0825 33.7186 12.5393C32.8256 11.3796 31.755 10.3389 30.5336 9.4692C30.9773 10.5582 31.0071 11.8166 30.5226 12.9885C29.5563 15.3115 26.9197 16.4021 24.6257 15.4241C22.3364 14.4471 21.259 11.7726 22.2238 9.4469C22.7135 8.26867 23.6369 7.40531 24.7247 6.9715C23.2545 6.68372 21.777 6.62531 20.3309 6.78088C20.0036 7.23805 19.7218 7.74088 19.4971 8.28513C17.9002 12.1347 19.682 16.5673 23.4802 18.1878Z" fill="white"/>
<path d="M20.2954 25.674C16.4971 24.0534 12.1248 25.8603 10.5258 29.7115C10.3074 30.2387 10.1529 30.7793 10.0549 31.3198C10.95 32.4821 12.019 33.5212 13.2441 34.3926C12.7984 33.3051 12.7654 32.0457 13.2498 30.8722C14.2172 28.5487 16.8559 27.4575 19.1478 28.4356C21.4398 29.4136 22.5161 32.0903 21.5519 34.4127C21.0616 35.5941 20.1367 36.4575 19.0483 36.8908C20.519 37.1791 21.997 37.2364 23.4421 37.0819C23.7715 36.6242 24.0512 36.1193 24.2785 35.5761C25.8754 31.726 24.0915 27.2918 20.2954 25.674Z" fill="white"/>
<path d="M30.708 30.6838C28.4181 29.7079 27.3413 27.0302 28.3045 24.7067C29.2698 22.3837 31.909 21.2925 34.2004 22.27C35.3647 22.7675 36.2153 23.7015 36.6432 24.8081C36.9297 23.3176 36.9836 21.8192 36.8343 20.3532C36.3808 20.0203 35.8848 19.7357 35.3469 19.5068C31.5502 17.889 27.1774 19.6948 25.5794 23.5454C23.9819 27.3945 25.7658 31.8286 29.562 33.4475C30.0852 33.6716 30.6142 33.8277 31.1506 33.9249C32.2965 33.0185 33.3215 31.9337 34.1784 30.6939C33.1052 31.1442 31.8629 31.1766 30.708 30.6838Z" fill="white"/>
<path d="M18.1961 20.3158C19.7935 16.4657 18.0096 12.0331 14.2135 10.4121C13.6908 10.1896 13.1591 10.0324 12.6212 9.93579C11.4789 10.8432 10.4566 11.9269 9.59709 13.1668C10.6682 12.7181 11.9105 12.6841 13.0659 13.1742C15.3579 14.1528 16.4342 16.831 15.4731 19.1546C14.5052 21.4781 11.8649 22.5687 9.57509 21.5896C8.41026 21.0937 7.56231 20.1581 7.13178 19.0526C6.84738 20.5436 6.79029 22.0425 6.94166 23.5091C7.39628 23.8383 7.89227 24.1245 8.42703 24.3533C12.2242 25.9728 16.5981 24.1643 18.1961 20.3158Z" fill="white"/>
</g>
<defs>
<clipPath id="clip0_85_542">
<rect width="160" height="45" fill="white"/>
</clipPath>
</defs>
</svg>
