<svg width="160" height="61" viewBox="0 0 160 61" fill="none" xmlns="http://www.w3.org/2000/svg">
<g clip-path="url(#clip0_85_602)">
<path fill-rule="evenodd" clip-rule="evenodd" d="M78.7708 51.7437L79.3455 51.4001C79.7498 52.1341 80.2025 52.5014 80.7272 52.5014C80.9511 52.5014 81.1705 52.4585 81.3625 52.3497C81.555 52.2403 81.7118 52.1127 81.8053 51.9257C81.9164 51.7591 81.9681 51.5639 81.9681 51.3742C81.9681 51.1532 81.8883 50.9322 81.7332 50.7144C81.5258 50.4191 81.1441 50.0535 80.5919 49.6483C80.0265 49.221 79.6827 48.9208 79.5419 48.7245C79.3087 48.4177 79.1992 48.0669 79.1992 47.7067C79.1992 47.4214 79.2608 47.158 79.4038 46.9122C79.5413 46.6741 79.7344 46.4943 79.9869 46.3541C80.2454 46.2194 80.522 46.1396 80.818 46.1396C81.1342 46.1396 81.4356 46.2194 81.7024 46.3805C81.9747 46.5273 82.27 46.8237 82.5764 47.2388L82.0264 47.6528C81.7728 47.3191 81.5704 47.0975 81.3883 46.9908C81.2002 46.8874 81.0176 46.8358 80.8037 46.8358C80.5336 46.8358 80.3141 46.9116 80.1348 47.0727C79.9698 47.2383 79.878 47.4417 79.878 47.6776C79.878 47.8288 79.9154 47.9619 79.9698 48.1043C80.0292 48.2291 80.1458 48.3792 80.3009 48.5463C80.3966 48.6382 80.6881 48.857 81.1705 49.2144C81.747 49.6477 82.1567 50.0199 82.358 50.351C82.5764 50.6853 82.6859 51.0262 82.6859 51.3561C82.6859 51.8394 82.5027 52.2589 82.1369 52.6273C81.7734 52.9716 81.324 53.1585 80.7971 53.1585C80.3933 53.1585 80.0265 53.0496 79.6953 52.8335C79.3653 52.613 79.0502 52.2545 78.7708 51.7437ZM84.0961 46.3041H85.4261C86.1873 46.3041 86.7077 46.3431 86.9717 46.4118C87.3556 46.5086 87.668 46.6911 87.9073 46.9925C88.1427 47.2795 88.273 47.6545 88.273 48.0944C88.273 48.5343 88.1482 48.8944 87.9188 49.1946C87.6862 49.4811 87.3561 49.6664 86.9337 49.7753C86.6384 49.8517 86.0729 49.8847 85.2479 49.8847H84.7672V52.9941H84.0961V46.3041ZM84.7666 46.9633V49.2243L85.8991 49.2524C86.3523 49.2524 86.6939 49.2106 86.898 49.1143C87.1163 49.044 87.2846 48.8944 87.3996 48.7163C87.52 48.5343 87.5761 48.327 87.5761 48.0944C87.5761 47.8728 87.5195 47.6655 87.3996 47.4796C87.2846 47.2965 87.1196 47.1657 86.9134 47.0777C86.7225 47.0057 86.398 46.9633 85.9393 46.9633H84.7666ZM92.3295 46.3041L95.4509 52.9941H94.7276L93.6941 50.7958H90.7894L89.7614 52.9941H89.0073L92.1628 46.3041H92.3295ZM92.2475 47.7177L91.1018 50.1464H93.4004L92.2475 47.7177Z" fill="white"/>
<g opacity="0.25">
<path opacity="0.25" fill-rule="evenodd" clip-rule="evenodd" d="M18.3214 27.9742C23.7508 32.1454 29.1542 33.6146 31.6068 34.0963C44.0287 36.4942 18.7251 -1.16737 15.1857 4.142C10.0022 11.9147 10.219 21.7548 18.3214 27.9742Z" fill="white"/>
<path opacity="0.25" d="M32.6556 34.2629V34.1485C34.1803 34.1485 34.9504 33.2781 34.9531 31.5636C34.9564 28.248 31.9263 21.691 27.2395 14.8476C22.6721 8.17184 18.2152 3.6856 16.1526 3.6856V3.56519C18.5793 3.56519 23.5213 9.19457 27.3418 14.775C30.9071 19.9887 35.0719 27.5046 35.0719 31.5636C35.0714 33.3534 34.2579 34.2629 32.6556 34.2629Z" fill="white"/>
</g>
<g opacity="0.25">
<path opacity="0.25" fill-rule="evenodd" clip-rule="evenodd" d="M28.6934 14.1652C26.9828 20.3654 27.6104 25.5758 28.062 27.8752C30.3661 39.5156 54.1729 4.22721 48.3069 3.02524C39.722 1.27341 31.2489 4.92937 28.6934 14.1652Z" fill="white"/>
<path opacity="0.25" d="M30.1822 30.2847C29.0492 30.2847 28.3165 29.4759 28.008 27.8906C27.6097 25.8787 26.8749 20.5127 28.6394 14.1466C29.6531 10.4631 31.702 7.45156 34.5577 5.4325C37.2385 3.54046 40.5547 2.54248 44.1628 2.54248C45.5346 2.54248 46.9289 2.68874 48.3172 2.97081C49.0647 3.12532 49.3876 3.80604 49.2649 4.99152C48.9679 7.94092 45.7832 14.1108 41.5167 19.9887C36.853 26.439 32.6128 30.2847 30.1822 30.2847ZM44.1628 2.65905C40.5811 2.65905 37.2831 3.64988 34.6254 5.52927C31.7927 7.53458 29.7604 10.5203 28.7478 14.1823C26.9981 20.5204 27.7297 25.8606 28.1213 27.8648C28.4227 29.3906 29.1141 30.1648 30.1817 30.1648C31.4154 30.1648 33.1832 29.1157 35.2914 27.1231C37.1912 25.3256 39.3116 22.8359 41.427 19.9227C45.6765 14.0575 48.8491 7.91013 49.1494 4.97942C49.2616 3.86487 48.9756 3.22815 48.2936 3.09288C46.9102 2.80201 45.5231 2.65905 44.1628 2.65905Z" fill="white"/>
</g>
<g opacity="0.25">
<path opacity="0.25" fill-rule="evenodd" clip-rule="evenodd" d="M21.2075 19.4395C23.4879 24.9292 26.9091 28.3669 28.5465 29.786C36.8481 36.9698 34.1293 -2.29177 29.168 0.169363C21.9154 3.76319 17.8182 11.2544 21.2075 19.4395Z" fill="white"/>
<path opacity="0.25" d="M30.4128 30.7241V30.6047C31.5337 30.6047 32.4055 29.4132 33.0034 27.067C33.5265 25.0051 33.8015 22.1222 33.8015 18.723C33.8015 10.1195 31.9743 0.117118 29.6174 0.117118V0C32.0843 0 33.9203 9.88633 33.9203 18.723C33.9203 22.1288 33.6436 25.0243 33.1173 27.1011C32.5067 29.5045 31.5975 30.7241 30.4128 30.7241Z" fill="white"/>
</g>
<g opacity="0.25">
<path opacity="0.25" fill-rule="evenodd" clip-rule="evenodd" d="M44.8562 18.1798C38.5424 20.8543 34.6009 24.8319 32.9871 26.7284C24.7713 36.3568 70.0227 32.8993 67.145 27.2056C62.9329 18.8655 54.271 14.2055 44.8562 18.1798Z" fill="white"/>
<path opacity="0.25" d="M45.2877 32.8274C37.8348 32.8274 33.0281 31.6727 32.0969 29.6559C31.7053 28.8014 31.9913 27.8051 32.9379 26.6861C34.3542 25.0294 38.3496 20.8725 44.8361 18.1255C47.1033 17.1687 49.4014 16.6843 51.6603 16.6843C58.0737 16.6843 63.8814 20.6059 67.197 27.1771C67.3955 27.5741 67.3807 27.9827 67.1337 28.3758C65.5199 30.9909 54.3269 32.8274 45.2877 32.8274ZM51.6603 16.7959C49.419 16.7959 47.1369 17.2826 44.8779 18.2344C38.4244 20.9671 34.4433 25.1135 33.0287 26.7664C32.1118 27.8441 31.8346 28.7998 32.2025 29.6031C33.1128 31.5776 37.8794 32.6971 45.2882 32.6971C49.8925 32.6971 54.9126 32.2517 59.061 31.4511C63.4777 30.6049 66.3147 29.4904 67.0386 28.3109C67.2564 27.9557 67.2762 27.5934 67.0919 27.2305C63.7967 20.701 58.028 16.7959 51.6603 16.7959Z" fill="white"/>
</g>
<g opacity="0.25">
<path opacity="0.25" fill-rule="evenodd" clip-rule="evenodd" d="M45.111 21.2781C38.7515 22.2282 34.2418 24.9291 32.3321 26.2812C22.6263 33.1219 64.5594 40.4965 63.2751 34.6488C61.3847 26.0937 54.5934 19.843 45.111 21.2781Z" fill="white"/>
<path opacity="0.25" d="M57.4037 36.8269C48.3524 36.8269 32.2294 33.1572 30.9011 28.9711C30.6002 28.0155 31.0683 27.1011 32.2965 26.2367C33.9697 25.0518 38.5685 22.2025 45.0995 21.2116C46.0021 21.0824 46.9009 21.0093 47.7705 21.0093C55.4005 21.0093 61.4986 26.3571 63.3286 34.6374C63.41 34.9931 63.3368 35.3093 63.1179 35.5836C62.289 36.6069 59.5532 36.8269 57.4037 36.8269ZM47.771 21.128C46.9064 21.128 46.0093 21.1968 45.1188 21.3337C38.6119 22.3097 34.0313 25.1541 32.3642 26.3269C31.1838 27.166 30.7328 28.0358 31.0155 28.9343C31.5974 30.7713 35.358 32.7481 41.3274 34.3553C46.6248 35.7799 52.9358 36.7136 57.4042 36.7136C60.4475 36.7136 62.3919 36.2985 63.0233 35.5072C63.2186 35.2697 63.2829 34.9799 63.2175 34.6621C61.3969 26.4391 55.3383 21.128 47.771 21.128Z" fill="white"/>
</g>
<g opacity="0.25">
<path opacity="0.25" fill-rule="evenodd" clip-rule="evenodd" d="M37.2448 16.5921C33.1597 20.9046 31.4046 25.431 30.7842 27.5051C27.6001 38.0094 62.3509 19.5443 58.0909 16.0154C51.8486 10.8451 43.3375 10.1616 37.2448 16.5921Z" fill="white"/>
<path opacity="0.25" d="M33.2772 30.757C32.1024 30.757 31.2872 30.4645 30.861 29.8915C30.4523 29.3411 30.405 28.5323 30.7235 27.4859C31.2757 25.6742 33 20.9845 37.2006 16.5483C40.086 13.5043 43.6689 11.8938 47.5538 11.8938C51.2021 11.8938 54.9522 13.3427 58.1303 15.9638C58.5191 16.2888 58.6149 16.738 58.4102 17.3049C57.7238 19.1969 53.5639 22.4416 47.8095 25.5642C43.1822 28.0732 36.9327 30.757 33.2772 30.757ZM47.5538 12.0076C43.7063 12.0076 40.1504 13.6055 37.2908 16.6242C33.1073 21.0488 31.3857 25.7171 30.8368 27.5206C30.5304 28.5323 30.57 29.3027 30.9528 29.8261C31.3604 30.3617 32.1387 30.6316 33.2778 30.6316C35.6605 30.6316 40.7109 29.2741 47.7479 25.463C53.4798 22.3525 57.6248 19.1359 58.2931 17.2653C58.4806 16.7468 58.402 16.3421 58.0511 16.0573C54.8994 13.4471 51.1724 12.0076 47.5538 12.0076Z" fill="white"/>
</g>
<g opacity="0.25">
<path opacity="0.25" fill-rule="evenodd" clip-rule="evenodd" d="M44.7252 39.9131C42.8689 33.3038 39.424 28.8984 37.7426 27.0526C29.2397 17.6859 26.9384 63.0024 32.959 60.874C41.7589 57.7497 47.4825 49.7461 44.7252 39.9131Z" fill="white"/>
<path opacity="0.25" d="M32.5518 60.9999C31.565 60.9999 30.7917 59.7347 30.256 57.2136C29.7736 54.9818 29.5222 51.9103 29.5222 48.3418C29.5222 43.0731 30.0909 37.4294 31.0469 33.2649C32.4698 27.0235 34.2618 25.717 35.5115 25.717V25.8369C31.8879 25.8369 29.6388 37.5163 29.6388 48.3423C29.6388 55.9688 30.7856 60.8823 32.5512 60.8872V60.9999H32.5518Z" fill="white"/>
</g>
<g opacity="0.25">
<path opacity="0.25" fill-rule="evenodd" clip-rule="evenodd" d="M41.6219 39.774C41.4729 33.3424 39.3646 28.5334 38.2662 26.4637C32.7098 15.9737 20.0922 56.6297 26.055 56.0859C34.7845 55.2859 41.8436 49.3398 41.6219 39.774Z" fill="white"/>
<path opacity="0.25" d="M25.9366 56.1547C24.9537 56.1547 24.4307 54.9818 24.4307 52.7819C24.4307 48.8928 26.0868 41.8706 28.4514 35.7095C29.7313 32.3967 33.0287 24.6746 36.1243 24.6746V24.7917C34.0314 24.7917 31.2032 28.8908 28.5614 35.7601C26.2029 41.897 24.5506 48.8928 24.5506 52.7819C24.5506 54.2637 24.7904 56.0288 25.9366 56.0288V56.1547Z" fill="white"/>
</g>
<g opacity="0.25">
<path opacity="0.25" fill-rule="evenodd" clip-rule="evenodd" d="M47.2674 32.5649C43.5041 27.9638 39.2287 25.6571 37.259 24.768C27.2359 20.2867 41.1598 57.0894 45.2042 53.302C51.1148 47.7661 52.8721 39.4188 47.2674 32.5649Z" fill="white"/>
<path opacity="0.25" d="M44.5412 53.6364C43.2855 53.6364 40.8505 51.0427 37.7781 43.7693C35.2611 37.8127 33.6353 31.6401 33.6353 28.0457C33.6353 26.8784 33.8014 25.9755 34.1259 25.357C34.4828 24.6746 35.0285 24.3298 35.7551 24.3298V24.4475C35.0791 24.4475 34.5654 24.7791 34.2359 25.4097C33.918 26.0168 33.759 26.9004 33.759 28.0452C33.759 35.8899 41.2152 53.5204 44.5418 53.5215V53.6364H44.5412Z" fill="white"/>
</g>
<g opacity="0.25">
<path opacity="0.25" fill-rule="evenodd" clip-rule="evenodd" d="M24.026 41.1885C29.6215 37.2379 32.6169 32.5097 33.7956 30.3042C39.7546 19.1444 -3.70531 32.2001 0.325846 37.1581C6.2194 44.3997 15.6848 47.0978 24.026 41.1885Z" fill="white"/>
<path opacity="0.25" d="M14.3711 44.4699C9.18432 44.4699 4.04651 41.8235 0.274413 37.1965C-0.0462535 36.7951 -0.0864056 36.3271 0.156707 35.8202C1.9718 32.0015 19.8351 25.8596 29.1146 25.8596C31.8312 25.8596 33.5225 26.3825 34.1457 27.4272C34.5868 28.158 34.4829 29.1406 33.846 30.331C32.8207 32.256 29.7994 37.1794 24.056 41.2351C21.0226 43.3812 17.7642 44.4699 14.3711 44.4699ZM29.1146 25.9751C19.8653 25.9751 2.06861 32.0751 0.262863 35.8757C0.0423011 36.3315 0.0747528 36.7544 0.370668 37.1233C4.11746 41.7162 9.21733 44.361 14.3716 44.361C17.7439 44.361 20.9753 43.274 23.9911 41.1422C29.7125 37.0942 32.7173 32.1972 33.7365 30.276C34.363 29.1197 34.4609 28.1805 34.0451 27.4916C33.4422 26.4859 31.7839 25.9751 29.1146 25.9751Z" fill="white"/>
</g>
<g opacity="0.25">
<path opacity="0.25" fill-rule="evenodd" clip-rule="evenodd" d="M23.1172 38.23C29.1152 35.9283 32.9451 32.3323 34.5275 30.6008C42.5354 21.8389 0.000583649 23.6182 2.51036 29.0502C6.19005 36.9983 14.1644 41.6473 23.1172 38.23Z" fill="white"/>
<path opacity="0.25" d="M17.2026 39.4176C14.0862 39.4176 11.0731 38.4273 8.47258 36.5485C5.9683 34.7576 3.88645 32.1684 2.45692 29.0738C2.28476 28.6971 2.31116 28.3293 2.54218 27.9713C3.36557 26.6764 6.59259 25.8484 9.15572 25.3903C12.4878 24.7866 16.7406 24.4424 20.8026 24.4424C29.0277 24.4424 34.4999 25.7241 35.4432 27.8526C35.8052 28.6784 35.5087 29.6121 34.5681 30.6348C33.1876 32.1453 29.3005 35.9249 23.1336 38.2811C21.1551 39.0333 19.1569 39.4176 17.2026 39.4176ZM20.8026 24.565C12.9674 24.565 4.02725 25.8605 2.63953 28.0351C2.43437 28.359 2.40742 28.6894 2.56473 29.0259C5.53983 35.4675 11.0115 39.3038 17.2026 39.3038C19.1398 39.3038 21.1243 38.9194 23.0929 38.176C29.2384 35.8199 33.1067 32.0633 34.4829 30.5611C35.3871 29.5692 35.6704 28.6784 35.3338 27.9043C34.8619 26.821 33.1205 25.9418 30.3115 25.3595C27.7907 24.8432 24.507 24.565 20.8026 24.565Z" fill="white"/>
</g>
<g opacity="0.25">
<path opacity="0.25" fill-rule="evenodd" clip-rule="evenodd" d="M31.7996 41.1198C34.8693 36.0364 35.6107 31.2323 35.7785 29.0747C36.6382 18.1343 6.644 43.6073 11.5646 46.141C18.771 49.8525 27.2272 48.6973 31.7996 41.1198Z" fill="white"/>
<path opacity="0.25" d="M19.6059 48.2516C16.9311 48.2516 14.1457 47.5417 11.5386 46.1946C11.0177 45.9241 10.8472 45.4177 11.0287 44.6693C12.2036 39.8246 27.9976 26.3015 33.7421 26.3015C34.4302 26.3015 34.9566 26.4918 35.3103 26.8772C35.7409 27.3402 35.9148 28.0803 35.8394 29.075C35.6903 30.9648 35.0067 35.9162 31.8561 41.1492C29.0895 45.725 24.7437 48.2516 19.6059 48.2516ZM33.7421 26.4197C30.7005 26.4197 25.0297 30.2126 20.745 33.7668C15.5412 38.0766 11.6849 42.4737 11.1437 44.6924C10.9759 45.3885 11.1305 45.8465 11.5903 46.0874C14.1787 47.4263 16.9514 48.1224 19.6059 48.1224C24.6969 48.1224 29.0168 45.6255 31.7499 41.092C34.8945 35.8761 35.5759 30.95 35.7211 29.0689C35.7976 28.1017 35.6293 27.3946 35.2261 26.9613C34.8945 26.605 34.3978 26.4197 33.7421 26.4197Z" fill="white"/>
</g>
<path d="M95.6929 38.5083C94.8685 38.5083 94.1485 38.2026 93.7376 37.6764L94.6842 36.9572C94.8745 37.2107 95.3651 37.3602 95.8822 37.3129C96.3964 37.2657 96.7947 37.0496 96.9591 36.7373C97.2077 36.2743 97.2204 35.725 97.0163 35.3087C96.8227 34.8969 96.43 34.6374 95.8992 34.5384C94.5868 34.3168 93.0193 34.9744 91.763 35.4885L91.4434 35.6348C91.1019 35.764 90.768 35.9169 90.4253 36.0538C89.1724 36.5921 87.8638 37.1397 86.5256 37.5659C84.0334 38.3511 82.0407 38.3577 80.5897 37.5818C79.5161 37.0116 78.7708 36.0252 78.3835 34.6495L79.5309 34.3245C79.8235 35.394 80.3559 36.1104 81.1441 36.536C82.2854 37.1397 84.029 37.104 86.1763 36.4255C87.4585 36.0252 88.7318 35.4885 89.96 34.9535C90.306 34.8161 90.6464 34.6764 90.9952 34.5356L91.3059 34.4031C92.7013 33.8164 94.4504 33.0802 96.0983 33.3771C97.0125 33.5305 97.7171 34.0364 98.0845 34.7721C98.4541 35.5419 98.4376 36.4788 98.008 37.2888C97.6642 37.9689 96.8953 38.4126 95.9894 38.5001C95.8822 38.5034 95.787 38.5083 95.6929 38.5083Z" fill="white"/>
<path d="M116.296 38.903C115.473 38.903 114.747 38.5901 114.335 38.0765L115.272 37.3463C115.473 37.5987 115.97 37.7477 116.481 37.7076C116.986 37.6526 117.393 37.4508 117.562 37.1275C117.803 36.6618 117.827 36.1119 117.619 35.6973C117.42 35.2833 117.031 35.0298 116.49 34.9413C115.189 34.7005 113.615 35.3625 112.368 35.8876L112.042 36.025C111.702 36.1675 111.354 36.3088 111.016 36.4462C109.754 36.9768 108.462 37.5272 107.131 37.9556C104.627 38.7386 102.623 38.7534 101.181 37.9693C100.103 37.3991 99.3693 36.4132 98.9739 35.0458L100.111 34.7197C100.421 35.7798 100.952 36.4974 101.742 36.9285C102.884 37.5437 104.622 37.5075 106.767 36.8273C108.043 36.4138 109.323 35.8766 110.554 35.3608C110.892 35.2162 111.24 35.0672 111.577 34.9193L111.902 34.7901C113.305 34.2061 115.047 33.471 116.699 33.7674C117.616 33.9263 118.323 34.4272 118.689 35.1722C119.06 35.9382 119.039 36.8729 118.615 37.6774C118.251 38.3515 117.503 38.8112 116.582 38.8914C116.485 38.903 116.391 38.903 116.296 38.903Z" fill="white"/>
<path d="M136.857 38.6298C136.045 38.6298 135.316 38.3158 134.914 37.8045L135.849 37.0699C136.046 37.3244 136.541 37.474 137.043 37.4295C137.56 37.3816 137.962 37.1771 138.128 36.8527C138.366 36.3875 138.392 35.836 138.183 35.4165C137.983 35.009 137.595 34.7577 137.063 34.6615C135.752 34.4267 134.185 35.0882 132.935 35.6144L132.612 35.7486C132.274 35.8877 131.932 36.0361 131.589 36.1703C130.339 36.702 129.033 37.2535 127.703 37.6769C125.214 38.467 123.207 38.4791 121.755 37.6972C120.675 37.1281 119.939 36.1379 119.552 34.7726L120.694 34.4416C120.994 35.5044 121.53 36.2253 122.308 36.6498C123.457 37.2662 125.196 37.2332 127.344 36.5497C128.63 36.1379 129.9 35.6023 131.128 35.0876C131.473 34.9419 131.809 34.7902 132.158 34.65L132.472 34.5152C133.87 33.9313 135.612 33.1967 137.266 33.4909C138.18 33.6525 138.889 34.1545 139.25 34.8985C139.631 35.6617 139.604 36.5992 139.179 37.4003C138.83 38.0777 138.065 38.5336 137.154 38.6138C137.053 38.6298 136.957 38.6298 136.857 38.6298Z" fill="white"/>
<path d="M157.347 39.0131C156.533 39.0131 155.803 38.72 155.394 38.1872L156.33 37.4669C156.536 37.7248 157.027 37.8743 157.528 37.8199C158.043 37.7836 158.449 37.5681 158.618 37.253C158.85 36.7774 158.87 36.2418 158.67 35.8212C158.471 35.4137 158.082 35.1416 157.548 35.0453C156.243 34.8282 154.678 35.4759 153.418 36.0015L153.103 36.1373C152.755 36.2759 152.418 36.4249 152.079 36.5706C150.823 37.104 149.527 37.6489 148.187 38.0734C145.695 38.863 143.697 38.8652 142.247 38.0954C141.172 37.5186 140.428 36.536 140.041 35.1592L141.181 34.8287C141.482 35.896 142.007 36.6267 142.804 37.0463C143.937 37.6533 145.68 37.6203 147.827 36.9379C149.112 36.536 150.382 35.9933 151.62 35.4764C151.961 35.3247 152.3 35.1812 152.643 35.0459L152.957 34.9095C154.356 34.3245 156.095 33.5987 157.749 33.8879C158.67 34.0408 159.366 34.5389 159.733 35.2845C160.114 36.0543 160.08 36.9907 159.668 37.8001C159.312 38.4797 158.557 38.9207 157.638 39.0114C157.538 39.0131 157.438 39.0131 157.347 39.0131Z" fill="white"/>
<path d="M78.7844 18.8105H79.9697L83.5944 23.7647L87.0662 18.8105H88.1866V28.467H87.0123V20.6602L83.595 25.4632H83.4245L79.9565 20.7053V28.467H78.785V18.8105H78.7844Z" fill="white"/>
<path d="M99.3858 18.6731C102.182 18.6731 104.294 20.7053 104.294 23.646C104.294 26.5107 102.183 28.604 99.3858 28.604C96.5762 28.604 94.4619 26.5756 94.4619 23.646C94.4619 20.8472 96.508 18.6731 99.3858 18.6731ZM99.3858 27.5043C101.591 27.5043 103.065 25.8228 103.065 23.646C103.065 21.3949 101.455 19.7788 99.3858 19.7788C97.2808 19.7788 95.6973 21.3949 95.6973 23.646C95.6973 25.8305 97.3111 27.5043 99.3858 27.5043Z" fill="white"/>
<path d="M110.574 28.4669V18.8104C111.112 18.8104 112.492 18.7834 113.1 18.7834C115.859 18.7834 116.675 20.2741 116.675 21.7807C116.675 23.3516 115.564 24.8093 113.201 24.8093C112.812 24.8093 112.232 24.8016 111.754 24.757V28.4669H110.574ZM111.754 19.9156V23.6458C112.218 23.6837 112.671 23.709 113.155 23.709C114.577 23.709 115.432 22.9821 115.432 21.7653C115.432 20.626 114.746 19.8914 113.211 19.8914C112.825 19.8914 112.206 19.9073 111.754 19.9156Z" fill="white"/>
<path d="M122.952 18.8105H128.392V19.9157H124.125V23.0362H127.984V24.1403H124.125V27.3673H128.537V28.467H122.952V18.8105Z" fill="white"/>
<path d="M139.177 18.6731C141.978 18.6731 144.096 20.7053 144.096 23.646C144.096 26.5107 141.978 28.604 139.177 28.604C136.381 28.604 134.256 26.5756 134.256 23.646C134.256 20.8472 136.309 18.6731 139.177 18.6731ZM139.177 27.5043C141.379 27.5043 142.86 25.8228 142.86 23.646C142.86 21.3949 141.244 19.7788 139.177 19.7788C137.079 19.7788 135.496 21.3949 135.496 23.646C135.496 25.8305 137.102 27.5043 139.177 27.5043Z" fill="white"/>
<path d="M156.853 24.0963H151.538V28.467H150.37V18.8105H151.538V22.9922H156.853V18.8105H158.021V28.467H156.853V24.0963Z" fill="white"/>
</g>
<defs>
<clipPath id="clip0_85_602">
<rect width="160" height="61" fill="white"/>
</clipPath>
</defs>
</svg>
