<svg width="160" height="89" viewBox="0 0 160 89" fill="none" xmlns="http://www.w3.org/2000/svg">
<g clip-path="url(#clip0_85_658)">
<path d="M79.9996 88.7127C79.5553 88.7127 79.1116 88.6223 78.696 88.4406C51.6681 76.6234 10.7649 58.7794 8.85612 58.06C5.9079 57.0161 0.287109 52.7829 0.287109 44.2935C0.287109 35.3453 8.33711 31.7798 8.67952 31.6319L78.6795 0.567121C79.1001 0.380447 79.5502 0.287109 80.0003 0.287109C80.4504 0.287109 80.9005 0.380447 81.3212 0.567121L151.355 31.647C151.664 31.7798 159.714 35.3446 159.714 44.2935C159.714 52.7829 154.093 57.0161 151.121 58.0686C149.236 58.7802 108.333 76.6227 81.3047 88.4406C80.8883 88.6223 80.444 88.7127 79.9996 88.7127Z" fill="white"/>
<path d="M79.9996 88.7127C79.5553 88.7127 79.1116 88.6223 78.696 88.4406C51.6681 76.6234 10.7649 58.7794 8.85612 58.06C5.90789 57.0161 0.287109 52.7829 0.287109 44.2935C0.287109 35.3453 8.33711 31.7798 8.67952 31.6319L78.6795 0.567121C79.1001 0.380447 79.5502 0.287109 80.0003 0.287109C80.4504 0.287109 80.9005 0.380447 81.3212 0.567121L151.355 31.647C151.664 31.7798 159.714 35.3446 159.714 44.2935C159.714 52.7829 154.093 57.0161 151.121 58.0686C149.236 58.7802 108.333 76.6227 81.3047 88.4406C80.8883 88.6223 80.444 88.7127 79.9996 88.7127Z" stroke="white" stroke-width="0.8004" stroke-miterlimit="10"/>
<path d="M150.033 34.6238L79.9995 3.54395L9.96583 34.6238C9.96583 34.6238 3.54248 37.3866 3.54248 44.2936C3.54248 51.1998 8.01398 54.308 9.96583 54.9986C11.9184 55.6886 79.9995 85.4568 79.9995 85.4568C79.9995 85.4568 148.081 55.6893 150.033 54.9986C151.985 54.308 156.457 51.1991 156.457 44.2936C156.457 37.3866 150.033 34.6238 150.033 34.6238Z" fill="white"/>
<path d="M134.234 36.8511L80.0002 12.7837L25.7665 36.8511C25.7665 36.8511 20.791 38.9921 20.791 44.3396C20.791 49.6885 24.2532 52.0952 25.7665 52.6301C27.2768 53.1657 80.0002 76.2179 80.0002 76.2179C80.0002 76.2179 132.721 53.1657 134.234 52.6301C135.746 52.0952 139.209 49.6885 139.209 44.3396C139.209 38.9921 134.234 36.8511 134.234 36.8511Z" fill="white"/>
<path d="M79.999 3.12243C80.5774 3.12243 81.0464 2.60746 81.0464 1.97222C81.0464 1.33698 80.5774 0.822021 79.999 0.822021C79.4206 0.822021 78.9517 1.33698 78.9517 1.97222C78.9517 2.60746 79.4206 3.12243 79.999 3.12243Z" fill="#00100F"/>
<path d="M2.90013 40.7897C3.47856 40.7897 3.94748 40.2754 3.94748 39.641C3.94748 39.0065 3.47856 38.4922 2.90013 38.4922C2.3217 38.4922 1.85278 39.0065 1.85278 39.641C1.85278 40.2754 2.3217 40.7897 2.90013 40.7897Z" fill="#00100F"/>
<path d="M1.9045 45.6498C2.48372 45.6498 2.95328 45.1348 2.95328 44.4996C2.95328 43.8643 2.48372 43.3494 1.9045 43.3494C1.32527 43.3494 0.855713 43.8643 0.855713 44.4996C0.855713 45.1348 1.32527 45.6498 1.9045 45.6498Z" fill="#00100F"/>
<path d="M2.95261 50.7926C3.53144 50.7926 4.00067 50.278 4.00067 49.6431C4.00067 49.0083 3.53144 48.4937 2.95261 48.4937C2.37378 48.4937 1.90454 49.0083 1.90454 49.6431C1.90454 50.278 2.37378 50.7926 2.95261 50.7926Z" fill="#00100F"/>
<path d="M69.3806 7.64294C69.9594 7.64294 70.4286 7.12797 70.4286 6.49273C70.4286 5.85749 69.9594 5.34253 69.3806 5.34253C68.8018 5.34253 68.3325 5.85749 68.3325 6.49273C68.3325 7.12797 68.8018 7.64294 69.3806 7.64294Z" fill="#00100F"/>
<path d="M74.7666 5.19109C75.3454 5.19109 75.8146 4.67677 75.8146 4.04232C75.8146 3.40788 75.3454 2.89355 74.7666 2.89355C74.1877 2.89355 73.7185 3.40788 73.7185 4.04232C73.7185 4.67677 74.1877 5.19109 74.7666 5.19109Z" fill="#00100F"/>
<path d="M64.0124 10.0143C64.5916 10.0143 65.0612 9.50001 65.0612 8.86556C65.0612 8.23112 64.5916 7.7168 64.0124 7.7168C63.4332 7.7168 62.9636 8.23112 62.9636 8.86556C62.9636 9.50001 63.4332 10.0143 64.0124 10.0143Z" fill="#00100F"/>
<path d="M53.3926 14.7372C53.971 14.7372 54.4399 14.2229 54.4399 13.5885C54.4399 12.954 53.971 12.4397 53.3926 12.4397C52.8141 12.4397 52.3452 12.954 52.3452 13.5885C52.3452 14.2229 52.8141 14.7372 53.3926 14.7372Z" fill="#00100F"/>
<path d="M58.7275 12.3371C59.3063 12.3371 59.7756 11.8228 59.7756 11.1883C59.7756 10.5539 59.3063 10.0396 58.7275 10.0396C58.1487 10.0396 57.6794 10.5539 57.6794 11.1883C57.6794 11.8228 58.1487 12.3371 58.7275 12.3371Z" fill="#00100F"/>
<path d="M48.3444 16.8336C48.9233 16.8336 49.3925 16.319 49.3925 15.6842C49.3925 15.0493 48.9233 14.5347 48.3444 14.5347C47.7656 14.5347 47.2964 15.0493 47.2964 15.6842C47.2964 16.319 47.7656 16.8336 48.3444 16.8336Z" fill="#00100F"/>
<path d="M37.7268 21.6572C38.3052 21.6572 38.7741 21.1428 38.7741 20.5084C38.7741 19.8739 38.3052 19.3596 37.7268 19.3596C37.1484 19.3596 36.6794 19.8739 36.6794 20.5084C36.6794 21.1428 37.1484 21.6572 37.7268 21.6572Z" fill="#00100F"/>
<path d="M43.112 19.2575C43.6905 19.2575 44.1594 18.7428 44.1594 18.108C44.1594 17.4731 43.6905 16.9585 43.112 16.9585C42.5336 16.9585 42.0647 17.4731 42.0647 18.108C42.0647 18.7428 42.5336 19.2575 43.112 19.2575Z" fill="#00100F"/>
<path d="M32.3061 24.1312C32.8846 24.1312 33.3535 23.6166 33.3535 22.9818C33.3535 22.3469 32.8846 21.8323 32.3061 21.8323C31.7277 21.8323 31.2588 22.3469 31.2588 22.9818C31.2588 23.6166 31.7277 24.1312 32.3061 24.1312Z" fill="#00100F"/>
<path d="M21.7373 28.7521C22.3161 28.7521 22.7853 28.2375 22.7853 27.6026C22.7853 26.9678 22.3161 26.4531 21.7373 26.4531C21.1584 26.4531 20.6892 26.9678 20.6892 27.6026C20.6892 28.2375 21.1584 28.7521 21.7373 28.7521Z" fill="#00100F"/>
<path d="M27.0732 26.3527C27.6517 26.3527 28.1206 25.838 28.1206 25.2032C28.1206 24.5684 27.6517 24.0537 27.0732 24.0537C26.4948 24.0537 26.0259 24.5684 26.0259 25.2032C26.0259 25.838 26.4948 26.3527 27.0732 26.3527Z" fill="#00100F"/>
<path d="M16.7072 31.0512C17.2861 31.0512 17.7553 30.5365 17.7553 29.9017C17.7553 29.2668 17.2861 28.7522 16.7072 28.7522C16.1284 28.7522 15.6592 29.2668 15.6592 29.9017C15.6592 30.5365 16.1284 31.0512 16.7072 31.0512Z" fill="#00100F"/>
<path d="M6.18869 36.3188C6.76752 36.3188 7.23676 35.8045 7.23676 35.17C7.23676 34.5356 6.76752 34.0212 6.18869 34.0212C5.60986 34.0212 5.14062 34.5356 5.14062 35.17C5.14062 35.8045 5.60986 36.3188 6.18869 36.3188Z" fill="#00100F"/>
<path d="M11.4734 33.2726C12.0522 33.2726 12.5214 32.758 12.5214 32.1231C12.5214 31.4883 12.0522 30.9736 11.4734 30.9736C10.8945 30.9736 10.4253 31.4883 10.4253 32.1231C10.4253 32.758 10.8945 33.2726 11.4734 33.2726Z" fill="#00100F"/>
<path d="M80.9408 87.0126C80.938 86.3779 80.4685 85.8638 79.8906 85.8652C79.3106 85.8667 78.8418 86.3829 78.8433 87.0169C78.8461 87.653 79.317 88.1656 79.8956 88.1642C80.4742 88.1628 80.9415 87.6473 80.9408 87.0126Z" fill="#00100F"/>
<path d="M69.2605 83.6732C69.8393 83.6732 70.3085 83.1586 70.3085 82.5238C70.3085 81.8889 69.8393 81.3743 69.2605 81.3743C68.6816 81.3743 68.2124 81.8889 68.2124 82.5238C68.2124 83.1586 68.6816 83.6732 69.2605 83.6732Z" fill="#00100F"/>
<path d="M75.7026 84.9562C75.6997 84.3215 75.2295 83.8081 74.6502 83.8096C74.0716 83.811 73.6036 84.3265 73.6065 84.9619C73.6065 85.5966 74.0774 86.11 74.6567 86.1078C75.2353 86.1071 75.7033 85.5909 75.7026 84.9562Z" fill="#00100F"/>
<path d="M63.8867 81.3146C64.4655 81.3146 64.9348 80.8 64.9348 80.1651C64.9348 79.5303 64.4655 79.0156 63.8867 79.0156C63.3079 79.0156 62.8386 79.5303 62.8386 80.1651C62.8386 80.8 63.3079 81.3146 63.8867 81.3146Z" fill="#00100F"/>
<path d="M53.2546 76.6205C53.8334 76.6205 54.3027 76.1059 54.3027 75.471C54.3027 74.8362 53.8334 74.3215 53.2546 74.3215C52.6758 74.3215 52.2065 74.8362 52.2065 75.471C52.2065 76.1059 52.6758 76.6205 53.2546 76.6205Z" fill="#00100F"/>
<path d="M58.5947 79.0065C59.1731 79.0065 59.6421 78.4915 59.6421 77.8563C59.6421 77.221 59.1731 76.7061 58.5947 76.7061C58.0163 76.7061 57.5474 77.221 57.5474 77.8563C57.5474 78.4915 58.0163 79.0065 58.5947 79.0065Z" fill="#00100F"/>
<path d="M49.2482 73.3854C49.2475 72.75 48.7759 72.2366 48.198 72.238C47.6187 72.2395 47.1507 72.7557 47.1521 73.3904C47.155 74.0251 47.6245 74.5392 48.2023 74.537C48.7845 74.537 49.2504 74.0208 49.2482 73.3854Z" fill="#00100F"/>
<path d="M37.5703 69.7416C38.1491 69.7416 38.6183 69.2273 38.6183 68.5929C38.6183 67.9584 38.1491 67.4441 37.5703 67.4441C36.9915 67.4441 36.5222 67.9584 36.5222 68.5929C36.5222 69.2273 36.9915 69.7416 37.5703 69.7416Z" fill="#00100F"/>
<path d="M42.9621 72.1269C43.5406 72.1269 44.0095 71.6126 44.0095 70.9781C44.0095 70.3437 43.5406 69.8293 42.9621 69.8293C42.3837 69.8293 41.9148 70.3437 41.9148 70.9781C41.9148 71.6126 42.3837 72.1269 42.9621 72.1269Z" fill="#00100F"/>
<path d="M33.1892 66.1308C33.1892 65.4968 32.7197 64.982 32.1389 64.9849C31.5611 64.9863 31.0938 65.5025 31.0938 66.1365C31.0973 66.7712 31.5668 67.2846 32.1447 67.2831C32.7247 67.2817 33.192 66.7655 33.1892 66.1308Z" fill="#00100F"/>
<path d="M21.5622 62.6903C22.1411 62.6903 22.6103 62.1757 22.6103 61.5408C22.6103 60.906 22.1411 60.3914 21.5622 60.3914C20.9834 60.3914 20.5142 60.906 20.5142 61.5408C20.5142 62.1757 20.9834 62.6903 21.5622 62.6903Z" fill="#00100F"/>
<path d="M26.9038 65.0746C27.4826 65.0746 27.9518 64.5603 27.9518 63.9259C27.9518 63.2914 27.4826 62.7771 26.9038 62.7771C26.3249 62.7771 25.8557 63.2914 25.8557 63.9259C25.8557 64.5603 26.3249 65.0746 26.9038 65.0746Z" fill="#00100F"/>
<path d="M16.5258 60.4042C17.1047 60.4042 17.5739 59.8899 17.5739 59.2555C17.5739 58.621 17.1047 58.1067 16.5258 58.1067C15.947 58.1067 15.4778 58.621 15.4778 59.2555C15.4778 59.8899 15.947 60.4042 16.5258 60.4042Z" fill="#00100F"/>
<path d="M5.9941 55.1659C6.57332 55.1659 7.04288 54.6509 7.04288 54.0157C7.04288 53.3804 6.57332 52.8655 5.9941 52.8655C5.41487 52.8655 4.94531 53.3804 4.94531 54.0157C4.94531 54.6509 5.41487 55.1659 5.9941 55.1659Z" fill="#00100F"/>
<path d="M11.2861 58.1965C11.8653 58.1965 12.3349 57.6821 12.3349 57.0477C12.3349 56.4132 11.8653 55.8989 11.2861 55.8989C10.7069 55.8989 10.2373 56.4132 10.2373 57.0477C10.2373 57.6821 10.7069 58.1965 11.2861 58.1965Z" fill="#00100F"/>
<path d="M157.1 40.7897C157.678 40.7897 158.147 40.2754 158.147 39.641C158.147 39.0065 157.678 38.4922 157.1 38.4922C156.521 38.4922 156.052 39.0065 156.052 39.641C156.052 40.2754 156.521 40.7897 157.1 40.7897Z" fill="#00100F"/>
<path d="M158.096 45.6498C158.674 45.6498 159.144 45.1348 159.144 44.4996C159.144 43.8643 158.674 43.3494 158.096 43.3494C157.517 43.3494 157.048 43.8643 157.048 44.4996C157.048 45.1348 157.517 45.6498 158.096 45.6498Z" fill="#00100F"/>
<path d="M157.048 50.7926C157.626 50.7926 158.095 50.278 158.095 49.6431C158.095 49.0083 157.626 48.4937 157.048 48.4937C156.469 48.4937 156 49.0083 156 49.6431C156 50.278 156.469 50.7926 157.048 50.7926Z" fill="#00100F"/>
<path d="M90.6189 7.64294C91.1981 7.64294 91.6676 7.12797 91.6676 6.49273C91.6676 5.85749 91.1981 5.34253 90.6189 5.34253C90.0396 5.34253 89.5701 5.85749 89.5701 6.49273C89.5701 7.12797 90.0396 7.64294 90.6189 7.64294Z" fill="#00100F"/>
<path d="M84.1855 4.04229C84.1855 4.67699 84.6521 5.19106 85.2343 5.19106C85.8129 5.19106 86.2817 4.67699 86.2817 4.04229C86.2817 3.40688 85.8129 2.89209 85.2343 2.89209C84.6529 2.89281 84.1855 3.4076 84.1855 4.04229Z" fill="#00100F"/>
<path d="M95.9878 10.0143C96.5666 10.0143 97.0358 9.50001 97.0358 8.86556C97.0358 8.23112 96.5666 7.7168 95.9878 7.7168C95.4089 7.7168 94.9397 8.23112 94.9397 8.86556C94.9397 9.50001 95.4089 10.0143 95.9878 10.0143Z" fill="#00100F"/>
<path d="M106.606 14.7372C107.185 14.7372 107.654 14.2229 107.654 13.5885C107.654 12.954 107.185 12.4397 106.606 12.4397C106.028 12.4397 105.559 12.954 105.559 13.5885C105.559 14.2229 106.028 14.7372 106.606 14.7372Z" fill="#00100F"/>
<path d="M101.272 12.3371C101.851 12.3371 102.32 11.8228 102.32 11.1883C102.32 10.5539 101.851 10.0396 101.272 10.0396C100.694 10.0396 100.224 10.5539 100.224 11.1883C100.224 11.8228 100.694 12.3371 101.272 12.3371Z" fill="#00100F"/>
<path d="M111.655 16.8336C112.234 16.8336 112.703 16.319 112.703 15.6842C112.703 15.0493 112.234 14.5347 111.655 14.5347C111.076 14.5347 110.607 15.0493 110.607 15.6842C110.607 16.319 111.076 16.8336 111.655 16.8336Z" fill="#00100F"/>
<path d="M122.273 21.6572C122.851 21.6572 123.321 21.1428 123.321 20.5084C123.321 19.8739 122.851 19.3596 122.273 19.3596C121.694 19.3596 121.225 19.8739 121.225 20.5084C121.225 21.1428 121.694 21.6572 122.273 21.6572Z" fill="#00100F"/>
<path d="M116.888 19.2575C117.466 19.2575 117.935 18.7428 117.935 18.108C117.935 17.4731 117.466 16.9585 116.888 16.9585C116.309 16.9585 115.841 17.4731 115.841 18.108C115.841 18.7428 116.309 19.2575 116.888 19.2575Z" fill="#00100F"/>
<path d="M127.693 24.1312C128.272 24.1312 128.741 23.6166 128.741 22.9818C128.741 22.3469 128.272 21.8323 127.693 21.8323C127.114 21.8323 126.645 22.3469 126.645 22.9818C126.645 23.6166 127.114 24.1312 127.693 24.1312Z" fill="#00100F"/>
<path d="M138.262 28.7521C138.84 28.7521 139.309 28.2375 139.309 27.6026C139.309 26.9678 138.84 26.4531 138.262 26.4531C137.684 26.4531 137.215 26.9678 137.215 27.6026C137.215 28.2375 137.684 28.7521 138.262 28.7521Z" fill="#00100F"/>
<path d="M132.926 26.3527C133.505 26.3527 133.974 25.838 133.974 25.2032C133.974 24.5684 133.505 24.0537 132.926 24.0537C132.347 24.0537 131.878 24.5684 131.878 25.2032C131.878 25.838 132.347 26.3527 132.926 26.3527Z" fill="#00100F"/>
<path d="M143.293 31.0512C143.871 31.0512 144.34 30.5365 144.34 29.9017C144.34 29.2668 143.871 28.7522 143.293 28.7522C142.714 28.7522 142.245 29.2668 142.245 29.9017C142.245 30.5365 142.714 31.0512 143.293 31.0512Z" fill="#00100F"/>
<path d="M153.811 36.3188C154.389 36.3188 154.858 35.8045 154.858 35.17C154.858 34.5356 154.389 34.0212 153.811 34.0212C153.232 34.0212 152.763 34.5356 152.763 35.17C152.763 35.8045 153.232 36.3188 153.811 36.3188Z" fill="#00100F"/>
<path d="M148.526 33.2726C149.104 33.2726 149.573 32.758 149.573 32.1231C149.573 31.4883 149.104 30.9736 148.526 30.9736C147.947 30.9736 147.479 31.4883 147.479 32.1231C147.479 32.758 147.947 33.2726 148.526 33.2726Z" fill="#00100F"/>
<path d="M90.7387 83.6732C91.3176 83.6732 91.7868 83.1586 91.7868 82.5238C91.7868 81.8889 91.3176 81.3743 90.7387 81.3743C90.1599 81.3743 89.6907 81.8889 89.6907 82.5238C89.6907 83.1586 90.1599 83.6732 90.7387 83.6732Z" fill="#00100F"/>
<path d="M85.3461 86.1085C85.9254 86.1085 86.3949 85.5939 86.3949 84.9591C86.3949 84.3242 85.9254 83.8096 85.3461 83.8096C84.7669 83.8096 84.2974 84.3242 84.2974 84.9591C84.2974 85.5939 84.7669 86.1085 85.3461 86.1085Z" fill="#00100F"/>
<path d="M96.1133 81.3146C96.6917 81.3146 97.1606 80.8 97.1606 80.1651C97.1606 79.5303 96.6917 79.0156 96.1133 79.0156C95.5348 79.0156 95.0659 79.5303 95.0659 80.1651C95.0659 80.8 95.5348 81.3146 96.1133 81.3146Z" fill="#00100F"/>
<path d="M106.745 76.6205C107.323 76.6205 107.793 76.1059 107.793 75.471C107.793 74.8362 107.323 74.3215 106.745 74.3215C106.166 74.3215 105.697 74.8362 105.697 75.471C105.697 76.1059 106.166 76.6205 106.745 76.6205Z" fill="#00100F"/>
<path d="M101.405 79.0065C101.983 79.0065 102.453 78.4915 102.453 77.8563C102.453 77.221 101.983 76.7061 101.405 76.7061C100.826 76.7061 100.356 77.221 100.356 77.8563C100.356 78.4915 100.826 79.0065 101.405 79.0065Z" fill="#00100F"/>
<path d="M110.75 73.3854C110.751 72.75 111.223 72.2366 111.801 72.238C112.381 72.2395 112.85 72.7557 112.847 73.3904C112.844 74.0251 112.375 74.5392 111.796 74.537C111.215 74.537 110.747 74.0208 110.75 73.3854Z" fill="#00100F"/>
<path d="M122.43 69.7416C123.009 69.7416 123.478 69.2273 123.478 68.5929C123.478 67.9584 123.009 67.4441 122.43 67.4441C121.851 67.4441 121.382 67.9584 121.382 68.5929C121.382 69.2273 121.851 69.7416 122.43 69.7416Z" fill="#00100F"/>
<path d="M117.038 72.1269C117.617 72.1269 118.085 71.6126 118.085 70.9781C118.085 70.3437 117.617 69.8293 117.038 69.8293C116.46 69.8293 115.991 70.3437 115.991 70.9781C115.991 71.6126 116.46 72.1269 117.038 72.1269Z" fill="#00100F"/>
<path d="M127.857 67.2824C128.436 67.2824 128.905 66.7681 128.905 66.1336C128.905 65.4992 128.436 64.9849 127.857 64.9849C127.277 64.9849 126.808 65.4992 126.808 66.1336C126.808 66.7681 127.277 67.2824 127.857 67.2824Z" fill="#00100F"/>
<path d="M138.437 62.6903C139.016 62.6903 139.485 62.1757 139.485 61.5408C139.485 60.906 139.016 60.3914 138.437 60.3914C137.858 60.3914 137.389 60.906 137.389 61.5408C137.389 62.1757 137.858 62.6903 138.437 62.6903Z" fill="#00100F"/>
<path d="M133.096 65.0746C133.675 65.0746 134.144 64.5603 134.144 63.9259C134.144 63.2914 133.675 62.7771 133.096 62.7771C132.518 62.7771 132.049 63.2914 132.049 63.9259C132.049 64.5603 132.518 65.0746 133.096 65.0746Z" fill="#00100F"/>
<path d="M143.474 60.4042C144.053 60.4042 144.522 59.8899 144.522 59.2555C144.522 58.621 144.053 58.1067 143.474 58.1067C142.895 58.1067 142.426 58.621 142.426 59.2555C142.426 59.8899 142.895 60.4042 143.474 60.4042Z" fill="#00100F"/>
<path d="M154.006 55.1659C154.585 55.1659 155.055 54.6509 155.055 54.0157C155.055 53.3804 154.585 52.8655 154.006 52.8655C153.427 52.8655 152.957 53.3804 152.957 54.0157C152.957 54.6509 153.427 55.1659 154.006 55.1659Z" fill="#00100F"/>
<path d="M148.715 58.1965C149.293 58.1965 149.763 57.6821 149.763 57.0477C149.763 56.4132 149.293 55.8989 148.715 55.8989C148.136 55.8989 147.667 56.4132 147.667 57.0477C147.667 57.6821 148.136 58.1965 148.715 58.1965Z" fill="#00100F"/>
<path d="M51.251 69.8232C51.0005 69.8232 50.7693 69.6883 50.6451 69.4707L48.6962 66.0402V69.1261C48.6962 69.5109 48.3839 69.8225 47.9991 69.8225H45.3445C44.9597 69.8225 44.6475 69.5109 44.6475 69.1261V58.9171C44.6475 58.5323 44.9597 58.2207 45.3445 58.2207H47.9991C48.3839 58.2207 48.6962 58.5323 48.6962 58.9171V62.0518C49.0601 61.9987 49.3286 61.8824 49.5109 61.6993C49.9768 61.2312 49.9746 60.2361 49.9711 59.1821L49.9703 58.9164C49.9703 58.5316 50.2826 58.22 50.6674 58.22H53.35C53.7348 58.22 54.047 58.5316 54.047 58.9164V59.0873C54.0485 60.995 54.0499 62.9615 52.3127 64.4068L54.7469 68.3514C54.8144 68.4612 54.851 68.5883 54.851 68.7175V69.1261C54.851 69.5109 54.5388 69.8225 54.154 69.8225H51.251V69.8232Z" fill="white"/>
<path d="M51.251 69.8232C51.0005 69.8232 50.7693 69.6883 50.6451 69.4707L48.6962 66.0402V69.1261C48.6962 69.5109 48.3839 69.8225 47.9991 69.8225H45.3445C44.9597 69.8225 44.6475 69.5109 44.6475 69.1261V58.9171C44.6475 58.5323 44.9597 58.2207 45.3445 58.2207H47.9991C48.3839 58.2207 48.6962 58.5323 48.6962 58.9171V62.0518C49.0601 61.9987 49.3286 61.8824 49.5109 61.6993C49.9768 61.2312 49.9746 60.2361 49.9711 59.1821L49.9703 58.9164C49.9703 58.5316 50.2826 58.22 50.6674 58.22H53.35C53.7348 58.22 54.047 58.5316 54.047 58.9164V59.0873C54.0485 60.995 54.0499 62.9615 52.3127 64.4068L54.7469 68.3514C54.8144 68.4612 54.851 68.5883 54.851 68.7175V69.1261C54.851 69.5109 54.5388 69.8225 54.154 69.8225H51.251V69.8232Z" stroke="white" stroke-width="0.5545" stroke-miterlimit="10"/>
<path d="M62.5959 69.8233C62.3253 69.8233 62.0791 69.6668 61.9649 69.4212L61.5536 68.5395H58.4166L58.0074 69.4205C57.8933 69.666 57.647 69.8233 57.3757 69.8233H54.823C54.4382 69.8233 54.126 69.5117 54.126 69.1268V68.747C54.126 68.6465 54.1482 68.5467 54.1906 68.4555L58.782 58.4936C58.8954 58.2466 59.1423 58.0886 59.4144 58.0886H60.5386C60.8099 58.0886 61.0568 58.2466 61.171 58.4928L65.7796 68.4548C65.8219 68.546 65.8442 68.6465 65.8442 68.747V69.1268C65.8442 69.5117 65.5319 69.8233 65.1472 69.8233H62.5959Z" fill="white"/>
<path d="M62.5959 69.8233C62.3253 69.8233 62.0791 69.6668 61.9649 69.4212L61.5536 68.5395H58.4166L58.0074 69.4205C57.8933 69.666 57.647 69.8233 57.3757 69.8233H54.823C54.4382 69.8233 54.126 69.5117 54.126 69.1268V68.747C54.126 68.6465 54.1482 68.5467 54.1906 68.4555L58.782 58.4936C58.8954 58.2466 59.1423 58.0886 59.4144 58.0886H60.5386C60.8099 58.0886 61.0568 58.2466 61.171 58.4928L65.7796 68.4548C65.8219 68.546 65.8442 68.6465 65.8442 68.747V69.1268C65.8442 69.5117 65.5319 69.8233 65.1472 69.8233H62.5959V69.8233Z" stroke="white" stroke-width="0.5545" stroke-miterlimit="10"/>
<path d="M66.4895 69.8233C66.1047 69.8233 65.7925 69.5116 65.7925 69.1268V58.9171C65.7925 58.5323 66.1047 58.2207 66.4895 58.2207H70.9811C73.8482 58.2286 75.3442 60.4945 75.3414 62.7289C75.3378 64.9568 73.8389 67.212 70.9811 67.212H69.7967V69.1268C69.7967 69.5116 69.4844 69.8233 69.0996 69.8233H66.4895ZM70.9653 63.4713C71.2417 63.4713 71.3724 63.0046 71.3738 62.6894C71.3738 62.6822 71.3723 61.9506 70.9581 61.9463C70.75 61.9413 70.5468 61.9398 70.3429 61.9398L69.7959 61.9427V63.4713H70.9653Z" fill="white"/>
<path d="M66.4895 69.8233C66.1047 69.8233 65.7925 69.5116 65.7925 69.1268V58.9171C65.7925 58.5323 66.1047 58.2207 66.4895 58.2207H70.9811C73.8482 58.2286 75.3442 60.4945 75.3414 62.7289C75.3378 64.9568 73.8389 67.212 70.9811 67.212H69.7967V69.1268C69.7967 69.5116 69.4844 69.8233 69.0996 69.8233H66.4895ZM70.9653 63.4713C71.2417 63.4713 71.3724 63.0046 71.3738 62.6894C71.3738 62.6822 71.3723 61.9506 70.9581 61.9463C70.75 61.9413 70.5468 61.9398 70.3429 61.9398L69.7959 61.9427V63.4713H70.9653V63.4713Z" stroke="white" stroke-width="0.5545" stroke-miterlimit="10"/>
<path d="M82.4853 69.8233C82.2147 69.8233 81.9678 69.666 81.8536 69.4205L81.4437 68.5395H78.3082L77.8968 69.4212C77.7827 69.6668 77.5365 69.8233 77.2658 69.8233H74.7139C74.3291 69.8233 74.0168 69.5117 74.0168 69.1268V68.747C74.0168 68.6465 74.0391 68.5467 74.0814 68.4555L78.675 58.4936C78.7884 58.2466 79.0353 58.0886 79.3074 58.0886H80.4294C80.7008 58.0886 80.9477 58.2466 81.0618 58.4928L85.6705 68.4548C85.7128 68.546 85.7351 68.6465 85.7351 68.747V69.1268C85.7351 69.5117 85.4228 69.8233 85.038 69.8233H82.4853Z" fill="white"/>
<path d="M82.4853 69.8233C82.2147 69.8233 81.9678 69.666 81.8536 69.4205L81.4437 68.5395H78.3082L77.8968 69.4212C77.7827 69.6668 77.5365 69.8233 77.2658 69.8233H74.7139C74.3291 69.8233 74.0168 69.5117 74.0168 69.1268V68.747C74.0168 68.6465 74.0391 68.5467 74.0814 68.4555L78.675 58.4936C78.7884 58.2466 79.0353 58.0886 79.3074 58.0886H80.4294C80.7008 58.0886 80.9477 58.2466 81.0618 58.4928L85.6705 68.4548C85.7128 68.546 85.7351 68.6465 85.7351 68.747V69.1268C85.7351 69.5117 85.4228 69.8233 85.038 69.8233H82.4853V69.8233Z" stroke="white" stroke-width="0.5545" stroke-miterlimit="10"/>
<path d="M90.9878 70.0388C88.0403 70.0388 85.0554 67.9767 85.0554 64.0365C85.0554 60.1027 88.0395 58.0449 90.9878 58.0449C93.936 58.0449 96.9201 60.1027 96.9201 64.0365C96.9201 67.9767 93.9353 70.0388 90.9878 70.0388ZM90.9956 61.9766C90.0682 61.9766 89.1321 62.6134 89.1321 64.0365C89.1321 65.4746 90.0682 66.1186 90.9956 66.1186C91.9224 66.1186 92.8585 65.4746 92.8585 64.0365C92.8578 62.6134 91.9224 61.9766 90.9956 61.9766Z" fill="white"/>
<path d="M90.9878 70.0388C88.0403 70.0388 85.0554 67.9767 85.0554 64.0365C85.0554 60.1027 88.0395 58.0449 90.9878 58.0449C93.936 58.0449 96.9201 60.1027 96.9201 64.0365C96.9201 67.9767 93.9353 70.0388 90.9878 70.0388ZM90.9956 61.9766C90.0682 61.9766 89.1321 62.6134 89.1321 64.0365C89.1321 65.4746 90.0682 66.1186 90.9956 66.1186C91.9224 66.1186 92.8585 65.4746 92.8585 64.0365C92.8578 62.6134 91.9224 61.9766 90.9956 61.9766Z" stroke="white" stroke-width="0.5545" stroke-miterlimit="10"/>
<path d="M104.112 69.8232C103.862 69.8232 103.631 69.6883 103.506 69.4707L101.557 66.0402V69.1261C101.557 69.5109 101.245 69.8225 100.86 69.8225H98.2058C97.821 69.8225 97.5088 69.5109 97.5088 69.1261V58.9171C97.5088 58.5323 97.821 58.2207 98.2058 58.2207H100.86C101.245 58.2207 101.557 58.5323 101.557 58.9171V62.0518C101.921 61.9987 102.19 61.8824 102.372 61.6993C102.839 61.2305 102.836 60.2346 102.833 59.1806L102.832 58.9164C102.832 58.5316 103.145 58.22 103.529 58.22H106.213C106.598 58.22 106.91 58.5316 106.91 58.9164V59.0837C106.912 60.9928 106.913 62.9608 105.175 64.4068L107.609 68.3521C107.676 68.4619 107.713 68.589 107.713 68.7175V69.1261C107.713 69.5109 107.401 69.8225 107.016 69.8225H104.112V69.8232Z" fill="white"/>
<path d="M104.112 69.8232C103.862 69.8232 103.631 69.6883 103.506 69.4707L101.557 66.0402V69.1261C101.557 69.5109 101.245 69.8225 100.86 69.8225H98.2058C97.821 69.8225 97.5088 69.5109 97.5088 69.1261V58.9171C97.5088 58.5323 97.821 58.2207 98.2058 58.2207H100.86C101.245 58.2207 101.557 58.5323 101.557 58.9171V62.0518C101.921 61.9987 102.19 61.8824 102.372 61.6993C102.839 61.2305 102.836 60.2346 102.833 59.1806L102.832 58.9164C102.832 58.5316 103.145 58.22 103.529 58.22H106.213C106.598 58.22 106.91 58.5316 106.91 58.9164V59.0837C106.912 60.9928 106.913 62.9608 105.175 64.4068L107.609 68.3521C107.676 68.4619 107.713 68.589 107.713 68.7175V69.1261C107.713 69.5109 107.401 69.8225 107.016 69.8225H104.112V69.8232Z" stroke="white" stroke-width="0.5545" stroke-miterlimit="10"/>
<path d="M108.517 69.8233C108.132 69.8233 107.82 69.5116 107.82 69.1268V58.9171C107.82 58.5323 108.132 58.2207 108.517 58.2207H114.889C115.274 58.2207 115.586 58.5323 115.586 58.9171V61.2499C115.586 61.6347 115.274 61.9463 114.889 61.9463H111.808V61.9973H114.584C114.969 61.9973 115.281 62.3089 115.281 62.6937V65.0128C115.281 65.3976 114.969 65.7092 114.584 65.7092H111.808V66.1099H115.021C115.405 66.1099 115.718 66.4215 115.718 66.8063V69.1261C115.718 69.5109 115.405 69.8225 115.021 69.8225H108.517V69.8233Z" fill="white"/>
<path d="M108.517 69.8233C108.132 69.8233 107.82 69.5116 107.82 69.1268V58.9171C107.82 58.5323 108.132 58.2207 108.517 58.2207H114.889C115.274 58.2207 115.586 58.5323 115.586 58.9171V61.2499C115.586 61.6347 115.274 61.9463 114.889 61.9463H111.808V61.9973H114.584C114.969 61.9973 115.281 62.3089 115.281 62.6937V65.0128C115.281 65.3976 114.969 65.7092 114.584 65.7092H111.808V66.1099H115.021C115.405 66.1099 115.718 66.4215 115.718 66.8063V69.1261C115.718 69.5109 115.405 69.8225 115.021 69.8225H108.517V69.8233Z" stroke="white" stroke-width="0.5545" stroke-miterlimit="10"/>
<path d="M45.3445 69.1269V58.9172C46.2203 58.9172 47.0946 58.9172 47.9991 58.9172V62.7821H48.1886C50.7987 62.7821 50.6666 60.8271 50.6666 58.9172C51.5568 58.9172 52.4462 58.9172 53.3493 58.9172C53.3493 61.003 53.4081 62.9279 51.3809 64.2253L54.1525 68.7184V69.1269H51.2503L49.0041 65.1744C48.6545 65.2319 48.3329 65.2319 47.9991 65.2319V69.1269C47.0946 69.1269 46.2203 69.1269 45.3445 69.1269Z" fill="#00100F"/>
<path d="M61.9972 67.8432H57.9722L57.3757 69.1269H54.823V68.7471L59.4144 58.7852H60.5385L65.1471 68.7471V69.1269H62.5952L61.9972 67.8432ZM59.9707 62.9279L58.8193 65.6117H61.1523L59.9707 62.9279Z" fill="#00100F"/>
<path d="M66.4895 69.1269C66.4895 65.728 66.4895 62.3298 66.4895 58.9172C67.9633 58.9172 69.4786 58.9172 70.9811 58.9172C75.8661 58.9316 75.8661 66.5156 70.9811 66.5156H69.0996V69.1269C68.2253 69.1269 67.3495 69.1269 66.4895 69.1269ZM70.9653 61.25C70.353 61.2356 69.6976 61.25 69.0989 61.25C69.0989 62.0814 69.0989 63.3357 69.0989 64.1678H70.9653C72.3953 64.1685 72.4829 61.265 70.9653 61.25Z" fill="#00100F"/>
<path d="M81.8881 67.8432H77.8645L77.2658 69.1269H74.7139V68.7471L79.3074 58.7852H80.4294L85.038 68.7471V69.1269H82.4846L81.8881 67.8432ZM79.8616 62.9279L78.7087 65.6117H81.0432L79.8616 62.9279Z" fill="#00100F"/>
<path d="M85.7524 64.0356C85.7524 56.9757 96.223 56.9757 96.223 64.0356C96.223 71.1106 85.7524 71.1106 85.7524 64.0356ZM93.5548 64.0356C93.5548 60.3603 88.4351 60.3603 88.4351 64.0356C88.4351 67.7411 93.5548 67.7411 93.5548 64.0356Z" fill="#00100F"/>
<path d="M98.2065 69.1269V58.9172C99.0823 58.9172 99.9567 58.9172 100.861 58.9172V62.7821H101.051C103.661 62.7821 103.529 60.8271 103.529 58.9172C104.42 58.9172 105.309 58.9172 106.213 58.9172C106.213 61.003 106.271 62.9279 104.244 64.2253L107.015 68.7184V69.1269H104.112L101.866 65.1744C101.517 65.2319 101.195 65.2319 100.861 65.2319V69.1269C99.9567 69.1269 99.0816 69.1269 98.2065 69.1269Z" fill="#00100F"/>
<path d="M114.889 61.25C113.373 61.25 112.614 61.25 111.111 61.25V62.6945H114.584C114.584 63.4678 114.584 64.2403 114.584 65.0136H111.111C111.111 65.6117 111.111 66.1947 111.111 66.8071C112.614 66.8071 113.489 66.8071 115.02 66.8071C115.02 67.566 115.02 68.3536 115.02 69.1269C112.629 69.1269 110.879 69.1269 108.516 69.1269C108.516 65.7143 108.516 62.3011 108.516 58.9172C110.879 58.9172 112.497 58.9172 114.888 58.9172C114.889 59.6747 114.889 60.4616 114.889 61.25Z" fill="#00100F"/>
<path d="M20.916 53.3844C20.2592 53.3844 19.7266 52.8516 19.7266 52.1947V34.7585C19.7266 34.1016 20.2592 33.5688 20.916 33.5688H33.444C34.1008 33.5688 34.6335 34.1016 34.6335 34.7585V38.744C34.6335 39.401 34.1008 39.9337 33.444 39.9337H30.8002C34.2394 40.7989 36.0283 43.6679 36.0326 46.5083C36.0383 49.9144 33.4821 53.37 28.5892 53.3844C28.5885 53.3844 20.916 53.3844 20.916 53.3844ZM28.5619 47.0195C28.7277 47.0195 28.9531 46.9908 29.0852 46.8543C29.1656 46.7703 29.2123 46.6447 29.2123 46.5097C29.2123 46.3144 29.1276 45.9863 28.5626 45.9863H26.5648V47.0202H28.5619V47.0195Z" fill="white"/>
<path d="M20.916 53.3844C20.2592 53.3844 19.7266 52.8516 19.7266 52.1947V34.7585C19.7266 34.1016 20.2592 33.5688 20.916 33.5688H33.444C34.1008 33.5688 34.6335 34.1016 34.6335 34.7585V38.744C34.6335 39.401 34.1008 39.9337 33.444 39.9337H30.8002C34.2394 40.7989 36.0283 43.6679 36.0326 46.5083C36.0383 49.9144 33.4821 53.37 28.5892 53.3844C28.5885 53.3844 20.916 53.3844 20.916 53.3844ZM28.5619 47.0195C28.7277 47.0195 28.9531 46.9908 29.0852 46.8543C29.1656 46.7703 29.2123 46.6447 29.2123 46.5097C29.2123 46.3144 29.1276 45.9863 28.5626 45.9863H26.5648V47.0202H28.5619V47.0195Z" stroke="white" stroke-width="0.9469" stroke-miterlimit="10"/>
<path d="M46.0696 53.752C41.0353 53.752 35.9399 50.2311 35.9399 43.5015C35.9399 36.784 41.036 33.2695 46.0696 33.2695C51.1031 33.2695 56.1992 36.784 56.1992 43.5015C56.1992 50.2304 51.1031 53.752 46.0696 53.752ZM46.081 39.9841C44.4975 39.9841 42.8995 41.0718 42.8995 43.5015C42.8995 45.9577 44.4975 47.0569 46.081 47.0569C47.6646 47.0569 49.2626 45.9577 49.2626 43.5015C49.2626 41.0718 47.6646 39.9841 46.081 39.9841Z" fill="white"/>
<path d="M46.0696 53.752C41.0353 53.752 35.9399 50.2311 35.9399 43.5015C35.9399 36.784 41.036 33.2695 46.0696 33.2695C51.1031 33.2695 56.1992 36.784 56.1992 43.5015C56.1992 50.2304 51.1031 53.752 46.0696 53.752ZM46.081 39.9841C44.4975 39.9841 42.8995 41.0718 42.8995 43.5015C42.8995 45.9577 44.4975 47.0569 46.081 47.0569C47.6646 47.0569 49.2626 45.9577 49.2626 43.5015C49.2626 41.0718 47.6646 39.9841 46.081 39.9841Z" stroke="white" stroke-width="0.9469" stroke-miterlimit="10"/>
<path d="M59.4424 53.3844C58.7856 53.3844 58.253 52.8516 58.253 52.1947V51.7222C58.253 51.542 58.2946 51.3632 58.3729 51.2017L60.843 46.1263L55.2631 36.0057C55.1662 35.8298 55.1152 35.6316 55.1152 35.4313V34.7585C55.1152 34.1016 55.6479 33.5688 56.3047 33.5688H61.2852C61.7317 33.5688 62.1401 33.8194 62.3447 34.2165L64.5866 38.599L66.6073 34.2567C66.8019 33.8374 67.2225 33.5688 67.6856 33.5688H72.516C73.1728 33.5688 73.7055 34.1016 73.7055 34.7585V35.4313C73.7055 35.6137 73.6631 35.7939 73.5827 35.9576L65.3159 52.7209C65.1156 53.1273 64.7022 53.3844 64.2492 53.3844H59.4424Z" fill="white"/>
<path d="M59.4424 53.3844C58.7856 53.3844 58.253 52.8516 58.253 52.1947V51.7222C58.253 51.542 58.2946 51.3632 58.3729 51.2017L60.843 46.1263L55.2631 36.0057C55.1662 35.8298 55.1152 35.6316 55.1152 35.4313V34.7585C55.1152 34.1016 55.6479 33.5688 56.3047 33.5688H61.2852C61.7317 33.5688 62.1401 33.8194 62.3447 34.2165L64.5866 38.599L66.6073 34.2567C66.8019 33.8374 67.2225 33.5688 67.6856 33.5688H72.516C73.1728 33.5688 73.7055 34.1016 73.7055 34.7585V35.4313C73.7055 35.6137 73.6631 35.7939 73.5827 35.9576L65.3159 52.7209C65.1156 53.1273 64.7022 53.3844 64.2492 53.3844H59.4424V53.3844Z" stroke="white" stroke-width="0.9469" stroke-miterlimit="10"/>
<path d="M84.4467 53.3845C83.975 53.3845 83.5472 53.1052 83.357 52.673L79.9694 44.9554L76.6213 52.6687C76.4318 53.1031 76.004 53.3845 75.5295 53.3845H71.1714C70.5146 53.3845 69.9819 52.8518 69.9819 52.1948V51.5472C69.9819 51.3749 70.0193 51.2047 70.091 51.0489L77.9365 34.0371C78.131 33.6157 78.5524 33.3457 79.0168 33.3457H80.9342C81.3979 33.3457 81.8186 33.6149 82.0139 34.0357L89.8837 51.0475C89.9562 51.204 89.9935 51.3749 89.9935 51.5472V52.1948C89.9935 52.8518 89.4609 53.3845 88.804 53.3845H84.4467Z" fill="white"/>
<path d="M84.4467 53.3845C83.975 53.3845 83.5472 53.1052 83.357 52.673L79.9694 44.9554L76.6213 52.6687C76.4318 53.1031 76.004 53.3845 75.5295 53.3845H71.1714C70.5146 53.3845 69.9819 52.8518 69.9819 52.1948V51.5472C69.9819 51.3749 70.0193 51.2047 70.091 51.0489L77.9365 34.0371C78.131 33.6157 78.5524 33.3457 79.0168 33.3457H80.9342C81.3979 33.3457 81.8186 33.6149 82.0139 34.0357L89.8837 51.0475C89.9562 51.204 89.9935 51.3749 89.9935 51.5472V52.1948C89.9935 52.8518 89.4609 53.3845 88.804 53.3845H84.4467V53.3845Z" stroke="white" stroke-width="0.9469" stroke-miterlimit="10"/>
<path d="M91.1199 53.4095C90.4631 53.4095 89.9304 52.8767 89.9304 52.2198V34.7585C89.9304 34.1015 90.4631 33.5688 91.1199 33.5688H95.6776C96.3344 33.5688 96.867 34.1015 96.867 34.7585V40.4758L103.663 33.833C103.885 33.6155 104.184 33.4941 104.494 33.4941H106.114C106.771 33.4941 107.303 34.0269 107.303 34.6838V52.1946C107.303 52.8516 106.771 53.3843 106.114 53.3843H101.506C100.849 53.3843 100.316 52.8516 100.316 52.1946V46.4529L93.5462 53.0706C93.3237 53.2881 93.0251 53.4095 92.715 53.4095H91.1199Z" fill="white"/>
<path d="M91.1199 53.4095C90.4631 53.4095 89.9304 52.8767 89.9304 52.2198V34.7585C89.9304 34.1015 90.4631 33.5688 91.1199 33.5688H95.6776C96.3344 33.5688 96.867 34.1015 96.867 34.7585V40.4758L103.663 33.833C103.885 33.6155 104.184 33.4941 104.494 33.4941H106.114C106.771 33.4941 107.303 34.0269 107.303 34.6838V52.1946C107.303 52.8516 106.771 53.3843 106.114 53.3843H101.506C100.849 53.3843 100.316 52.8516 100.316 52.1946V46.4529L93.5462 53.0706C93.3237 53.2881 93.0251 53.4095 92.715 53.4095H91.1199Z" stroke="white" stroke-width="0.9469" stroke-miterlimit="10"/>
<path d="M120.532 53.3844C119.875 53.3844 119.342 52.8516 119.342 52.1947V46.3855H116.341V52.1947C116.341 52.8516 115.808 53.3844 115.151 53.3844H110.594C109.937 53.3844 109.404 52.8516 109.404 52.1947V34.7585C109.404 34.1016 109.937 33.5688 110.594 33.5688H115.151C115.808 33.5688 116.341 34.1016 116.341 34.7585V39.8957H119.342V34.7585C119.342 34.1016 119.875 33.5688 120.532 33.5688H125.09C125.747 33.5688 126.28 34.1016 126.28 34.7585V52.1947C126.28 52.8516 125.747 53.3844 125.09 53.3844H120.532Z" fill="white"/>
<path d="M120.532 53.3844C119.875 53.3844 119.342 52.8516 119.342 52.1947V46.3855H116.341V52.1947C116.341 52.8516 115.808 53.3844 115.151 53.3844H110.594C109.937 53.3844 109.404 52.8516 109.404 52.1947V34.7585C109.404 34.1016 109.937 33.5688 110.594 33.5688H115.151C115.808 33.5688 116.341 34.1016 116.341 34.7585V39.8957H119.342V34.7585C119.342 34.1016 119.875 33.5688 120.532 33.5688H125.09C125.747 33.5688 126.28 34.1016 126.28 34.7585V52.1947C126.28 52.8516 125.747 53.3844 125.09 53.3844H120.532V53.3844Z" stroke="white" stroke-width="0.9469" stroke-miterlimit="10"/>
<path d="M129.547 53.3844C128.89 53.3844 128.358 52.8516 128.358 52.1947V34.7585C128.358 34.1016 128.89 33.5688 129.547 33.5688H140.405C141.062 33.5688 141.595 34.1016 141.595 34.7585V38.744C141.595 39.401 141.062 39.9337 140.405 39.9337H135.268V52.1947C135.268 52.8516 134.736 53.3844 134.079 53.3844H129.547Z" fill="white"/>
<path d="M129.547 53.3844C128.89 53.3844 128.358 52.8516 128.358 52.1947V34.7585C128.358 34.1016 128.89 33.5688 129.547 33.5688H140.405C141.062 33.5688 141.595 34.1016 141.595 34.7585V38.744C141.595 39.401 141.062 39.9337 140.405 39.9337H135.268V52.1947C135.268 52.8516 134.736 53.3844 134.079 53.3844H129.547V53.3844Z" stroke="white" stroke-width="0.9469" stroke-miterlimit="10"/>
<path d="M28.5856 40.8614C36.9292 40.8614 36.9292 52.1703 28.5856 52.1947H20.916V34.7585H33.444V38.744H25.3746V40.8614H28.5856ZM25.3746 44.7959V48.2092C26.3954 48.2092 27.5152 48.2092 28.5619 48.2092C31.027 48.2092 31.0018 44.7959 28.5619 44.7959H25.3746Z" fill="#00100F"/>
<path d="M37.1294 43.5015C37.1294 31.4452 55.0097 31.4452 55.0097 43.5015C55.0097 55.5822 37.1294 55.5822 37.1294 43.5015ZM50.452 43.5015C50.452 37.2249 41.71 37.2249 41.71 43.5015C41.71 49.8283 50.452 49.8283 50.452 43.5015Z" fill="#00100F"/>
<path d="M59.4424 51.7222L62.1825 46.0926L56.3047 35.4313V34.7585H61.2852L64.5729 41.1845H64.6957L67.6855 34.7585H72.516V35.4313L64.2492 52.1947H59.4424V51.7222Z" fill="#00100F"/>
<path d="M75.5302 52.1948H71.1721V51.5472L79.0168 34.5347H80.9342L88.804 51.5465V52.1941H84.4466L79.9637 41.9816L75.5302 52.1948Z" fill="#00100F"/>
<path d="M92.7142 52.2198H91.1191V34.7585C92.6381 34.7585 94.1585 34.7585 95.6768 34.7585V43.3025L104.493 34.6838H106.113V52.1946C104.593 52.1946 103.048 52.1946 101.505 52.1946V43.6263L92.7142 52.2198Z" fill="#00100F"/>
<path d="M125.09 52.1947C123.57 52.1947 122.051 52.1947 120.532 52.1947V45.1958H115.151V52.1947C113.634 52.1947 112.088 52.1947 110.594 52.1947V34.7585C112.088 34.7585 113.633 34.7585 115.151 34.7585V41.0854H120.532V34.7585C122.051 34.7585 123.57 34.7585 125.09 34.7585V52.1947Z" fill="#00100F"/>
<path d="M134.078 52.1947C132.585 52.1947 131.066 52.1947 129.547 52.1947V34.7585C133.109 34.7585 136.844 34.7585 140.406 34.7585C140.406 36.2275 140.406 37.2499 140.406 38.744H134.079V52.1947H134.078Z" fill="#00100F"/>
<path d="M57.7691 26.4489C56.5797 26.4489 55.622 26.2048 54.9236 25.7223C54.1318 25.1781 53.7133 24.3804 53.7133 23.4176C53.7133 22.989 53.7966 22.4806 53.9674 21.8639C54.0191 21.7002 54.0751 21.53 54.1361 21.3462C54.0586 21.5135 53.9796 21.6822 53.9006 21.8538C53.5202 22.6896 53.1591 23.5066 52.8203 24.3014C52.7183 24.5412 52.5166 24.7243 52.2682 24.8026L48.2605 26.072C48.1722 26.1 48.0817 26.1136 47.9913 26.1136C47.7508 26.1136 47.5161 26.016 47.3452 25.8365C47.1098 25.5895 47.0358 25.2298 47.1543 24.9096L49.6675 18.1498C49.2647 19.0516 48.8075 19.9361 48.3078 20.7733C47.7673 21.6794 47.1449 22.574 46.4579 23.4327C45.0014 25.2973 43.3941 26.2464 41.6885 26.2464C40.8228 26.2464 39.9973 25.9822 39.2342 25.461C38.6118 25.0934 38.2701 24.2117 38.0641 22.4526C38.0605 22.4182 38.0583 22.3837 38.0583 22.3485C38.0583 21.4295 38.7152 21.1861 39.0626 21.1861C39.3584 21.1861 39.8939 21.3082 40.1976 22.1152C40.4072 22.5481 40.7489 22.9624 41.2119 23.3465C41.5995 23.6466 41.9728 23.8154 42.2693 23.8154C42.3569 23.8154 42.6225 23.8154 42.9893 23.3645C43.2456 23.0486 43.7358 22.2588 44.6152 20.2851L45.7272 17.7671C46.4802 16.0784 47.1751 14.6654 47.7924 13.5655C48.4421 12.4059 49.282 11.3268 50.2891 10.3583C51.4061 9.28274 52.6781 8.73779 54.0708 8.73779C54.9401 8.73779 55.6788 8.99339 56.2667 9.49885C56.8618 10.0108 57.187 10.6986 57.2107 11.4941C57.5667 11.0684 57.9378 10.672 58.3219 10.308C59.357 9.3251 60.4819 8.82682 61.6635 8.82682C62.2414 8.82682 62.741 8.97903 63.148 9.27843C63.6268 9.62952 63.891 10.1508 63.891 10.7445C63.891 10.8214 63.8809 10.8982 63.8616 10.9721L63.7503 11.3943C63.7395 11.4338 63.7273 11.4726 63.7108 11.5099L61.3067 17.2782L60.2134 19.8457C59.9981 20.364 59.8071 20.8372 59.6485 21.2586C59.4453 21.767 59.2874 22.1963 59.1725 22.5524C58.9206 23.335 58.8423 23.7601 58.8215 23.9812C58.8818 24.0042 58.9378 24.015 58.9902 24.015C59.3664 24.015 60.3211 23.8484 62.4768 22.7334C62.6053 22.6666 62.746 22.6336 62.8867 22.6336C63.0138 22.6336 63.1408 22.6608 63.2593 22.7147C63.5091 22.8289 63.6921 23.0521 63.7553 23.3192L63.8666 23.7866C63.9606 24.1822 63.7754 24.5922 63.4165 24.7825C62.4151 25.3138 61.4367 25.7252 60.507 26.0066C59.5465 26.301 58.6248 26.4489 57.7691 26.4489Z" fill="white"/>
<path d="M57.7691 26.4489C56.5797 26.4489 55.622 26.2048 54.9236 25.7223C54.1318 25.1781 53.7133 24.3804 53.7133 23.4176C53.7133 22.989 53.7966 22.4806 53.9674 21.8639C54.0191 21.7002 54.0751 21.53 54.1361 21.3462C54.0586 21.5135 53.9796 21.6822 53.9006 21.8538C53.5202 22.6896 53.1591 23.5066 52.8203 24.3014C52.7183 24.5412 52.5166 24.7243 52.2682 24.8026L48.2605 26.072C48.1722 26.1 48.0817 26.1136 47.9913 26.1136C47.7508 26.1136 47.5161 26.016 47.3452 25.8365C47.1098 25.5895 47.0358 25.2298 47.1543 24.9096L49.6675 18.1498C49.2647 19.0516 48.8075 19.9361 48.3078 20.7733C47.7673 21.6794 47.1449 22.574 46.4579 23.4327C45.0014 25.2973 43.3941 26.2464 41.6885 26.2464C40.8228 26.2464 39.9973 25.9822 39.2342 25.461C38.6118 25.0934 38.2701 24.2117 38.0641 22.4526C38.0605 22.4182 38.0583 22.3837 38.0583 22.3485C38.0583 21.4295 38.7152 21.1861 39.0626 21.1861C39.3584 21.1861 39.8939 21.3082 40.1976 22.1152C40.4072 22.5481 40.7489 22.9624 41.2119 23.3465C41.5995 23.6466 41.9728 23.8154 42.2693 23.8154C42.3569 23.8154 42.6225 23.8154 42.9893 23.3645C43.2456 23.0486 43.7358 22.2588 44.6152 20.2851L45.7272 17.7671C46.4802 16.0784 47.1751 14.6654 47.7924 13.5655C48.4421 12.4059 49.282 11.3268 50.2891 10.3583C51.4061 9.28274 52.6781 8.73779 54.0708 8.73779C54.9401 8.73779 55.6788 8.99339 56.2667 9.49885C56.8618 10.0108 57.187 10.6986 57.2107 11.4941C57.5667 11.0684 57.9378 10.672 58.3219 10.308C59.357 9.3251 60.4819 8.82682 61.6635 8.82682C62.2414 8.82682 62.741 8.97903 63.148 9.27843C63.6268 9.62952 63.891 10.1508 63.891 10.7445C63.891 10.8214 63.8809 10.8982 63.8616 10.9721L63.7503 11.3943C63.7395 11.4338 63.7273 11.4726 63.7108 11.5099L61.3067 17.2782L60.2134 19.8457C59.9981 20.364 59.8071 20.8372 59.6485 21.2586C59.4453 21.767 59.2874 22.1963 59.1725 22.5524C58.9206 23.335 58.8423 23.7601 58.8215 23.9812C58.8818 24.0042 58.9378 24.015 58.9902 24.015C59.3664 24.015 60.3211 23.8484 62.4768 22.7334C62.6053 22.6666 62.746 22.6336 62.8867 22.6336C63.0138 22.6336 63.1408 22.6608 63.2593 22.7147C63.5091 22.8289 63.6921 23.0521 63.7553 23.3192L63.8666 23.7866C63.9606 24.1822 63.7754 24.5922 63.4165 24.7825C62.4151 25.3138 61.4367 25.7252 60.507 26.0066C59.5465 26.301 58.6248 26.4489 57.7691 26.4489Z" stroke="white" stroke-width="0.9948" stroke-miterlimit="10"/>
<path d="M65.5392 26.2479C61.6807 26.2479 61.105 24.0516 61.105 22.7434C61.105 22.0908 61.2098 21.436 61.4158 20.7956C61.6175 20.1724 61.9363 19.5226 62.3634 18.8642C63.1753 17.6336 64.209 16.6909 65.4408 16.0569C66.2692 15.5629 67.0445 15.3095 67.7652 15.3095C67.8155 15.3095 67.8657 15.3124 67.9138 15.3181C68.3869 14.8155 69.0143 14.5527 69.7479 14.5527C70.6251 14.5527 71.3703 14.9369 71.9029 15.662C72.3803 16.3197 72.6201 17.1963 72.6201 18.2733C72.6201 19.2153 72.4736 20.102 72.1843 20.9205C72.2245 20.9219 72.2654 20.9219 72.3078 20.9219C72.8397 20.9219 73.3236 20.8329 73.7449 20.6563C73.8548 20.6103 73.9718 20.5873 74.0888 20.5873C74.2237 20.5873 74.358 20.6175 74.4822 20.6785C74.7133 20.792 74.8849 20.9995 74.9509 21.2486L75.0407 21.5832C75.1548 22.0104 74.9394 22.457 74.5346 22.6336C73.844 22.9337 73.1549 23.0859 72.4858 23.0859C72.0436 23.0859 71.6122 23.0436 71.1973 22.961C69.8111 25.1429 67.9109 26.2479 65.5392 26.2479ZM67.2965 19.5721C67.0825 20.0474 66.8736 20.5507 66.6726 21.0763C66.2915 22.0728 66.0969 22.9574 66.0969 23.7041C66.0969 23.8944 66.1328 23.9884 66.1508 24.0107C66.771 23.9956 67.5161 23.0421 68.1974 21.3613C67.7875 20.7927 67.4867 20.1946 67.2965 19.5721Z" fill="white"/>
<path d="M65.5392 26.2479C61.6807 26.2479 61.105 24.0516 61.105 22.7434C61.105 22.0908 61.2098 21.436 61.4158 20.7956C61.6175 20.1724 61.9363 19.5226 62.3634 18.8642C63.1753 17.6336 64.209 16.6909 65.4408 16.0569C66.2692 15.5629 67.0445 15.3095 67.7652 15.3095C67.8155 15.3095 67.8657 15.3124 67.9138 15.3181C68.3869 14.8155 69.0143 14.5527 69.7479 14.5527C70.6251 14.5527 71.3703 14.9369 71.9029 15.662C72.3803 16.3197 72.6201 17.1963 72.6201 18.2733C72.6201 19.2153 72.4736 20.102 72.1843 20.9205C72.2245 20.9219 72.2654 20.9219 72.3078 20.9219C72.8397 20.9219 73.3236 20.8329 73.7449 20.6563C73.8548 20.6103 73.9718 20.5873 74.0888 20.5873C74.2237 20.5873 74.358 20.6175 74.4822 20.6785C74.7133 20.792 74.8849 20.9995 74.9509 21.2486L75.0407 21.5832C75.1548 22.0104 74.9394 22.457 74.5346 22.6336C73.844 22.9337 73.1549 23.0859 72.4858 23.0859C72.0436 23.0859 71.6122 23.0436 71.1973 22.961C69.8111 25.1429 67.9109 26.2479 65.5392 26.2479ZM67.2965 19.5721C67.0825 20.0474 66.8736 20.5507 66.6726 21.0763C66.2915 22.0728 66.0969 22.9574 66.0969 23.7041C66.0969 23.8944 66.1328 23.9884 66.1508 24.0107C66.771 23.9956 67.5161 23.0421 68.1974 21.3613C67.7875 20.7927 67.4867 20.1946 67.2965 19.5721Z" stroke="white" stroke-width="0.9948" stroke-miterlimit="10"/>
<path d="M73.2856 30.4961C73.0437 30.4961 72.8083 30.3978 72.6374 30.2168C72.4063 29.972 72.3316 29.6188 72.4457 29.3014L73.7781 25.5895C72.9612 25.0459 72.8176 24.2985 72.8176 23.8405C72.8176 23.3975 72.9526 22.7771 73.6015 22.3442C73.5879 22.2911 73.58 22.2365 73.5764 22.1805L73.5319 21.4446C73.5304 20.3432 73.9339 19.3811 74.7292 18.5296C75.3523 17.8626 76.0601 17.3155 76.839 16.899L76.9869 16.4805C77.0917 16.1832 77.3458 15.9635 77.6552 15.9018L81.1296 15.2103C81.187 15.1989 81.2459 15.1931 81.3033 15.1931C81.5567 15.1931 81.8015 15.3008 81.9731 15.4954C82.0729 15.6088 82.1404 15.7431 82.1734 15.8852L82.6235 15.8429C82.6507 15.8407 82.6787 15.8393 82.706 15.8393C83.9379 15.8393 84.9249 16.1358 85.6406 16.721C86.4123 17.3471 86.8042 18.251 86.8042 19.4062C86.8042 21.232 85.8667 22.8425 84.0132 24.2088C84.1482 24.2296 84.2767 24.2404 84.398 24.2404C84.8904 24.2404 85.7878 23.9561 87.2701 22.6034C87.4345 22.4526 87.6492 22.37 87.8717 22.37C87.8896 22.37 87.9083 22.3708 87.9262 22.3715C88.1667 22.3865 88.3914 22.4978 88.5486 22.6816L88.8157 22.9932C88.9729 23.1756 89.049 23.4147 89.0274 23.6545C89.0059 23.8943 88.8882 24.1154 88.7008 24.2677C88.3046 24.5893 87.9169 24.8866 87.5422 25.1623C87.1725 25.4344 86.8121 25.6806 86.4726 25.8917C85.749 26.3362 84.9098 26.5609 83.9752 26.5609C83.0054 26.5609 81.9724 26.3426 80.8985 25.9125C80.1806 26.1545 79.4441 26.3038 78.699 26.3591L77.8727 28.7809C77.7794 29.0544 77.559 29.2655 77.2826 29.3481L73.5412 30.4602C73.4558 30.4839 73.3703 30.4961 73.2856 30.4961ZM80.3708 22.7585C80.7133 22.2035 81.0119 21.6025 81.2624 20.9635C81.5826 20.1465 81.7455 19.4586 81.7455 18.918C81.7455 18.6157 81.6924 18.3788 81.5998 18.2689C81.5682 18.2316 81.5402 18.2065 81.5079 18.19L79.9825 22.6149L80.3708 22.7585Z" fill="white"/>
<path d="M73.2856 30.4961C73.0437 30.4961 72.8083 30.3978 72.6374 30.2168C72.4063 29.972 72.3316 29.6188 72.4457 29.3014L73.7781 25.5895C72.9612 25.0459 72.8176 24.2985 72.8176 23.8405C72.8176 23.3975 72.9526 22.7771 73.6015 22.3442C73.5879 22.2911 73.58 22.2365 73.5764 22.1805L73.5319 21.4446C73.5304 20.3432 73.9339 19.3811 74.7292 18.5296C75.3523 17.8626 76.0601 17.3155 76.839 16.899L76.9869 16.4805C77.0917 16.1832 77.3458 15.9635 77.6552 15.9018L81.1296 15.2103C81.187 15.1989 81.2459 15.1931 81.3033 15.1931C81.5567 15.1931 81.8015 15.3008 81.9731 15.4954C82.0729 15.6088 82.1404 15.7431 82.1734 15.8852L82.6235 15.8429C82.6507 15.8407 82.6787 15.8393 82.706 15.8393C83.9379 15.8393 84.9249 16.1358 85.6406 16.721C86.4123 17.3471 86.8042 18.251 86.8042 19.4062C86.8042 21.232 85.8667 22.8425 84.0132 24.2088C84.1482 24.2296 84.2767 24.2404 84.398 24.2404C84.8904 24.2404 85.7878 23.9561 87.2701 22.6034C87.4345 22.4526 87.6492 22.37 87.8717 22.37C87.8896 22.37 87.9083 22.3708 87.9262 22.3715C88.1667 22.3866 88.3914 22.4978 88.5486 22.6816L88.8157 22.9932C88.9729 23.1756 89.049 23.4147 89.0274 23.6545C89.0059 23.8943 88.8882 24.1154 88.7008 24.2677C88.3046 24.5893 87.9169 24.8866 87.5422 25.1623C87.1725 25.4344 86.8121 25.6806 86.4726 25.8917C85.749 26.3362 84.9098 26.5609 83.9752 26.5609C83.0054 26.5609 81.9724 26.3426 80.8985 25.9125C80.1806 26.1545 79.4441 26.3038 78.699 26.3591L77.8727 28.7809C77.7794 29.0544 77.559 29.2655 77.2826 29.3481L73.5412 30.4602C73.4558 30.4839 73.3703 30.4961 73.2856 30.4961ZM80.3708 22.7585C80.7133 22.2035 81.0119 21.6025 81.2624 20.9635C81.5826 20.1465 81.7455 19.4586 81.7455 18.918C81.7455 18.6157 81.6924 18.3788 81.5998 18.2689C81.5682 18.2316 81.5402 18.2065 81.5079 18.19L79.9825 22.6149L80.3708 22.7585Z" stroke="white" stroke-width="0.9948" stroke-miterlimit="10"/>
<path d="M90.9878 26.2479C87.092 26.2479 86.5112 24.3216 86.5112 23.1728C86.5112 22.3134 86.7409 21.2853 87.2147 20.0288C88.4107 16.953 90.5843 15.3311 93.5045 15.3311C96.279 15.3311 96.5784 17.0772 96.5784 17.8275C96.5784 18.926 96.0651 19.9685 95.053 20.9263C94.2303 21.7038 93.1126 22.4046 91.725 23.0106V23.2166C91.725 23.5498 91.8262 23.6883 91.9145 23.7709C92.0251 23.8657 92.2483 23.9274 92.5469 23.9274C93.7493 23.9274 94.9941 23.4866 96.2475 22.6171C96.3982 22.5123 96.5755 22.4577 96.7564 22.4577C96.8146 22.4577 96.8727 22.4635 96.9309 22.4749C97.1685 22.5223 97.3766 22.6645 97.5073 22.8684L97.7298 23.2145C97.8583 23.4141 97.9014 23.656 97.8511 23.8879C97.8009 24.1198 97.6595 24.3216 97.4599 24.4494C96.4571 25.0905 95.4255 25.5637 94.394 25.8559C93.8656 25.9895 93.3416 26.0871 92.8125 26.1524C92.2856 26.2163 91.6891 26.2479 90.9878 26.2479Z" fill="white"/>
<path d="M90.9878 26.2479C87.092 26.2479 86.5112 24.3216 86.5112 23.1728C86.5112 22.3134 86.7409 21.2853 87.2147 20.0288C88.4107 16.953 90.5843 15.3311 93.5045 15.3311C96.279 15.3311 96.5784 17.0772 96.5784 17.8275C96.5784 18.926 96.0651 19.9685 95.053 20.9263C94.2303 21.7038 93.1126 22.4046 91.725 23.0106V23.2166C91.725 23.5498 91.8262 23.6883 91.9145 23.7709C92.0251 23.8657 92.2483 23.9274 92.5469 23.9274C93.7493 23.9274 94.9941 23.4866 96.2475 22.6171C96.3982 22.5123 96.5755 22.4577 96.7564 22.4577C96.8146 22.4577 96.8727 22.4635 96.9309 22.4749C97.1685 22.5223 97.3766 22.6645 97.5073 22.8684L97.7298 23.2145C97.8583 23.4141 97.9014 23.656 97.8511 23.8879C97.8009 24.1198 97.6595 24.3216 97.4599 24.4494C96.4571 25.0905 95.4255 25.5637 94.394 25.8559C93.8656 25.9895 93.3416 26.0871 92.8125 26.1524C92.2856 26.2163 91.6891 26.2479 90.9878 26.2479Z" stroke="white" stroke-width="0.9948" stroke-miterlimit="10"/>
<path d="M99.7621 26.2479C95.9043 26.2479 95.3286 24.0516 95.3286 22.7434C95.3286 22.0886 95.4334 21.4331 95.6394 20.7941C95.8383 20.1781 96.157 19.5283 96.5856 18.8649C97.3982 17.6321 98.4326 16.6894 99.6659 16.0555C100.494 15.5615 101.268 15.3088 101.987 15.3088C102.038 15.3088 102.088 15.3116 102.137 15.3174C102.609 14.8148 103.236 14.552 103.97 14.552C104.849 14.552 105.594 14.9361 106.126 15.6627C106.603 16.3168 106.844 17.1949 106.844 18.2726C106.844 19.2146 106.698 20.1013 106.409 20.9198C106.449 20.9212 106.489 20.9212 106.531 20.9212C107.063 20.9212 107.546 20.8322 107.967 20.6555C108.077 20.6096 108.194 20.5866 108.311 20.5866C108.446 20.5866 108.58 20.6168 108.704 20.6778C108.936 20.7912 109.107 20.9987 109.173 21.2479L109.263 21.5825C109.377 22.0097 109.162 22.4562 108.757 22.6321C108.067 22.9323 107.378 23.0845 106.709 23.0845C106.267 23.0845 105.835 23.0421 105.42 22.9595C104.035 25.1429 102.135 26.2479 99.7621 26.2479ZM101.519 19.5735C101.306 20.0474 101.097 20.5507 100.895 21.077C100.514 22.0743 100.319 22.9588 100.319 23.7041C100.319 23.8929 100.354 23.9855 100.373 24.0078C100.994 23.9956 101.74 23.0421 102.421 21.3613C102.01 20.7927 101.71 20.1953 101.519 19.5735Z" fill="white"/>
<path d="M99.7621 26.2479C95.9043 26.2479 95.3286 24.0516 95.3286 22.7434C95.3286 22.0886 95.4334 21.4331 95.6394 20.7941C95.8383 20.1781 96.157 19.5283 96.5856 18.8649C97.3982 17.6321 98.4326 16.6894 99.6659 16.0555C100.494 15.5615 101.268 15.3088 101.987 15.3088C102.038 15.3088 102.088 15.3116 102.137 15.3174C102.609 14.8148 103.236 14.552 103.97 14.552C104.849 14.552 105.594 14.9361 106.126 15.6627C106.603 16.3168 106.844 17.1949 106.844 18.2726C106.844 19.2146 106.698 20.1013 106.409 20.9198C106.449 20.9212 106.489 20.9212 106.531 20.9212C107.063 20.9212 107.546 20.8322 107.967 20.6555C108.077 20.6096 108.194 20.5866 108.311 20.5866C108.446 20.5866 108.58 20.6168 108.704 20.6778C108.936 20.7912 109.107 20.9987 109.173 21.2479L109.263 21.5825C109.377 22.0097 109.162 22.4562 108.757 22.6321C108.067 22.9323 107.378 23.0845 106.709 23.0845C106.267 23.0845 105.835 23.0421 105.42 22.9595C104.035 25.1429 102.135 26.2479 99.7621 26.2479ZM101.519 19.5735C101.306 20.0474 101.097 20.5507 100.895 21.077C100.514 22.0743 100.319 22.9588 100.319 23.7041C100.319 23.8929 100.354 23.9855 100.373 24.0078C100.994 23.9956 101.74 23.0421 102.421 21.3613C102.01 20.7927 101.71 20.1953 101.519 19.5735Z" stroke="white" stroke-width="0.9948" stroke-miterlimit="10"/>
<path d="M116.705 26.181C115.656 26.181 114.793 25.9398 114.142 25.463C113.413 24.9303 113.029 24.1692 113.029 23.2617C113.029 22.7692 113.165 22.2372 113.448 21.6355L113.562 21.3411C113.557 21.3433 113.552 21.3462 113.548 21.3483C113.446 21.446 113.189 21.7611 112.811 22.6859C112.502 23.5403 112.167 24.2482 111.8 24.8154C111.57 25.2039 111.319 25.5169 111.051 25.7445C111.024 25.7675 110.996 25.789 110.967 25.8077C110.596 26.0547 110.115 26.1803 109.536 26.1803C106.902 26.1803 106.618 24.4335 106.618 23.6825C106.618 23.1842 106.729 22.6579 106.951 22.1187L108.967 16.6872C109.077 16.3899 109.337 16.1738 109.648 16.1185L113.3 15.4724C113.352 15.463 113.404 15.4587 113.456 15.4587C113.718 15.4587 113.972 15.575 114.143 15.7818C114.348 16.0288 114.404 16.367 114.291 16.6671L113.381 19.0716C113.512 19.0565 113.648 19.0493 113.789 19.0493C113.939 19.0493 114.144 19.0659 114.405 19.1032C114.412 19.1039 114.418 19.1046 114.423 19.1061L115.385 16.6779C115.499 16.3907 115.754 16.1824 116.058 16.1279L119.71 15.4724C119.763 15.463 119.815 15.458 119.868 15.458C120.132 15.458 120.387 15.5758 120.558 15.784C120.763 16.0338 120.817 16.3749 120.7 16.6757L118.183 23.1289C118.077 23.4226 118.024 23.602 117.999 23.7033C118.013 23.704 118.027 23.704 118.043 23.704C118.195 23.704 118.307 23.7026 118.378 23.6911C118.43 23.6782 118.524 23.6394 118.652 23.5855C118.809 23.5188 118.925 23.4721 118.998 23.4434C119.173 23.3543 119.353 23.2538 119.54 23.1411L120.574 22.5351C120.715 22.4518 120.871 22.4124 121.025 22.4124C121.313 22.4124 121.597 22.5531 121.768 22.8094L121.946 23.0765C122.206 23.4671 122.12 23.9933 121.748 24.2798C120.11 25.542 118.414 26.181 116.705 26.181Z" fill="white"/>
<path d="M116.705 26.181C115.656 26.181 114.793 25.9398 114.142 25.463C113.413 24.9303 113.029 24.1692 113.029 23.2617C113.029 22.7692 113.165 22.2372 113.448 21.6355L113.562 21.3411C113.557 21.3433 113.552 21.3462 113.548 21.3483C113.446 21.446 113.189 21.7611 112.811 22.6859C112.502 23.5403 112.167 24.2482 111.8 24.8154C111.57 25.2039 111.319 25.5169 111.051 25.7445C111.024 25.7675 110.996 25.789 110.967 25.8077C110.596 26.0547 110.115 26.1803 109.536 26.1803C106.902 26.1803 106.618 24.4335 106.618 23.6825C106.618 23.1842 106.729 22.6579 106.951 22.1187L108.967 16.6872C109.077 16.3899 109.337 16.1738 109.648 16.1185L113.3 15.4724C113.352 15.463 113.404 15.4587 113.456 15.4587C113.718 15.4587 113.972 15.575 114.143 15.7818C114.348 16.0288 114.404 16.367 114.291 16.6671L113.381 19.0716C113.512 19.0565 113.648 19.0493 113.789 19.0493C113.939 19.0493 114.144 19.0659 114.405 19.1032C114.412 19.1039 114.418 19.1046 114.423 19.1061L115.385 16.6779C115.499 16.3907 115.754 16.1824 116.058 16.1279L119.71 15.4724C119.763 15.463 119.815 15.458 119.868 15.458C120.132 15.458 120.387 15.5758 120.558 15.784C120.763 16.0338 120.817 16.3749 120.7 16.6757L118.183 23.1289C118.077 23.4226 118.024 23.602 117.999 23.7033C118.013 23.704 118.027 23.704 118.043 23.704C118.195 23.704 118.307 23.7026 118.378 23.6911C118.43 23.6782 118.524 23.6394 118.652 23.5855C118.809 23.5188 118.925 23.4721 118.998 23.4434C119.173 23.3543 119.353 23.2538 119.54 23.1411L120.574 22.5351C120.715 22.4518 120.871 22.4124 121.025 22.4124C121.313 22.4124 121.597 22.5531 121.768 22.8094L121.946 23.0765C122.206 23.4671 122.12 23.9933 121.748 24.2798C120.11 25.542 118.414 26.181 116.705 26.181Z" stroke="white" stroke-width="0.9948" stroke-miterlimit="10"/>
<path d="M62.8882 23.5288L62.9995 23.9962C62.049 24.5009 61.1331 24.8872 60.2501 25.1543C59.3671 25.4221 58.5387 25.5556 57.7685 25.5556C56.7577 25.5556 55.9782 25.3654 55.4297 24.987C54.8798 24.6086 54.6056 24.0852 54.6056 23.4168C54.6056 23.0757 54.6796 22.6371 54.8282 22.1022C54.9186 21.82 55.0335 21.4754 55.1727 21.0668C55.3141 20.659 55.5029 20.1572 55.7398 19.5634C57.1956 15.6877 58.8137 12.6449 60.5961 10.4328C59.7189 10.6999 58.7067 11.6757 57.556 13.3608C56.4053 15.0466 55.3479 16.8458 54.3831 18.7621C53.9667 19.6079 53.536 20.514 53.091 21.4782C52.7055 22.3247 52.3415 23.149 51.9998 23.9502L47.9921 25.2196L53.3322 10.8543L53.442 10.4774C53.442 10.2986 53.3322 10.1959 53.1082 10.1658C52.7679 10.1658 52.3573 10.5779 51.8756 11.4021C51.394 12.2264 50.9546 13.0915 50.5541 13.9976L48.9432 17.5796C48.5276 18.5331 48.0602 19.4456 47.5412 20.3165C47.0215 21.1875 46.4293 22.0404 45.7617 22.8747C44.4703 24.5275 43.1135 25.3539 41.6893 25.3539C40.9901 25.3539 40.3311 25.1371 39.7088 24.7041C39.3671 24.5253 39.1144 23.7392 38.9514 22.3491C38.9514 22.1704 38.9873 22.0799 39.0634 22.0799C39.1804 22.0799 39.2852 22.2077 39.3749 22.4619C39.6413 23.0312 40.0648 23.5546 40.6434 24.0342C41.2227 24.4837 41.7654 24.7084 42.2708 24.7084C42.7891 24.7084 43.2607 24.4478 43.6835 23.9273C44.107 23.4067 44.6899 22.314 45.4322 20.649L46.5456 18.1281C47.2878 16.4632 47.9633 15.0882 48.5721 14.0026C49.1808 12.9171 49.959 11.9162 50.9094 11.0022C51.8591 10.0875 52.9136 9.63086 54.0715 9.63086C54.7241 9.63086 55.2625 9.81251 55.686 10.1765C56.1095 10.5405 56.3206 11.0115 56.3206 11.5902C56.3206 12.0217 56.2689 12.3484 56.1648 12.5703L52.7356 21.2111L54.2058 18.3163C55.0801 16.5206 55.8719 15.0502 56.5769 13.9071C57.2825 12.7641 58.0685 11.7798 58.9371 10.9562C59.8057 10.132 60.7146 9.71989 61.665 9.71989C62.0498 9.71989 62.3692 9.81323 62.6212 9.99846C62.8753 10.1844 63.0002 10.4336 63.0002 10.7459L62.8889 11.1681L60.4848 16.9363L59.3937 19.4973C59.1705 20.0329 58.9759 20.5154 58.8137 20.9455C58.6055 21.4653 58.4425 21.9105 58.3234 22.2809C58.0556 23.1131 57.9221 23.7219 57.9221 24.1082C57.9221 24.3308 58.0269 24.5232 58.2351 24.6869C58.4863 24.8355 58.7397 24.9102 58.991 24.9102C59.8086 24.9102 61.1072 24.45 62.8882 23.5288Z" fill="#00100F"/>
<path d="M74.0888 21.4797L74.1786 21.8142C73.5985 22.0663 73.0336 22.1926 72.4859 22.1926C71.8778 22.1926 71.3057 22.1029 70.7709 21.9255C69.524 24.2116 67.7796 25.3546 65.5392 25.3546C63.1789 25.3546 61.9973 24.4837 61.9973 22.7426C61.9973 22.1768 62.0878 21.619 62.2651 21.0683C62.4431 20.5176 62.7252 19.9453 63.1121 19.3487C63.8386 18.2473 64.751 17.4145 65.8493 16.8494C66.5765 16.4172 67.2147 16.2018 67.7653 16.2018C67.8988 16.2018 67.972 16.2542 67.9871 16.3583L67.1867 17.7648C66.7107 18.6573 66.2614 19.6553 65.8393 20.7559C65.4172 21.858 65.2047 22.8402 65.2047 23.7033C65.2047 24.0759 65.2894 24.3659 65.4588 24.5742C65.6304 24.7831 65.8493 24.8872 66.1171 24.8872C67.2757 24.8872 68.3058 23.6623 69.2117 21.2119C68.3654 20.2024 67.9433 19.1046 67.9433 17.9171C67.9433 17.1445 68.1027 16.54 68.4221 16.1006C68.7408 15.664 69.183 15.4443 69.748 15.4443C70.3395 15.4443 70.819 15.6935 71.1837 16.1896C71.5455 16.6879 71.7278 17.3822 71.7278 18.2725C71.7278 19.4901 71.4608 20.5815 70.926 21.5464C71.2835 21.7252 71.7436 21.8142 72.3078 21.8142C72.9604 21.8142 73.5547 21.7037 74.0888 21.4797ZM69.4364 20.6332C69.6432 19.5203 69.7487 18.6666 69.7487 18.0729C69.7487 17.3901 69.6877 16.8781 69.5692 16.5357C69.4795 16.1939 69.3237 16.0094 69.1026 15.9792C68.9239 15.9792 68.7638 16.1286 68.6224 16.4244C68.4831 16.7223 68.4113 17.0562 68.4113 17.4267C68.4113 17.9321 68.4996 18.4886 68.6791 19.096C68.8564 19.7063 69.1084 20.2182 69.4364 20.6332Z" fill="#00100F"/>
<path d="M77.8289 16.7764L81.3034 16.085L81.0363 16.8869L82.706 16.7311C83.7311 16.7311 84.5215 16.958 85.0764 17.4111C85.6342 17.8641 85.912 18.5297 85.912 19.4049C85.912 21.3513 84.6062 23.0228 81.9932 24.4193C82.9142 24.8953 83.7139 25.1322 84.3987 25.1322C85.3477 25.1322 86.5071 24.5083 87.8724 23.2619L88.1395 23.5735C87.7547 23.8858 87.3778 24.1744 87.0146 24.4422C86.6513 24.71 86.3125 24.9398 86.0024 25.1322C85.4224 25.4891 84.7469 25.6671 83.9759 25.6671C83.0269 25.6671 82.0076 25.4287 80.9243 24.9542C79.9897 25.311 79.0335 25.4891 78.0529 25.4891L77.0278 28.4909L73.2864 29.6031L74.8915 25.1322C74.104 24.8795 73.7106 24.4494 73.7106 23.8406C73.7106 23.0989 74.4091 22.7277 75.8046 22.7277L77.4054 18.0063C75.997 18.9863 75.0171 20.3591 74.4672 22.126L74.4227 21.3901C74.4227 20.5738 74.7415 19.8235 75.3811 19.1392C76.0192 18.4564 76.7457 17.9208 77.5619 17.5346L77.8289 16.7764ZM75.6474 23.0838C75.3509 23.0838 75.1047 23.18 74.913 23.3725C74.7192 23.5663 74.6237 23.7961 74.6237 24.0631C74.6237 24.3755 74.7644 24.6203 75.0473 24.7984L75.6474 23.0838ZM78.1635 25.1322C78.816 25.1322 79.4549 24.9326 80.0787 24.5306L79.3214 24.1306L78.6315 23.7968L78.1635 25.1322ZM78.854 23.1506L80.724 23.8406C81.2739 23.0687 81.7283 22.2187 82.093 21.2903C82.4569 20.3627 82.6378 19.5722 82.6378 18.9188C82.6378 18.3839 82.5194 17.9761 82.2825 17.6947C82.0449 17.4118 81.7412 17.2711 81.3701 17.2711H80.8798L78.854 23.1506Z" fill="#00100F"/>
<path d="M96.7565 23.3508L96.979 23.6969C96.0436 24.2949 95.1011 24.7279 94.1514 24.9971C93.6762 25.117 93.1938 25.2061 92.7035 25.2664C92.2132 25.326 91.6418 25.3554 90.9878 25.3554C88.5974 25.3554 87.4036 24.6288 87.4036 23.1735C87.4036 22.4304 87.6189 21.4884 88.0496 20.3446C89.1171 17.5983 90.9361 16.2249 93.5046 16.2249C94.9582 16.2249 95.6861 16.759 95.6861 17.8281C95.6861 18.6746 95.2719 19.4909 94.44 20.2786C93.6087 21.0655 92.4436 21.7626 90.9454 22.3715C90.8844 22.6386 90.8464 22.8023 90.8335 22.8619C90.8335 23.0248 90.8335 23.1433 90.8335 23.2173C90.8335 23.7227 90.9885 24.1241 91.3008 24.4199C91.6109 24.6877 92.028 24.8212 92.547 24.8212C93.9403 24.8205 95.3444 24.3308 96.7565 23.3508ZM90.9878 21.8588C91.6418 21.3419 92.3768 20.5507 93.193 19.4859C94.0092 18.4219 94.4177 17.5782 94.4177 16.9572C94.4177 16.6463 94.2389 16.4919 93.8822 16.4919C93.3488 16.4919 92.7946 17.1317 92.2239 18.4097C91.654 19.6891 91.2419 20.8379 90.9878 21.8588Z" fill="#00100F"/>
<path d="M108.311 21.4797L108.401 21.8142C107.821 22.0663 107.257 22.1926 106.709 22.1926C106.099 22.1926 105.529 22.1029 104.994 21.9255C103.748 24.2116 102.003 25.3546 99.7621 25.3546C97.4011 25.3546 96.2209 24.4837 96.2209 22.7426C96.2209 22.1768 96.3107 21.619 96.4887 21.0683C96.666 20.5176 96.9496 19.9453 97.3351 19.3487C98.0615 18.2473 98.9739 17.4145 100.074 16.8494C100.801 16.4172 101.438 16.2018 101.987 16.2018C102.122 16.2018 102.194 16.2542 102.211 16.3583L101.409 17.7648C100.934 18.6573 100.485 19.6553 100.061 20.7559C99.6394 21.858 99.4262 22.8402 99.4262 23.7033C99.4262 24.0759 99.5116 24.3659 99.6824 24.5742C99.8533 24.7831 100.073 24.8872 100.34 24.8872C101.497 24.8872 102.529 23.6623 103.435 21.2119C102.588 20.2024 102.165 19.1046 102.165 17.9171C102.165 17.1445 102.325 16.54 102.644 16.1006C102.962 15.664 103.405 15.4443 103.969 15.4443C104.562 15.4443 105.041 15.6935 105.404 16.1896C105.768 16.6879 105.951 17.3822 105.951 18.2725C105.951 19.4901 105.684 20.5815 105.15 21.5464C105.506 21.7252 105.964 21.8142 106.531 21.8142C107.184 21.8142 107.777 21.7037 108.311 21.4797ZM103.658 20.6332C103.865 19.5203 103.97 18.6666 103.97 18.0729C103.97 17.3901 103.911 16.8781 103.791 16.5357C103.703 16.1939 103.547 16.0094 103.325 15.9792C103.145 15.9792 102.986 16.1286 102.846 16.4244C102.705 16.7223 102.634 17.0562 102.634 17.4267C102.634 17.9321 102.723 18.4886 102.901 19.096C103.079 19.7063 103.331 20.2182 103.658 20.6332Z" fill="#00100F"/>
<path d="M114.256 22.0147L114.836 20.5227C114.45 20.433 114.123 20.3878 113.857 20.3878C113.53 20.3878 113.247 20.4696 113.01 20.6326C112.684 20.9004 112.343 21.4726 111.985 22.3479C111.689 23.1642 111.378 23.8247 111.051 24.3295C110.857 24.6562 110.664 24.901 110.472 25.0647C110.249 25.2133 109.936 25.2873 109.536 25.2873C108.185 25.2873 107.51 24.7524 107.51 23.6826C107.51 23.2963 107.6 22.8885 107.776 22.457L109.803 16.9975L113.455 16.3513L110.404 24.4185V24.6418L110.582 24.5973L110.671 24.486C110.908 24.0552 111.2 23.3164 111.552 22.2703C111.9 21.2235 112.298 20.5364 112.743 20.2097C112.994 20.0317 113.343 19.9419 113.788 19.9419C113.907 19.9419 114.071 19.957 114.279 19.9864C114.488 20.0166 114.725 20.0532 114.991 20.0977L116.215 17.0054L119.868 16.3499L117.351 22.8031C117.172 23.2956 117.084 23.6244 117.084 23.7888C117.084 24.3273 117.402 24.5958 118.042 24.5958C118.295 24.5958 118.469 24.5844 118.565 24.5628C118.663 24.5406 118.807 24.4881 118.999 24.407C119.192 24.3259 119.312 24.2771 119.357 24.2613C119.563 24.1579 119.778 24.0387 120 23.9051L121.025 23.3049L121.203 23.572C119.719 24.715 118.22 25.2873 116.705 25.2873C115.844 25.2873 115.166 25.1056 114.668 24.7416C114.171 24.3783 113.92 23.885 113.92 23.2611C113.921 22.905 114.034 22.49 114.256 22.0147Z" fill="#00100F"/>
</g>
<defs>
<clipPath id="clip0_85_658">
<rect width="160" height="89" fill="white"/>
</clipPath>
</defs>
</svg>
