<svg width="160" height="56" viewBox="0 0 160 56" fill="none" xmlns="http://www.w3.org/2000/svg">
<path d="M41.1421 11.9546C41.1677 11.897 41.194 11.8393 41.2204 11.7784C42.9788 7.4748 41.0444 2.50236 36.9029 0.676952C32.7573 -1.15407 27.9702 0.857989 26.2134 5.1608C26.1894 5.22168 26.1662 5.28255 26.147 5.34022C28.8669 5.33381 31.6309 5.88406 34.2941 7.06069C36.9549 8.23491 39.2565 9.91776 41.1421 11.9546Z" fill="white"/>
<path d="M14.8704 44.9468C15.408 46.3877 16.1207 48.2436 16.1207 48.2436C16.4823 49.1695 17.5103 49.626 18.4039 49.2528C18.4039 49.2528 20.1775 48.4918 21.5495 47.8959C20.3855 47.6148 19.2296 47.2255 18.088 46.7241C16.9496 46.2211 15.876 45.626 14.8704 44.9468Z" fill="white"/>
<path d="M16.7453 7.7143C15.9069 6.99663 14.8782 6.47601 13.667 6.23492C5.67505 4.74992 -1.61853 14.6339 0.314256 26.3417C2.19344 23.137 4.18541 21.9123 6.10859 21.5126C6.36299 20.489 6.69262 19.4733 7.10302 18.4753C9.079 13.6327 12.5638 9.93139 16.7453 7.7143Z" fill="white"/>
<path d="M49.1929 21.9023C48.1889 21.1678 47.1105 20.7609 46.0337 20.6304C47.4001 25.2976 47.2577 30.4735 45.2809 35.3098C44.8721 36.315 44.3977 37.2625 43.8657 38.166C44.9273 39.8809 45.4617 42.2181 44.5465 45.8449C53.9953 39.1584 55.776 26.8451 49.1929 21.9023Z" fill="white"/>
<path d="M6.37488 33.2493C3.9765 33.9581 2.26775 36.8552 4.10453 40.1C5.63492 42.7952 8.48605 43.7051 8.83965 48.9443C10.6748 47.1173 11.8708 45.066 12.466 43.0483C9.57726 40.4011 7.49327 36.989 6.37488 33.2493Z" fill="white"/>
<path d="M24.5416 48.3749C23.5536 50.2211 22.9608 52.5375 22.9728 55.1799C26.8456 51.8062 29.4592 53.3024 32.388 52.5712C35.9072 51.6917 36.7279 48.4005 35.5511 46.1169C32.188 47.8823 28.3792 48.6921 24.5416 48.3749Z" fill="white"/>
<path d="M20.6238 29.2269C22.0318 29.2141 23.4638 29.4896 24.8438 30.0968C26.2446 30.7063 27.4525 31.5938 28.4357 32.6751C28.4229 31.2093 28.6893 29.7211 29.2685 28.2898C29.8589 26.832 30.7181 25.5785 31.7549 24.5549C30.3461 24.5717 28.9117 24.2954 27.535 23.6906C26.1342 23.0787 24.9238 22.1896 23.9422 21.1067C23.9558 22.5709 23.6902 24.0623 23.1086 25.4952C22.519 26.9498 21.659 28.2073 20.6238 29.2269Z" fill="white"/>
<path d="M41.4727 17.7864C40.8847 19.2417 40.0263 20.4993 38.9863 21.5197C40.3975 21.5013 41.8303 21.784 43.2079 22.3832C43.5159 22.5201 43.8119 22.6627 44.0951 22.8277C43.6559 20.7276 42.8727 18.7219 41.7903 16.8933C41.6983 17.1929 41.5943 17.4924 41.4727 17.7864Z" fill="white"/>
<path d="M34.9505 42.7695C33.5521 42.1575 32.3417 41.27 31.3617 40.1887C31.3737 41.6537 31.1089 43.1411 30.5305 44.5724C30.4001 44.892 30.2593 45.1996 30.1057 45.4975C32.1241 45.037 34.0537 44.228 35.8121 43.0995C35.5257 43.0025 35.2361 42.8952 34.9505 42.7695Z" fill="white"/>
<path d="M17.4271 11.0152C18.8239 11.6264 20.0335 12.517 21.0191 13.5975C21.0007 12.1318 21.2695 10.6428 21.8479 9.21064C21.9791 8.89346 22.1206 8.58747 22.2742 8.28711C20.2598 8.74767 18.3279 9.55745 16.5679 10.6836C16.8543 10.7813 17.1431 10.8895 17.4271 11.0152Z" fill="white"/>
<path d="M10.9066 35.9984C11.4962 34.5398 12.3522 33.2839 13.3938 32.2627C11.9826 32.2811 10.5514 32.0023 9.17299 31.4024C8.86499 31.2679 8.56978 31.1221 8.28418 30.9595C8.72658 33.058 9.50658 35.0613 10.5858 36.8907C10.6786 36.5903 10.7874 36.2915 10.9066 35.9984Z" fill="white"/>
<path d="M28.0665 11.5838C27.2001 13.7096 28.1657 16.1709 30.2145 17.072C32.2681 17.9667 34.6361 16.9599 35.5017 14.8341C36.3633 12.706 35.3921 10.2422 33.3465 9.34428C31.2961 8.44719 28.9241 9.4532 28.0665 11.5838Z" fill="white"/>
<path d="M35.6382 31.0714C34.7814 33.2043 35.7486 35.6673 37.7926 36.5628C39.8454 37.4567 42.2166 36.4571 43.0782 34.3217C43.9422 32.1927 42.9718 29.7313 40.9254 28.8366C38.875 27.9396 36.5046 28.9448 35.6382 31.0714Z" fill="white"/>
<path d="M16.8813 38.9477C16.0173 41.0783 16.9877 43.5429 19.0349 44.4376C21.0813 45.3339 23.4541 44.327 24.3181 42.1997C25.1805 40.0707 24.2133 37.6093 22.1613 36.7114C20.1141 35.8175 17.7453 36.8219 16.8813 38.9477Z" fill="white"/>
<path d="M16.74 22.7116C17.6015 20.5754 16.636 18.1148 14.5872 17.2193C12.5352 16.3215 10.1648 17.3283 9.30163 19.4605C8.43924 21.5886 9.40563 24.0492 11.456 24.9479C13.5072 25.845 15.8776 24.8382 16.74 22.7116Z" fill="white"/>
<path d="M23.8013 9.718C21.9477 14.2923 24.0205 19.5756 28.4236 21.4963C29.494 21.9648 30.622 22.2059 31.774 22.2059C35.2684 22.2059 38.4052 20.0433 39.7611 16.6961C39.9739 16.1698 40.1387 15.626 40.2515 15.0741C39.5755 14.1978 38.8276 13.3985 38.0132 12.664C38.0964 13.6964 37.9388 14.7425 37.542 15.7269C36.562 18.141 34.302 19.7029 31.7804 19.7029C30.9444 19.7029 30.1316 19.5307 29.3556 19.1935C26.1796 17.8054 24.6845 13.988 26.0197 10.6888C26.4237 9.69077 27.0444 8.83935 27.8268 8.17375C26.7556 8.07362 25.6773 8.07362 24.6053 8.16974C24.2909 8.65192 24.0197 9.17094 23.8013 9.718Z" fill="white"/>
<path d="M26.1785 45.6838C26.7081 45.6838 27.2441 45.663 27.7713 45.6117C28.0825 45.1343 28.3545 44.6169 28.5801 44.0594C30.4313 39.4883 28.3569 34.2043 23.9577 32.2852C22.8849 31.8142 21.7569 31.5747 20.5993 31.5747C17.109 31.5747 13.9762 33.7381 12.6202 37.0878C12.4106 37.6044 12.2466 38.1499 12.1274 38.7089C12.8058 39.5812 13.5554 40.3838 14.369 41.1159C14.2842 40.085 14.4378 39.0389 14.8378 38.0546C15.8186 35.6356 18.081 34.0769 20.5993 34.0769C21.4353 34.0769 22.2497 34.2475 23.0225 34.5831C24.5625 35.2616 25.7561 36.5135 26.3857 38.1226C27.0177 39.727 27.0089 41.4931 26.3617 43.0911C25.9561 44.0891 25.3361 44.9445 24.5537 45.6093C25.0921 45.6606 25.6361 45.6838 26.1785 45.6838Z" fill="white"/>
<path d="M44.2058 28.5913C44.3042 27.4867 44.3058 26.3654 44.2114 25.2408C43.741 24.9164 43.2394 24.6369 42.717 24.4078C41.6442 23.9368 40.5163 23.6965 39.3627 23.6965C35.8683 23.6965 32.7355 25.8616 31.3787 29.2112C29.5283 33.7784 31.6019 39.064 36.0019 40.9887C36.5059 41.2058 37.0323 41.3812 37.5675 41.5005C38.4091 40.794 39.1835 40.0147 39.8859 39.1713C38.8891 39.2586 37.8738 39.0912 36.933 38.6819C33.7587 37.293 32.2611 33.4788 33.5971 30.178C34.5771 27.7655 36.8387 26.2028 39.3627 26.2028C40.1963 26.2028 41.009 26.371 41.7842 26.713C42.7458 27.1319 43.5698 27.7799 44.2058 28.5913Z" fill="white"/>
<path d="M8.17315 25.1899C8.07715 26.2977 8.07554 27.4214 8.17154 28.538C8.64354 28.8632 9.14433 29.1435 9.66352 29.3726C10.7347 29.8428 11.8635 30.0839 13.0179 30.0839C16.5115 30.0839 19.6434 27.9188 20.9994 24.5708C22.8498 20.0036 20.7746 14.7164 16.3795 12.7917C15.8715 12.5698 15.3443 12.3976 14.8107 12.2815C13.9723 12.9863 13.1987 13.7665 12.4971 14.6123C13.5003 14.5234 14.5083 14.6876 15.4451 15.0961C18.6194 16.489 20.117 20.3008 18.7842 23.604C17.8051 26.0181 15.5411 27.5792 13.0211 27.5792C12.1875 27.5792 11.3715 27.407 10.5971 27.0642C9.63871 26.6501 8.81395 26.0037 8.17315 25.1899Z" fill="white"/>
<path d="M70.8491 18.6361C70.8491 20.9637 72.4315 23.2913 75.8923 23.9193C75.9915 24.3999 75.8427 24.9165 75.3979 25.3226C70.5027 25.5813 67.7835 28.943 67.7835 31.9354C67.7835 34.4104 69.6131 36.6644 73.6675 36.6644C76.5842 36.6644 79.1554 35.4453 80.5402 33.3387C81.4802 33.3387 82.0234 33.7088 82.0234 34.3367C82.0234 36.9231 76.4851 39.9155 70.1563 39.9155C63.6788 39.9155 60.8108 36.4425 60.8108 32.6002C60.8108 29.0159 63.9755 25.2481 69.4635 23.9922C66.7443 22.6618 65.5075 20.6305 65.5075 18.524C65.5075 14.9036 69.3643 11.1719 76.1386 11.1719C81.8746 11.1719 84.1978 13.389 84.1978 15.7534C84.1978 17.8223 82.6162 19.6325 80.1442 19.6325C79.353 19.6325 77.8203 19.1896 77.2763 18.1547C78.8091 17.8223 79.6986 16.5664 79.6986 15.4202C79.6986 14.2748 78.809 13.2408 76.7819 13.2408C72.9755 13.2424 70.8491 15.9392 70.8491 18.6361Z" fill="white"/>
<path d="M84.4459 24.326C84.1987 24.326 83.9019 24.4734 83.4571 24.7689C82.8147 24.4734 82.4683 23.328 83.4571 22.7369C85.1387 21.7397 86.9178 20.9635 88.9946 20.9635C90.7754 20.9635 91.813 21.5915 91.3682 22.9956C90.0842 27.5395 89.4898 33.0438 91.5666 36.0738C95.3242 33.8568 97.7962 29.9776 97.7962 26.5054C97.7962 24.0304 96.8074 21.8502 94.7306 21.1486C94.8298 19.2278 96.4122 18.2667 98.045 18.3035C99.973 18.3404 102.05 19.7076 102.05 22.4045C102.05 30.8651 93.9402 39.9161 88.5995 39.9161C83.3587 39.9161 83.2107 29.1655 84.9899 24.8795C85.0891 24.5839 84.8915 24.326 84.4459 24.326Z" fill="white"/>
<path d="M108.278 33.9677C108.774 35.9621 110.603 36.7006 112.877 36.7006C116.438 36.7006 120.986 34.8167 123.113 32.7117C124.398 32.5275 124.893 33.3029 124.349 33.9677C120.938 37.6986 115.202 39.9157 110.405 39.9157C107.142 39.9157 104.274 38.9177 102.889 36.7006C102.692 36.7751 102.494 36.8496 102.295 36.8848C100.367 37.2549 98.5873 36.184 98.9345 34.7422C100.071 34.8535 101.059 34.6685 102.098 34.3361C102.048 34.0037 101.998 33.6713 101.998 33.3021C101.998 28.4994 106.251 20.8149 114.411 20.8149C118.91 20.8149 120.047 22.6988 120.047 24.3616C120.047 27.5022 117.822 30.0149 108.278 33.9677ZM108.132 32.3786C112.927 30.1254 116.191 27.5391 116.191 25.1378C116.191 24.288 115.598 23.6968 114.757 23.6968C109.862 23.6968 108.278 29.7922 108.132 32.3786Z" fill="white"/>
<path d="M123.755 22.7375C125.437 21.7403 127.216 20.9641 129.293 20.9641C131.074 20.9641 132.111 21.5921 131.666 22.9962L131.173 24.6582C133.249 22.4419 136.413 20.9641 139.282 20.9641C141.902 20.9641 143.782 22.5164 142.644 26.3947L140.221 34.8914C139.924 35.9631 140.569 36.406 141.557 36.406C143.387 36.406 145.512 35.4833 146.748 34.559C147.293 34.7432 147.588 35.0764 147.588 35.4457C147.588 35.7036 147.44 35.9991 147.144 36.2586C144.82 38.2162 141.507 39.9159 138.194 39.9159C135.722 39.9159 133.101 38.9924 134.338 34.6695L136.415 27.3174C136.859 25.7651 136.166 25.1372 135.079 25.1372C133.745 25.1372 131.766 26.0607 130.679 27.0579L127.662 37.5874C127.169 39.2863 125.289 39.9151 123.509 39.9151C122.619 39.9151 121.78 39.7308 121.186 39.4345L125.241 25.2477C125.437 24.6566 125.19 24.3242 124.745 24.3242C124.498 24.3242 124.201 24.4724 123.757 24.7679C123.113 24.474 122.766 23.3286 123.755 22.7375Z" fill="white"/>
<path d="M155.401 23.2923L152.484 33.6736C151.89 35.7417 152.681 36.4066 153.967 36.4066C155.797 36.4066 157.923 35.4838 159.159 34.5595C159.703 34.7437 160 35.0769 160 35.4454C160 35.7041 159.851 35.9997 159.554 36.2592C157.231 38.2167 153.473 39.9164 150.161 39.9164C147.144 39.9164 145.166 38.5123 146.303 34.449L149.467 23.2915H146.995C146.748 22.1092 147.539 21.1489 149.072 21.1489H150.061L150.951 18.1196C151.445 16.4199 153.325 15.792 155.104 15.792C155.994 15.792 156.835 15.9762 157.427 16.2718L156.043 21.1481H159.653C159.901 22.3303 159.109 23.2907 157.576 23.2907H155.401V23.2923Z" fill="white"/>
</svg>
