<svg width="126" height="126" viewBox="0 0 126 126" fill="none" xmlns="http://www.w3.org/2000/svg">
<g clip-path="url(#clip0_85_839)">
<path d="M62.9995 126C97.7932 126 125.999 97.7939 125.999 63C125.999 28.2061 97.7932 0 62.9995 0C28.2058 0 0 28.2061 0 63C0 97.7939 28.2058 126 62.9995 126Z" fill="white"/>
<path fill-rule="evenodd" clip-rule="evenodd" d="M4.93213 90.2881L41.1827 66.5637L43.3549 69.8803L6.27172 94.1505L4.93213 90.2881Z" fill="#00100F"/>
<path fill-rule="evenodd" clip-rule="evenodd" d="M109.847 116.264L66.3511 49.8361L69.6826 47.6638L112.644 113.285L109.847 116.264Z" fill="#00100F"/>
<path fill-rule="evenodd" clip-rule="evenodd" d="M84.7436 28.5051L85.0046 28.4134L85.2635 28.3477L85.5364 28.3088L85.7974 28.2959H86.0703L86.3302 28.3228L86.5902 28.3746L86.8372 28.4393L87.0852 28.53L87.3322 28.6475L87.5543 28.778L87.7744 28.9204L87.9826 29.0897L88.1778 29.2839L88.36 29.4931L88.5164 29.7142L88.6718 29.9861L88.8162 30.2859L88.9058 30.5727L88.9716 30.8715L89.0094 31.1843L89.0244 31.4821L89.0094 31.7818L88.9576 32.0806L88.8799 32.3804L88.7764 32.6543L88.6459 32.9402L88.4905 33.1991L88.2933 33.4471L88.0861 33.6682L87.8531 33.8764L87.5921 34.0706L87.3202 34.228L87.0324 34.3704L86.7336 34.462L86.4338 34.5397L86.135 34.5776H85.8233L85.5245 34.5656L85.2257 34.5128L84.9389 34.4481L84.653 34.3435L84.3791 34.214L84.1192 34.0447L83.8722 33.8625L83.6381 33.6553L83.4299 33.4212L83.2347 33.1613L83.0923 32.9262L82.9758 32.6792L82.8842 32.4322L82.8065 32.1842L82.7676 31.9253L82.7278 31.6643V31.4044L82.7407 31.1444L82.7786 30.8845L82.8314 30.6375L82.9091 30.3895L83.0136 30.1425L83.1302 29.9084L83.2736 29.6743L83.4299 29.4662L83.6122 29.259L83.7676 29.0897L84.8213 30.6892L84.7177 30.8586L84.6391 31.0408L84.6002 31.2231L84.5753 31.4183L84.5883 31.6125L84.6281 31.7948L84.6918 31.9771L84.7835 32.1593L84.9518 32.3685L85.147 32.5229L85.3681 32.6394L85.6022 32.7181L85.8502 32.732L86.0962 32.7181L86.3432 32.6394L86.5782 32.5229L86.7864 32.3535L86.9428 32.1593L87.0722 31.9372L87.1499 31.7042L87.1758 31.4562L87.1499 31.2092L87.0852 30.9631L86.9667 30.7291L86.8511 30.5727L86.7077 30.4412L86.5653 30.3377L86.396 30.247L86.2137 30.1952L86.0314 30.1554L85.8502 30.1425L85.655 30.1683L84.6002 28.5698L84.7436 28.5051Z" fill="#00100F"/>
<path fill-rule="evenodd" clip-rule="evenodd" d="M96.6445 30.0129L98.8297 33.3296L82.5714 43.9707L80.3992 40.652L96.6445 30.0129Z" fill="#00100F"/>
<path fill-rule="evenodd" clip-rule="evenodd" d="M90.129 41.4589L90.1549 41.4459L92.6648 39.7806L93.4715 39.2607L103.812 55.0521L104.359 54.5969L104.891 54.1278L105.386 53.6597L105.868 53.1657L106.31 52.6717L106.739 52.1777L107.128 51.6697L107.506 51.1628L107.843 50.6548L108.157 50.1349L108.43 49.6279L108.691 49.108L108.911 48.6001L109.105 48.0931L109.261 47.5862L109.393 47.0922L107.388 47.6509L108.3 45.2317L109.223 42.7995L110.901 44.5026L112.591 46.2067L110.967 46.6619L111.045 47.2744L111.07 47.8979L111.02 48.5483L110.914 49.1987L110.745 49.874L110.511 50.5642L110.226 51.2534L109.887 51.9556L109.483 52.6458L109.028 53.335L108.534 54.0372L107.975 54.7144L107.377 55.3897L106.726 56.0401L106.037 56.6905L105.295 57.315L105.791 58.0699L102.472 60.2412L101.992 59.526L101.107 59.9812L100.223 60.3846L99.3378 60.7491L98.4663 61.0479L97.5949 61.3079L96.7373 61.5041L95.9037 61.6604L95.085 61.763L94.2912 61.8029H93.5223L92.7823 61.7511L92.0662 61.6325L91.4029 61.4772L90.7794 61.269L90.1808 60.9961L89.647 60.6844L88.4648 61.9981L87.6959 59.7213L86.929 57.4454L89.5045 57.6924L92.0811 57.9524L90.883 59.292L91.4029 59.3707L91.9248 59.4225L92.4696 59.4354H93.0423L93.6149 59.3966L94.2006 59.3438L94.7992 59.2541L95.4097 59.1356L96.0212 58.9922L96.6447 58.8239L97.2821 58.6287L97.9076 58.4075L98.544 58.1605L99.1944 57.8876L99.8308 57.5749L100.469 57.2502L90.129 41.4589Z" fill="#00100F"/>
<path fill-rule="evenodd" clip-rule="evenodd" d="M53.4622 68.9439L53.6305 68.4878L53.8257 68.0585L54.0468 67.6302L54.2679 67.2129L54.5149 66.8105L54.7759 66.4331L55.0487 66.0556L55.3475 65.692L55.6463 65.3405L55.972 65.0148L56.6483 64.3903L57.3644 63.8186L58.1452 63.3246L58.95 62.8943L59.7816 62.5308L60.6541 62.232L61.1093 62.1145L61.5515 62.0099L62.0206 61.9322L62.4757 61.8675L62.9429 61.8286L63.413 61.8157H63.8801L64.3611 61.8286L64.8312 61.8675L65.3113 61.9322L64.0354 66.8753L63.5942 66.8623L63.152 66.8882L62.7108 66.94L62.2805 67.0316L61.8642 67.1482L61.4608 67.2916L61.0704 67.4739L60.6929 67.682L60.3294 67.9161L59.9908 68.176L59.6661 68.4499L59.3544 68.7617L59.0805 69.0993L58.8215 69.4499L58.6004 69.8274L58.3902 70.2178L53.4622 68.9439Z" fill="#00100F"/>
<path fill-rule="evenodd" clip-rule="evenodd" d="M57.8843 72.0913L57.8584 72.5464V73.0016L57.8982 73.4438L57.9759 73.885L58.0925 74.3153L58.2229 74.7316L58.4042 75.1479L58.6004 75.5374L58.8345 75.9019L59.0924 76.2664L59.3803 76.6051L59.693 76.9168L60.0296 77.2156L60.3952 77.4755L60.7716 77.7235L61.175 77.9307L59.8872 82.8608L59.4311 82.6786L58.9908 82.4833L58.5606 82.2622L58.1452 82.0421L57.7409 81.7812L57.3505 81.5212L56.974 81.2344L56.6085 80.9485L56.2718 80.6368L55.9332 80.3111L55.6075 79.9745L55.3087 79.6219L55.0229 79.2584L54.75 78.8809L54.488 78.4904L54.254 78.1L54.0339 77.6966L53.8257 77.2803L53.6305 76.8511L53.4622 76.4228L53.3178 75.9806L53.1873 75.5374L53.0717 75.0822L52.9801 74.628L52.9024 74.1589L52.8496 73.6918L52.8108 73.2237L52.7979 72.7416L52.8108 72.2596L52.8377 71.7785L52.8905 71.2965L52.9682 70.8174L57.8843 72.0913Z" fill="#00100F"/>
<path fill-rule="evenodd" clip-rule="evenodd" d="M67.1838 62.4004L67.6519 62.5697L68.0951 62.7649L68.5373 62.9591L68.9666 63.1942L69.3699 63.4282L69.7723 63.6892L70.1617 63.974L70.5263 64.2609L70.8908 64.5597L71.2304 64.8854L71.5681 65.224L71.8798 65.5616L72.1806 65.9252L72.4525 66.3037L72.7254 66.6801L72.9724 67.0835L73.1935 67.4869L73.4136 67.8903L73.6098 68.3185L73.7921 68.7488L73.9484 69.191L74.0909 69.6322L74.2084 70.0874L74.312 70.5426L74.3897 71.0117L74.4564 71.4798L74.4942 71.9608L74.5201 72.429V72.911L74.4942 73.3921L74.4564 73.8851L74.3897 74.3671L69.4596 73.0923L69.4735 72.6371L69.4596 72.169L69.3958 71.7268L69.3042 71.2846L69.1877 70.8563L69.0183 70.44L68.8361 70.0227L68.616 69.6462L68.368 69.2687L68.0951 68.9171L67.7953 68.5914L67.4577 68.2797L67.1051 67.9938L66.7296 67.7468L66.3262 67.5128L65.9099 67.3176L67.1838 62.4004Z" fill="#00100F"/>
<path fill-rule="evenodd" clip-rule="evenodd" d="M73.9224 76.2407L73.7531 76.7088L73.5578 77.164L73.3497 77.6052L73.1156 78.0354L72.8686 78.4528L72.5967 78.8422L72.3208 79.2326L72.022 79.6101L71.7103 79.9746L71.3856 80.3113L71.048 80.637L70.6954 80.9487L70.3189 81.2485L69.9424 81.5343L69.551 81.7953L69.1487 82.0423L68.7443 82.2754L68.316 82.4835L67.8868 82.6787L67.4575 82.849L67.0013 83.0034L66.5462 83.1478L66.09 83.2644L65.6229 83.356L65.1548 83.4337L64.6737 83.4855L64.2056 83.5243L63.7116 83.5383L63.2286 83.5243L62.7346 83.4984L62.2545 83.4466L61.7605 83.3689L63.0344 78.4528L63.5035 78.4906L63.9845 78.4777L64.4387 78.4388L64.8948 78.3611L65.338 78.2436L65.7793 78.0872L66.1956 77.905L66.5989 77.6968L66.9754 77.4498L67.34 77.1769L67.6915 76.8652L68.0033 76.5395L68.3031 76.1759L68.562 75.7985L68.7971 75.3951L69.0052 74.9658L73.9224 76.2407Z" fill="#00100F"/>
<path fill-rule="evenodd" clip-rule="evenodd" d="M70.8518 47.1827L71.1645 46.9487L71.4892 46.7276L72.1137 46.375L72.7521 46.1031L73.4135 45.8949L74.0788 45.7515L74.754 45.6868H75.4194L76.0946 45.7386L76.745 45.8561L77.3954 46.0503L78.0188 46.2844L78.6194 46.5971L79.1891 46.9606L79.723 47.378L80.2299 47.8461L80.6861 48.3789L81.0894 48.9646L81.44 49.588L81.7129 50.2265L81.9211 50.8898L82.0645 51.5531L82.1292 52.2294L82.1422 52.9057L82.0914 53.569L81.9729 54.2313L81.7916 54.8697L81.5576 55.4942L81.2578 56.1058L80.8942 56.6775L80.4779 57.2113L80.0088 57.7053L79.477 58.1734L78.8913 58.5768L78.473 58.8099L76.1992 55.3508L76.4591 55.2343L76.7181 55.1038L76.9532 54.9345L77.1733 54.7393L77.3695 54.5451L77.5368 54.31L77.6932 54.0759L77.8107 53.8289L77.9143 53.569L77.981 53.309L78.0318 53.0361L78.0447 52.7622V52.4764L78.0188 52.2035L77.9541 51.9306L77.8764 51.6577L77.7589 51.3967L77.6155 51.1368L77.4472 50.9027L77.2649 50.6816L77.0567 50.4854L76.8356 50.3042L76.6006 50.1607L76.3546 50.0313L76.0946 49.9267L75.8347 49.849L75.5608 49.7972L75.2869 49.7713H75.001L74.7281 49.7972L74.4562 49.8619L74.1814 49.9406L73.9224 50.0571L73.6605 50.1996L73.3746 50.4077L73.1157 50.6428L70.8518 47.1827Z" fill="#00100F"/>
<path fill-rule="evenodd" clip-rule="evenodd" d="M30.2051 80.6747L33.5346 78.5034L45.8668 97.3255L42.5363 99.4978L30.2051 80.6747Z" fill="#00100F"/>
<path fill-rule="evenodd" clip-rule="evenodd" d="M40.9746 73.6132L44.2912 71.4409L56.6085 90.262L53.2918 92.4343L40.9746 73.6132Z" fill="#00100F"/>
<path d="M16.7285 68.207L14.6375 69.568L13.0581 68.6958C12.8073 68.5564 12.6095 68.4949 12.4646 68.5114C12.3227 68.5259 12.1728 68.5846 12.0149 68.6873L13.1979 70.505L11.3438 71.7118L8.1979 66.8784L10.052 65.6716L11.1876 67.4163C11.3296 67.3023 11.4093 67.1791 11.4269 67.0466C11.4444 66.9141 11.4276 66.6591 11.3765 66.2817C11.3284 65.9022 11.3156 65.6101 11.3379 65.4053C11.3603 65.2005 11.4347 65.0094 11.5613 64.8319C11.6879 64.6543 11.8728 64.4735 12.1161 64.2892C12.3593 64.1049 12.733 63.8487 13.2372 63.5206L14.0941 64.8371L14.0121 64.8905C13.763 65.0526 13.5801 65.1868 13.4634 65.293C13.3447 65.3962 13.2666 65.5054 13.2291 65.6206C13.1917 65.7358 13.1856 65.9257 13.2108 66.1903C13.236 66.4549 13.2394 66.6494 13.2209 66.7739C13.2035 66.8933 13.1369 67.0101 13.0211 67.1245C13.295 66.9807 13.5305 66.9074 13.7276 66.9046C13.9226 66.8987 14.3146 67.0392 14.9034 67.3261L16.7285 68.207ZM16.9001 63.4388L15.0064 64.4054C14.8716 64.0522 14.8091 63.7469 14.819 63.4897C14.8299 63.2275 14.9113 62.954 15.0632 62.6693C15.172 62.4644 15.3584 62.2393 15.6225 61.994C15.8865 61.7486 16.1916 61.5133 16.5378 61.2879C17.0936 60.9262 17.5608 60.6675 17.9394 60.5119C18.3161 60.3532 18.681 60.2994 19.0342 60.3505C19.2811 60.3844 19.5321 60.4977 19.7873 60.6905C20.0405 60.8802 20.2412 61.089 20.3895 61.3168L21.7801 63.4533C21.9283 63.6811 22.0586 63.8514 22.171 63.9642C22.2844 64.072 22.4549 64.1945 22.6825 64.3317L20.9423 65.4643C20.7914 65.3853 20.6846 65.3208 20.6218 65.2708C20.5571 65.2179 20.4686 65.1284 20.3564 65.0026C20.2657 65.3946 20.1329 65.7187 19.9583 65.9751C19.7172 66.3222 19.3796 66.6371 18.9453 66.9198C18.3682 67.2954 17.8424 67.4474 17.3678 67.3758C16.8962 67.3023 16.5329 67.0696 16.2779 66.6779C16.0388 66.3104 15.9499 65.938 16.0113 65.5608C16.0728 65.1836 16.356 64.7485 16.8609 64.2555C17.4655 63.6631 17.8532 63.2724 18.0242 63.0833C18.1931 62.8912 18.3634 62.6744 18.5349 62.4331C18.3866 62.2053 18.2358 62.0765 18.0823 62.0467C17.9289 62.0169 17.7337 62.079 17.4968 62.2332C17.1931 62.4309 16.997 62.6277 16.9084 62.8238C16.8393 62.9768 16.8366 63.1818 16.9001 63.4388ZM19.1427 63.367C18.9469 63.6241 18.7335 63.8776 18.5026 64.1273C18.1913 64.4727 18.0171 64.7265 17.9802 64.889C17.9421 65.0564 17.9646 65.2039 18.0476 65.3314C18.1425 65.4772 18.2707 65.5646 18.4322 65.5935C18.5948 65.6174 18.7748 65.5651 18.9722 65.4366C19.1787 65.3022 19.3374 65.1275 19.4483 64.9127C19.5623 64.6958 19.6092 64.4923 19.5892 64.3021C19.5703 64.1069 19.4857 63.8939 19.3354 63.6631L19.1427 63.367ZM25.8261 56.0984C25.9377 55.4594 26.2805 54.9531 26.8545 54.5795C27.4771 54.1743 28.1293 54.0935 28.811 54.3372C29.4908 54.5779 30.0818 55.0839 30.5839 55.8553C31.0701 56.6024 31.2748 57.3188 31.1979 58.0044C31.119 58.687 30.7653 59.2329 30.1366 59.6421C29.5414 60.0295 28.9466 60.1421 28.3524 59.9797L29.8586 62.2939L28.0045 63.5007L26.5042 61.1956C26.3626 61.8283 26.0123 62.3265 25.4535 62.6902C24.834 63.0935 24.1843 63.1747 23.5045 62.9341C22.8227 62.6904 22.2298 62.1813 21.7257 61.4069C21.2395 60.6598 21.0358 59.9449 21.1147 59.2623C21.1935 58.5797 21.5458 58.0348 22.1714 57.6276C22.7636 57.2421 23.3678 57.1408 23.9839 57.3234L22.4539 54.9728L24.308 53.766L25.8261 56.0984ZM28.6747 58.6415C28.9176 58.4833 29.0382 58.26 29.0363 57.9716C29.0345 57.6831 28.9229 57.3688 28.7015 57.0286C28.1836 56.2329 27.6635 56.0051 27.1411 56.3451C26.9133 56.4933 26.7738 56.7074 26.7224 56.9872C26.6741 57.2651 26.7923 57.6227 27.077 58.06C27.2885 58.385 27.5383 58.6094 27.8264 58.7332C28.1125 58.8539 28.3953 58.8233 28.6747 58.6415ZM25.1669 60.9246C25.3977 60.7744 25.5373 60.5603 25.5856 60.2825C25.6349 59.9996 25.5173 59.6395 25.2326 59.2021C25.0211 58.8772 24.7723 58.6543 24.4862 58.5336C24.2001 58.4128 23.9158 58.4444 23.6333 58.6282C23.3934 58.7844 23.2729 59.0077 23.2717 59.2981C23.2715 59.5836 23.3822 59.8964 23.6036 60.2365C24.1234 61.0352 24.6446 61.2646 25.1669 60.9246ZM37.115 52.1491L33.3977 54.5686C33.6248 54.8445 33.8496 55.0138 34.072 55.0766C34.3876 55.1695 34.6897 55.1221 34.9782 54.9343C35.1604 54.8157 35.3038 54.6574 35.4085 54.4596C35.4712 54.3366 35.5128 54.1647 35.5333 53.9438L37.4698 52.9234C37.5067 53.5912 37.3969 54.1598 37.1404 54.6294C36.882 55.0959 36.3838 55.5694 35.6458 56.0497C35.005 56.4668 34.4426 56.7054 33.9584 56.7654C33.4724 56.8223 32.9803 56.734 32.4824 56.5004C31.9855 56.2617 31.5641 55.8766 31.2182 55.3452C30.726 54.5889 30.5691 53.8198 30.7476 53.0378C30.9291 52.2538 31.4465 51.5841 32.2999 51.0287C32.9924 50.578 33.6072 50.3269 34.1445 50.2756C34.6818 50.2242 35.1847 50.3292 35.6532 50.5907C36.1217 50.8521 36.5635 51.3017 36.9786 51.9395L37.115 52.1491ZM34.6508 52.4883C34.3811 52.1537 34.1169 51.9603 33.8582 51.9082C33.6025 51.8541 33.3471 51.9101 33.0919 52.0761C32.7974 52.2679 32.6381 52.538 32.6142 52.8865C32.5967 53.1054 32.6666 53.369 32.824 53.6773L34.6508 52.4883ZM36.8347 50.6323L39.5316 48.877L40.4656 50.312L37.7687 52.0673L36.8347 50.6323ZM43.5557 53.3658L39.2089 46.6874L40.9446 45.5577L41.4101 46.2729C41.4543 45.8161 41.5421 45.4693 41.6733 45.2325C41.8507 44.9138 42.1034 44.6477 42.4314 44.4343C43.0783 44.0132 43.739 43.9356 44.4135 44.2013C45.091 44.4651 45.667 44.9614 46.1414 45.6903C46.6652 46.4951 46.8727 47.2356 46.7637 47.9118C46.6528 48.585 46.3027 49.1134 45.7135 49.4968C45.428 49.6827 45.1352 49.8041 44.8351 49.8611C44.538 49.9161 44.2345 49.9082 43.9247 49.8375L45.428 52.1471L43.5557 53.3658ZM42.6509 47.9103C42.9 48.2929 43.1653 48.5245 43.4468 48.605C43.7284 48.6855 43.9921 48.6457 44.2381 48.4856C44.4538 48.3452 44.5771 48.1395 44.6083 47.8685C44.6374 47.5944 44.5136 47.2448 44.2369 46.8196C43.9819 46.4278 43.7192 46.1903 43.4487 46.1069C43.1763 46.0205 42.9307 46.0484 42.7121 46.1907C42.4752 46.3449 42.3381 46.566 42.3007 46.8541C42.2634 47.1421 42.3801 47.4942 42.6509 47.9103ZM52.6675 42.0262L48.9502 44.4457C49.1774 44.7216 49.4021 44.8909 49.6246 44.9537C49.9402 45.0466 50.2422 44.9992 50.5307 44.8114C50.7129 44.6928 50.8564 44.5346 50.9611 44.3367C51.0238 44.2138 51.0654 44.0419 51.0859 43.821L53.0223 42.8005C53.0592 43.4683 52.9494 44.037 52.693 44.5065C52.4346 44.9731 51.9364 45.4465 51.1984 45.9269C50.5576 46.3439 49.9951 46.5825 49.511 46.6425C49.0249 46.6995 48.5329 46.6111 48.0349 46.3775C47.538 46.1388 47.1166 45.7538 46.7707 45.2223C46.2785 44.4661 46.1216 43.697 46.3001 42.9149C46.4816 42.131 46.9991 41.4612 47.8525 40.9058C48.5449 40.4551 49.1598 40.2041 49.697 40.1527C50.2343 40.1013 50.7372 40.2063 51.2057 40.4678C51.6742 40.7293 52.116 41.1789 52.5311 41.8166L52.6675 42.0262ZM50.2034 42.3654C49.9337 42.0308 49.6694 41.8374 49.4107 41.7853C49.155 41.7312 48.8996 41.7872 48.6445 41.9533C48.3499 42.145 48.1906 42.4151 48.1667 42.7636C48.1492 42.9825 48.2192 43.2461 48.3766 43.5544L50.2034 42.3654ZM57.1719 39.1917L59.0653 38.2446C59.2073 38.6754 59.2554 39.098 59.2097 39.5126C59.1619 39.9242 59.0133 40.3171 58.764 40.6912C58.5177 41.0634 58.1288 41.4225 57.5973 41.7684C57.084 42.1025 56.6252 42.3341 56.2207 42.4633C55.8173 42.5875 55.4234 42.6234 55.0391 42.5709C54.6527 42.5154 54.2958 42.3889 53.9683 42.1913C53.6408 41.9937 53.3219 41.6565 53.0116 41.1797C52.6874 40.6816 52.5026 40.2117 52.4572 39.77C52.4236 39.446 52.4523 39.1181 52.5434 38.7864C52.6325 38.4517 52.7603 38.1632 52.9268 37.9208C53.1914 37.5367 53.6061 37.1609 54.171 36.7932C54.9606 36.2792 55.6538 36.0291 56.2507 36.0427C56.8506 36.0543 57.411 36.2776 57.9319 36.7125L56.3383 38.0804C56.1492 37.9095 55.9482 37.8198 55.7352 37.8115C55.5233 37.7981 55.2959 37.8705 55.0529 38.0286C54.7462 38.2282 54.5693 38.5012 54.5222 38.8474C54.4763 39.1887 54.5986 39.5825 54.8892 40.0289C55.1481 40.4268 55.4389 40.6677 55.7616 40.7516C56.0844 40.8356 56.3915 40.7827 56.683 40.5929C56.926 40.4348 57.089 40.2401 57.1719 40.0088C57.2579 39.7756 57.2579 39.5032 57.1719 39.1917ZM62.8291 33.2461L61.4852 34.1208L63.7506 37.6012L61.8919 38.811L59.6266 35.3305L58.2827 36.2052L57.4021 34.8522L61.9485 31.8931L62.8291 33.2461ZM63.9617 34.0395C63.4813 33.3015 63.335 32.532 63.5227 31.731C63.7085 30.927 64.225 30.2492 65.0723 29.6977C66.0412 29.0671 66.9559 28.8716 67.8166 29.1113C68.509 29.3048 69.0707 29.7327 69.5016 30.3947C69.9859 31.1388 70.1357 31.9103 69.951 32.7094C69.7674 33.5034 69.2398 34.184 68.3681 34.7514C67.5907 35.2574 66.8335 35.4692 66.0967 35.3867C65.1893 35.2812 64.4776 34.8322 63.9617 34.0395ZM65.8173 32.8252C66.098 33.2564 66.3921 33.519 66.6997 33.6128C67.0102 33.7047 67.2976 33.6646 67.5618 33.4927C67.8291 33.3187 67.9815 33.0746 68.0192 32.7605C68.0599 32.4443 67.9339 32.0615 67.6414 31.612C67.3686 31.1929 67.0794 30.9379 66.7739 30.8471C66.4663 30.7533 66.185 30.7894 65.9299 30.9554C65.6596 31.1314 65.5046 31.3814 65.4648 31.7056C65.4231 32.0268 65.5406 32.4 65.8173 32.8252ZM73.1848 34.0807L68.838 27.4023L70.5737 26.2726L71.0392 26.9878C71.0834 26.531 71.1712 26.1842 71.3024 25.9474C71.4798 25.6288 71.7325 25.3627 72.0605 25.1492C72.7074 24.7282 73.3681 24.6505 74.0426 24.9162C74.7201 25.18 75.2961 25.6763 75.7705 26.4052C76.2943 27.21 76.5018 27.9505 76.3928 28.6268C76.2819 29.3 75.9318 29.8283 75.3426 30.2118C75.0572 30.3976 74.7643 30.519 74.4642 30.576C74.1671 30.631 73.8636 30.6232 73.5539 30.5524L75.0572 32.8621L73.1848 34.0807ZM72.28 28.6252C72.5291 29.0079 72.7944 29.2394 73.0759 29.3199C73.3575 29.4004 73.6213 29.3606 73.8673 29.2005C74.0829 29.0602 74.2063 28.8545 74.2374 28.5834C74.2665 28.3094 74.1427 27.9597 73.866 27.5346C73.611 27.1428 73.3483 26.9052 73.0778 26.8218C72.8054 26.7354 72.5599 26.7633 72.3412 26.9057C72.1043 27.0599 71.9672 27.281 71.9298 27.569C71.8925 27.8571 72.0092 28.2091 72.28 28.6252ZM77.7618 23.825L75.8682 24.7916C75.7334 24.4383 75.6709 24.1331 75.6808 23.8759C75.6917 23.6137 75.7731 23.3402 75.925 23.0554C76.0338 22.8506 76.2202 22.6255 76.4842 22.3801C76.7482 22.1348 77.0534 21.8994 77.3996 21.6741C77.9554 21.3124 78.4226 21.0537 78.8012 20.898C79.1778 20.7393 79.5428 20.6856 79.896 20.7367C80.1429 20.7706 80.3939 20.8839 80.6491 21.0767C80.9023 21.2664 81.103 21.4752 81.2512 21.7029L82.6419 23.8395C82.7901 24.0673 82.9204 24.2376 83.0327 24.3504C83.1461 24.4581 83.3167 24.5806 83.5443 24.7178L81.8041 25.8505C81.6532 25.7714 81.5464 25.7069 81.4836 25.657C81.4188 25.604 81.3304 25.5146 81.2182 25.3887C81.1274 25.7807 80.9947 26.1049 80.82 26.3613C80.579 26.7084 80.2413 27.0233 79.807 27.306C79.23 27.6816 78.7042 27.8336 78.2296 27.762C77.758 27.6885 77.3947 27.4558 77.1397 27.064C76.9005 26.6966 76.8117 26.3242 76.8731 25.947C76.9345 25.5697 77.2177 25.1346 77.7227 24.6417C78.3272 24.0493 78.715 23.6586 78.8859 23.4695C79.0549 23.2773 79.2251 23.0606 79.3966 22.8193C79.2484 22.5915 79.0975 22.4627 78.9441 22.4329C78.7906 22.403 78.5955 22.4652 78.3586 22.6194C78.0549 22.8171 77.8587 23.0139 77.7701 23.2099C77.7011 23.3629 77.6983 23.568 77.7618 23.825ZM80.0045 23.7532C79.8087 24.0103 79.5953 24.2638 79.3644 24.5135C79.053 24.8588 78.8789 25.1127 78.8419 25.2751C78.8039 25.4426 78.8264 25.5901 78.9094 25.7176C79.0043 25.8634 79.1325 25.9507 79.294 25.9796C79.4565 26.0035 79.6365 25.9513 79.8339 25.8228C80.0404 25.6883 80.1992 25.5137 80.3101 25.2988C80.424 25.082 80.471 24.8785 80.451 24.6883C80.432 24.4931 80.3474 24.2801 80.1972 24.0493L80.0045 23.7532ZM89.8901 20.5874L88.0315 21.7972L86.8425 19.9704L85.1569 21.0675L86.3459 22.8943L84.4873 24.104L81.3413 19.2706L83.2 18.0608L84.2763 19.7145L85.9619 18.6174L84.8855 16.9638L86.7442 15.754L89.8901 20.5874Z" fill="#00100F"/>
</g>
<defs>
<clipPath id="clip0_85_839">
<rect width="126" height="126" fill="white"/>
</clipPath>
</defs>
</svg>
