<svg width="17" height="17" viewBox="0 0 17 17" fill="none" xmlns="http://www.w3.org/2000/svg">
<path fill-rule="evenodd" clip-rule="evenodd" d="M11.9356 0H5.06439C2.27187 0 0 2.27187 0 5.06439V11.9356C0 14.7281 2.27187 17 5.06439 17H11.9356C14.7281 17 17 14.7281 17 11.9356V5.06439C17 2.27187 14.7281 0 11.9356 0ZM15.2898 11.9356C15.2898 13.7881 13.788 15.2898 11.9356 15.2898H5.06436C3.21191 15.2898 1.71017 13.7881 1.71017 11.9356V5.06439C1.71017 3.2119 3.21191 1.71019 5.06436 1.71019H11.9356C13.788 1.71019 15.2898 3.2119 15.2898 5.06439V11.9356ZM4.10328 8.49998C4.10328 6.07561 6.07569 4.10321 8.50009 4.10321C10.9245 4.10321 12.8969 6.07558 12.8969 8.49998C12.8969 10.9244 10.9245 12.8968 8.50009 12.8968C6.07569 12.8968 4.10328 10.9244 4.10328 8.49998ZM8.50006 11.1866C7.01627 11.1866 5.81345 9.98379 5.81345 8.50001C5.81345 7.01622 7.01631 5.8134 8.50006 5.8134C9.98384 5.8134 11.1867 7.01622 11.1867 8.50001C11.1867 9.98376 9.98381 11.1866 8.50006 11.1866ZM13.959 4.13619C13.959 4.71806 13.4873 5.18975 12.9054 5.18975C12.3236 5.18975 11.8519 4.71806 11.8519 4.13619C11.8519 3.55432 12.3236 3.08262 12.9054 3.08262C13.4873 3.08262 13.959 3.55432 13.959 4.13619Z" fill="white"/>
</svg>
