<svg width="14" height="14" viewBox="0 0 14 14" fill="none" xmlns="http://www.w3.org/2000/svg">
<path d="M4.04492 10.1611C6.02051 12.1367 8.41992 13.6611 10.3818 13.6611C11.2637 13.6611 12.0361 13.3535 12.6582 12.6699C13.0205 12.2666 13.2461 11.7949 13.2461 11.3301C13.2461 10.9883 13.1162 10.6602 12.7949 10.4277L10.6963 8.9375C10.375 8.71875 10.1084 8.60938 9.8623 8.60938C9.55469 8.60938 9.27441 8.78711 8.95996 9.09473L8.47461 9.57324C8.39941 9.64844 8.30371 9.68262 8.21484 9.68262C8.1123 9.68262 8.00977 9.6416 7.94141 9.60742C7.51758 9.38184 6.79297 8.75977 6.11621 8.08984C5.44629 7.41992 4.82422 6.69531 4.60547 6.27148C4.57129 6.19629 4.53027 6.10059 4.53027 5.99805C4.53027 5.90918 4.55762 5.82031 4.63281 5.74512L5.11816 5.24609C5.41895 4.93164 5.60352 4.6582 5.60352 4.34375C5.60352 4.09766 5.4873 3.83105 5.26172 3.50977L3.79199 1.43848C3.55273 1.11035 3.21777 0.966797 2.84863 0.966797C2.39746 0.966797 1.93262 1.17188 1.5293 1.56152C0.866211 2.19727 0.572266 2.9834 0.572266 3.85156C0.572266 5.81348 2.06934 8.19238 4.04492 10.1611Z" fill="white"/>
</svg>
